<svg xmlns="http://www.w3.org/2000/svg" width="219.254" height="195" viewBox="0 0 219.254 195">
  <g id="cash_to_account" transform="translate(-4611 -1446)">
    <path id="Caminho_228" data-name="Caminho 228" d="M4811.37,1533.535H4694a4.218,4.218,0,0,0-.781,0,4.514,4.514,0,0,0-3.971,4.953,4.435,4.435,0,0,0,4.752,4.139h117.37a4.585,4.585,0,0,0,0-9.092Z" transform="translate(-65.581 -73.366)" fill="#fff"/>
    <g id="Grupo_22" data-name="Grupo 22" transform="translate(4611 1446.019)">
      <path id="Caminho_229" data-name="Caminho 229" d="M5344.179,2175.5a26.679,26.679,0,1,0,26.679,26.679A26.679,26.679,0,0,0,5344.179,2175.5Zm7.688,37.875a9.347,9.347,0,0,1-3.711,2.54,1.226,1.226,0,0,0-.785,1.143v2.786a1.226,1.226,0,0,1-1.226,1.226h-3.97a1.227,1.227,0,0,1-1.227-1.226v-2.414a1.224,1.224,0,0,0-.949-1.194,12.272,12.272,0,0,1-4.992-2.3l-.265-.224a1.226,1.226,0,0,1-.272-1.545l1.979-3.464a1.226,1.226,0,0,1,1.85-.333l.321.267a8.072,8.072,0,0,0,5.138,1.686,4.425,4.425,0,0,0,2.73-.722,1.74,1.74,0,0,0,.8-1.525c0-1.445-2.409-2.649-3.773-3.211-5.54-2.408-8.35-5.379-8.35-8.911a7.8,7.8,0,0,1,2.087-5.379,8.144,8.144,0,0,1,3.668-2.312,1.226,1.226,0,0,0,.828-1.16v-2.539a1.226,1.226,0,0,1,1.226-1.227h3.97a1.226,1.226,0,0,1,1.226,1.227v2.337a1.227,1.227,0,0,0,.874,1.174,19.46,19.46,0,0,1,3.7,1.617l.324.18a1.226,1.226,0,0,1,.448,1.716l-2.2,3.564a1.227,1.227,0,0,1-1.829.3l-.358-.3a6.223,6.223,0,0,0-4.335-1.284,3.954,3.954,0,0,0-2.2.607q-.051.034-.1.074l-.053.046a1.217,1.217,0,0,0-.06,1.75,12.182,12.182,0,0,0,3.693,2.259,17.606,17.606,0,0,1,5.941,3.854,7.652,7.652,0,0,1,2.007,5.459A7.988,7.988,0,0,1,5351.867,2213.375Z" transform="translate(-5203.265 -2057.565)" fill="#fff"/>
      <circle id="Elipse_25" data-name="Elipse 25" cx="4.527" cy="4.527" r="4.527" transform="translate(90.224 140.167)" fill="#fff"/>
      <circle id="Elipse_26" data-name="Elipse 26" cx="4.527" cy="4.527" r="4.527" transform="translate(183.197 140.167)" fill="#fff"/>
      <path id="Caminho_230" data-name="Caminho 230" d="M5670.451,1633.8a5.624,5.624,0,0,0,.2.628c.067.162.162.309.243.463a5.5,5.5,0,0,0,.279.5,5.578,5.578,0,0,0,.583.714c.039.042.067.092.108.131l13.946,13.946a5.578,5.578,0,1,0,7.893-7.885l-4.432-4.413h9.057a2.582,2.582,0,0,1,2.583,2.582v28.1c0,4.6,5.566,7.9,10.33,3.529a2.98,2.98,0,0,0,.827-1.916V1643.46a16.751,16.751,0,0,0-16.735-16.735h-6.055l4.421-4.418a5.578,5.578,0,0,0-7.888-7.891l-13.946,13.946-.036.045a5.546,5.546,0,0,0-.659.806c-.095.142-.159.293-.24.441a5.74,5.74,0,0,0-.279.519,5.428,5.428,0,0,0-.178.558c-.047.156-.106.307-.14.469a5.619,5.619,0,0,0,0,2.189C5670.357,1633.53,5670.413,1633.667,5670.451,1633.8Z" transform="translate(-5498.954 -1585.836)" fill="#fff"/>
      <path id="Caminho_231" data-name="Caminho 231" d="M4823.259,1550.051a27.983,27.983,0,0,0-21.174-9.685H4768v-52.327a13.731,13.731,0,0,0-13.444-13.967H4629.381a9.4,9.4,0,0,1-9.329-8.859,9.184,9.184,0,0,1,8.517-9.753q.214-.011.429-.011h116.51a4.365,4.365,0,0,0,2.879-1.091,4.364,4.364,0,0,1-2.843,1.058v-9.277h-.036l-116.564-.018c-9.909,0-17.943,8.344-17.944,18.639q0,.146,0,.292v92.872a13.737,13.737,0,0,0,13.449,13.974h48.8v41.222a28.025,28.025,0,0,0,28.007,27.982h100.826a28.025,28.025,0,0,0,28.007-27.982v-22.3h.162v-22.26A27.95,27.95,0,0,0,4823.259,1550.051Zm-149.387,12.79h-.62v-.257h-48.8a4.573,4.573,0,0,1-4.483-4.658v-77.135a18.066,18.066,0,0,0,9.351,2.591h125.242a4.573,4.573,0,0,1,4.483,4.658v52.325H4701.3A28.066,28.066,0,0,0,4673.872,1562.841Zm144.9,8.408v41.924a16.8,16.8,0,0,1-16.8,16.77H4701.2a16.8,16.8,0,0,1-16.8-16.77v-44.511a17.348,17.348,0,0,1,2.256-8.57,16.753,16.753,0,0,1,14.541-8.57h100.78a16.554,16.554,0,0,1,9.4,2.955l.006,0q.571.395,1.108.837l.018.015q.148.122.293.249l.094.081c.088.077.175.156.262.235l.116.107c.082.076.164.153.244.231l.125.123c.078.076.155.153.23.232l.128.134c.074.078.148.155.221.235.037.039.071.08.107.12q.19.212.374.43c.058.068.115.136.171.205s.1.128.153.193.117.147.173.222.1.127.144.192.116.157.173.237c.045.063.089.125.133.189q.089.128.175.257c.04.06.08.119.119.179q.1.146.188.3l.095.152q.138.227.27.459h.16a16.809,16.809,0,0,1,2.105,6.128Z" transform="translate(-4611 -1446.119)" fill="#fff"/>
    </g>
    <path id="Caminho_232" data-name="Caminho 232" d="M5447.549,1450.691a4.718,4.718,0,0,1-1.6,3.567,4.723,4.723,0,0,0,1.639-3.6,4.573,4.573,0,0,0-4.481-4.656v.039A4.572,4.572,0,0,1,5447.549,1450.691Z" transform="translate(-697.562)" fill="#fff"/>
    <path id="Caminho_233" data-name="Caminho 233" d="M5445.95,1454.458a4.718,4.718,0,0,0,1.6-3.567,4.572,4.572,0,0,0-4.442-4.652v9.277A4.365,4.365,0,0,0,5445.95,1454.458Z" transform="translate(-697.562 -0.2)" fill="#fff"/>
    <ellipse id="Elipse_27" data-name="Elipse 27" cx="8.967" cy="9.316" rx="8.967" ry="9.316" transform="translate(4732.094 1511.248)" fill="#fff"/>
  </g>
</svg>
