<svg xmlns="http://www.w3.org/2000/svg" width="203.427" height="164.775" viewBox="0 0 203.427 164.775">
  <g id="cash_to_card" transform="translate(-6443 647)">
    <g id="Grupo_20" data-name="Grupo 20" transform="translate(6443 -647)">
      <path id="Caminho_224" data-name="Caminho 224" d="M6478.811,14.759a2.922,2.922,0,0,0-.811,1.879v26.2a16.427,16.427,0,0,0,16.411,16.41h5.938l-4.335,4.332a5.47,5.47,0,0,0,7.735,7.738h0l13.675-13.675.036-.044a5.435,5.435,0,0,0,.646-.79c.093-.14.156-.287.235-.432a5.339,5.339,0,0,0,.273-.509,5.239,5.239,0,0,0,.175-.547c.047-.153.1-.3.137-.459a5.5,5.5,0,0,0,0-2.147c-.027-.14-.082-.274-.121-.4a5.312,5.312,0,0,0-.191-.615c-.065-.159-.158-.3-.238-.454a5.294,5.294,0,0,0-.273-.487,5.475,5.475,0,0,0-.572-.7c-.038-.041-.065-.09-.107-.129l-13.675-13.675a5.47,5.47,0,0,0-7.74,7.732l4.346,4.327h-8.881a2.532,2.532,0,0,1-2.532-2.532V18.22C6488.941,13.71,6483.482,10.475,6478.811,14.759Z" transform="translate(-6472.451 91.857)" fill="#fff"/>
      <path id="Caminho_226" data-name="Caminho 226" d="M6639.567-571.544a27.44,27.44,0,0,0-20.763-9.5H6596.8v-38.476A27.513,27.513,0,0,0,6569.316-647h-98.833a27.409,27.409,0,0,0-11.909,2.719,27.487,27.487,0,0,0-2.9,1.62q-.279.179-.553.364-.548.371-1.077.766a27.622,27.622,0,0,0-2.517,2.129,27.436,27.436,0,0,0-8.53,19.885h0v43.973a27.513,27.513,0,0,0,27.483,27.483h21.986V-509.7a27.482,27.482,0,0,0,27.464,27.439H6618.8a27.482,27.482,0,0,0,27.464-27.439v-21.872h.158V-553.4A27.4,27.4,0,0,0,6639.567-571.544ZM6493.078-559h-22.509a16.519,16.519,0,0,1-16.47-16.529v-46.163a16.335,16.335,0,0,1,2.15-6.12h.018a16.485,16.485,0,0,1,5.093-5.352l.04-.026q.193-.127.39-.248l.048-.03q.215-.132.433-.257l.032-.017c.125-.072.253-.141.381-.21l.133-.07q.147-.077.3-.151l.146-.073q.187-.09.375-.176l.176-.078c.093-.041.188-.082.282-.122l.212-.087.214-.085.237-.09.178-.064c.181-.064.364-.126.548-.184l.085-.027c.1-.032.209-.063.315-.094l.111-.032c.111-.031.222-.061.334-.09l.047-.012a16.594,16.594,0,0,1,3.183-.488l.132-.007.305-.012c.1,0,.2,0,.3-.005l.174,0h98.9a16.5,16.5,0,0,1,14.181,8.086,16.428,16.428,0,0,1,2.309,8.4v38.37h-65.879A27.521,27.521,0,0,0,6493.078-559Zm142.092,8.245v41.111A16.477,16.477,0,0,1,6618.7-493.2H6519.88a16.477,16.477,0,0,1-16.47-16.444v-43.648a17.013,17.013,0,0,1,2.212-8.4,16.427,16.427,0,0,1,14.258-8.4h77.077v.159h21.9a16.371,16.371,0,0,1,9.069,2.739,16.668,16.668,0,0,1,5.021,5.505h.157a16.48,16.48,0,0,1,2.065,6.009Z" transform="translate(-6443 647)" fill="#fff"/>
    </g>
    <path id="Caminho_227" data-name="Caminho 227" d="M6791.662-499.5a26.162,26.162,0,0,0-26.162,26.162,26.162,26.162,0,0,0,26.162,26.162,26.162,26.162,0,0,0,26.162-26.162A26.162,26.162,0,0,0,6791.662-499.5Zm7.538,37.141a9.166,9.166,0,0,1-3.639,2.49,1.2,1.2,0,0,0-.77,1.121v2.732a1.2,1.2,0,0,1-1.2,1.2H6789.7a1.2,1.2,0,0,1-1.2-1.2v-2.368a1.2,1.2,0,0,0-.93-1.171,12.026,12.026,0,0,1-4.9-2.254l-.26-.22a1.2,1.2,0,0,1-.267-1.515l1.941-3.4a1.2,1.2,0,0,1,1.814-.327l.314.262a7.914,7.914,0,0,0,5.039,1.653,4.338,4.338,0,0,0,2.677-.708,1.7,1.7,0,0,0,.788-1.5c0-1.417-2.362-2.6-3.7-3.149-5.432-2.362-8.187-5.275-8.187-8.739a7.647,7.647,0,0,1,2.047-5.274,7.991,7.991,0,0,1,3.6-2.268,1.2,1.2,0,0,0,.812-1.137v-2.49a1.2,1.2,0,0,1,1.2-1.2h3.893a1.2,1.2,0,0,1,1.2,1.2v2.291a1.2,1.2,0,0,0,.857,1.151,19.094,19.094,0,0,1,3.63,1.585l.317.176a1.2,1.2,0,0,1,.44,1.682l-2.154,3.495a1.2,1.2,0,0,1-1.794.293l-.351-.293a6.1,6.1,0,0,0-4.251-1.26,3.878,3.878,0,0,0-2.155.6c-.033.023-.065.047-.1.073l-.052.046a1.194,1.194,0,0,0-.059,1.716,11.953,11.953,0,0,0,3.622,2.215,17.263,17.263,0,0,1,5.826,3.779,7.5,7.5,0,0,1,1.968,5.353A7.832,7.832,0,0,1,6799.2-462.359Z" transform="translate(-271.366 -124.113)" fill="#fff"/>
    <circle id="Elipse_23" data-name="Elipse 23" cx="4.44" cy="4.44" r="4.44" transform="translate(6470.271 -601.812)" fill="#fff"/>
    <circle id="Elipse_24" data-name="Elipse 24" cx="4.44" cy="4.44" r="4.44" transform="translate(6561.441 -601.812)" fill="#fff"/>
    <rect id="Retângulo_27" data-name="Retângulo 27" width="139.37" height="18.075" transform="translate(6498.653 -559.002)" fill="#fff"/>
    <rect id="Retângulo_28" data-name="Retângulo 28" width="69.606" height="6.501" rx="3.25" transform="translate(6508.008 -533.474)" fill="#fff"/>
    <rect id="Retângulo_29" data-name="Retângulo 29" width="38.37" height="6.501" rx="3.25" transform="translate(6508.008 -520.473)" fill="#fff"/>
  </g>
</svg>
