<svg xmlns="http://www.w3.org/2000/svg" width="263.494" height="83.488" viewBox="0 0 263.494 83.488">
  <g id="current_logo_-_QC" data-name="current logo - QC" transform="translate(-255.944 -70.517)">
    <path id="Caminho_58" data-name="Caminho 58" d="M456.349,606.311c.572,2.35-.353,4.593-2.067,5.01l-16.1,3.923c-1.714.418-3.568-1.148-4.14-3.5l-3.747-15.381c-.573-2.349.353-4.593,2.067-5.011l16.1-3.923c1.714-.417,3.567,1.149,4.14,3.5Z" transform="translate(-155.462 -461.306)" fill="#ee3124"/>
    <path id="Caminho_59" data-name="Caminho 59" d="M672.085,464.523c.572,2.35-.353,4.593-2.067,5.011l-16.1,3.923c-1.714.418-3.568-1.148-4.14-3.5l-3.747-15.381c-.573-2.349.354-4.593,2.067-5.011l16.1-3.923c1.714-.417,3.567,1.149,4.14,3.5Z" transform="translate(-348.015 -334.755)" fill="#0083ca"/>
    <path id="Caminho_60" data-name="Caminho 60" d="M395.292,343.51c.572,2.35-.353,4.593-2.067,5.011l-16.1,3.923c-1.714.418-3.568-1.148-4.14-3.5l-3.747-15.381c-.573-2.349.353-4.593,2.067-5.011l16.1-3.923c1.714-.417,3.567,1.149,4.14,3.5Z" transform="translate(-100.966 -226.746)" fill="#0083ca"/>
    <path id="Caminho_61" data-name="Caminho 61" d="M616.094,194.431c.583,2.358-.311,4.608-2,5.024l-15.839,3.918c-1.686.417-3.526-1.156-4.109-3.514l-3.818-15.435c-.584-2.357.311-4.608,2-5.025l15.84-3.918c1.686-.417,3.526,1.157,4.109,3.515Z" transform="translate(-298.294 -93.626)" fill="#ee3124"/>
    <path id="Caminho_62" data-name="Caminho 62" d="M949.887,356.112a14.755,14.755,0,0,1-7.764,1.2s-5.03-.583-14.325-5.5c0,0,16.512,4.082,19.647-14.981,0,0,2.515-19.683-13.651-20.522,0,0-16.458-1.9-18.353,16.148,0,0-1.167,10.024,4.775,16.33,0,0-.328.182-1.567-.365a3.99,3.99,0,0,0-1.458-.328v1.822a19.1,19.1,0,0,1,7.946,2.624s10.862,6.707,14.58,8.019a6.111,6.111,0,0,0,4.666,0l6.014-3.207Zm-29.926-23.657s.474-14.981,12.685-13.924c0,0,8.821.547,10.1,12.539,0,0,2.661,18.517-11.263,19.611,0,0-12.175.292-11.518-18.225" transform="translate(-588.546 -219.327)" fill="#ee3124"/>
    <path id="Caminho_63" data-name="Caminho 63" d="M949.887,356.112a14.755,14.755,0,0,1-7.764,1.2s-5.03-.583-14.325-5.5c0,0,16.512,4.082,19.647-14.981,0,0,2.515-19.683-13.651-20.522,0,0-16.458-1.9-18.353,16.148,0,0-1.167,10.024,4.775,16.33,0,0-.328.182-1.567-.365a3.99,3.99,0,0,0-1.458-.328v1.822a19.1,19.1,0,0,1,7.946,2.624s10.862,6.707,14.58,8.019a6.111,6.111,0,0,0,4.666,0l6.014-3.207Zm-29.926-23.657s.474-14.981,12.685-13.924c0,0,8.821.547,10.1,12.539,0,0,2.661,18.517-11.263,19.611C931.479,350.681,919.3,350.972,919.961,332.455Z" transform="translate(-588.546 -219.327)" fill="none" stroke="#ee3124" stroke-miterlimit="10" stroke-width="1"/>
    <path id="Caminho_64" data-name="Caminho 64" d="M1235.987,447.783l.048,1.118a19.3,19.3,0,0,0-7,3.013l-.583-.486a22.945,22.945,0,0,0,.243-3.645s-3.05,2.953-4.326,3.451c-1.021.68-8.2,2.685-8.991-5.006-.267-5.067.1-8.165,0-12.879,0,0,.207-3.232-3.694-3.159l-.365-1.057a54.113,54.113,0,0,0,6.853-.948s.984-.328.948.547-.875,16.111.036,17.9a4.321,4.321,0,0,0,5.176,2.333s4.01-1.057,4.338-6.124c0,0,.146-7.071.037-10.133,0,0,.255-3.062-3.973-2.3v-1.349a54.433,54.433,0,0,0,6.6-.948s1.24-.292,1.167.875-.474,15.382-.365,16.585.547,3.171,2.661,2.515Z" transform="translate(-852.714 -319.139)" fill="#ee3124"/>
    <path id="Caminho_65" data-name="Caminho 65" d="M1235.987,447.783l.048,1.118a19.3,19.3,0,0,0-7,3.013l-.583-.486a22.945,22.945,0,0,0,.243-3.645s-3.05,2.953-4.326,3.451c-1.021.68-8.2,2.685-8.991-5.006-.267-5.067.1-8.165,0-12.879,0,0,.207-3.232-3.694-3.159l-.365-1.057a54.113,54.113,0,0,0,6.853-.948s.984-.328.948.547-.875,16.111.036,17.9a4.321,4.321,0,0,0,5.176,2.333s4.01-1.057,4.338-6.124c0,0,.146-7.071.037-10.133,0,0,.255-3.062-3.973-2.3v-1.349a54.433,54.433,0,0,0,6.6-.948s1.24-.292,1.167.875-.474,15.382-.365,16.585.547,3.171,2.661,2.515Z" transform="translate(-852.714 -319.139)" fill="none" stroke="#ee3124" stroke-miterlimit="10" stroke-width="1"/>
    <path id="Caminho_66" data-name="Caminho 66" d="M1439.63,443.141l.219-18.918s.109-1.385-.948-.656c0,0-4.629,2.479-6.415,2.661l.036,1.239s3.354-.948,3.682.364l.219,15.018s.365,3.062-3.791,3.463l-.036,1.2a76.253,76.253,0,0,1,10.68-.037l.109-1.276s-3.754-.219-3.754-3.062" transform="translate(-1050.112 -314.923)" fill="#ee3124"/>
    <path id="Caminho_67" data-name="Caminho 67" d="M1439.63,443.141l.219-18.918s.109-1.385-.948-.656c0,0-4.629,2.479-6.415,2.661l.036,1.239s3.354-.948,3.682.364l.219,15.018s.365,3.062-3.791,3.463l-.036,1.2a76.253,76.253,0,0,1,10.68-.037l.109-1.276S1439.63,445.984,1439.63,443.141Z" transform="translate(-1050.112 -314.923)" fill="none" stroke="#ee3124" stroke-miterlimit="10" stroke-width="1"/>
    <path id="Caminho_68" data-name="Caminho 68" d="M1466.1,314.247a2.668,2.668,0,1,0-2.242-2.634,2.461,2.461,0,0,0,2.242,2.634" transform="translate(-1078.117 -212.838)" fill="#ee3124"/>
    <ellipse id="Elipse_16" data-name="Elipse 16" cx="2.242" cy="2.634" rx="2.242" ry="2.634" transform="translate(385.745 96.142)" fill="none" stroke="#ee3124" stroke-miterlimit="10" stroke-width="1"/>
    <path id="Caminho_69" data-name="Caminho 69" d="M1547.273,439.928l.766,1.094s-4.228,3.937-6.853,4.338c0,0-9.878,2.442-11.081-10.717,0,0-.4-6.926,4.265-11.154a11.135,11.135,0,0,1,13.815-.911l-1.239,6.452-1.385-.255s.437-5.395-4.593-6.16c0,0-6.124-.583-7.144,7.618,0,0-1.13,6.707,2.879,10.607,0,0,3.536,3.937,10.571-.911" transform="translate(-1137.234 -312.439)" fill="#ee3124"/>
    <path id="Caminho_70" data-name="Caminho 70" d="M1547.273,439.928l.766,1.094s-4.228,3.937-6.853,4.338c0,0-9.878,2.442-11.081-10.717,0,0-.4-6.926,4.265-11.154a11.135,11.135,0,0,1,13.815-.911l-1.239,6.452-1.385-.255s.437-5.395-4.593-6.16c0,0-6.124-.583-7.144,7.618,0,0-1.13,6.707,2.879,10.607C1536.7,440.84,1540.238,444.776,1547.273,439.928Z" transform="translate(-1137.234 -312.439)" fill="none" stroke="#ee3124" stroke-miterlimit="10" stroke-width="1"/>
    <path id="Caminho_71" data-name="Caminho 71" d="M1694.491,344.327c.048-1.434-.1-1.573.316-29.744.146-1.264-1.021-.559-1.021-.559a59.842,59.842,0,0,1-6.439,2.892l.024,1.118,1.749-.316c2.017-.365,1.944,1.75,1.944,1.75s-.024,22.842,0,26.074-3.475,2.916-3.475,2.916l.1,1.263a64.835,64.835,0,0,1,10.716-.122v-.948c-.6-.141-1.458-.462-2.624-.875-1.337-.462-1.288-3.451-1.288-3.451" transform="translate(-1277.586 -217.166)" fill="#ee3124"/>
    <path id="Caminho_72" data-name="Caminho 72" d="M1694.491,344.327c.048-1.434-.1-1.573.316-29.744.146-1.264-1.021-.559-1.021-.559a59.842,59.842,0,0,1-6.439,2.892l.024,1.118,1.749-.316c2.017-.365,1.944,1.75,1.944,1.75s-.024,22.842,0,26.074-3.475,2.916-3.475,2.916l.1,1.263a64.835,64.835,0,0,1,10.716-.122v-.948c-.6-.141-1.458-.462-2.624-.875C1694.442,347.316,1694.491,344.327,1694.491,344.327Z" transform="translate(-1277.586 -217.166)" fill="none" stroke="#ee3124" stroke-miterlimit="10" stroke-width="1"/>
    <path id="Caminho_73" data-name="Caminho 73" d="M1773.144,452.183a7.768,7.768,0,0,1-4.836-2.624l-7.606-10.085,6.658-6.27a10.026,10.026,0,0,1,4.885-1.993l-.049-1.361a61,61,0,0,1-9.016.146l-.024,1.239c2.551.024,1.385,1.385,1.385,1.385l-7.1,7.825,7.1,9.963c1,1.507-1.263,1.628-1.263,1.628l.121,1.166a47.958,47.958,0,0,1,9.817.049Z" transform="translate(-1340.153 -320.721)" fill="#ee3124"/>
    <path id="Caminho_74" data-name="Caminho 74" d="M1773.144,452.183a7.768,7.768,0,0,1-4.836-2.624l-7.606-10.085,6.658-6.27a10.026,10.026,0,0,1,4.885-1.993l-.049-1.361a61,61,0,0,1-9.016.146l-.024,1.239c2.551.024,1.385,1.385,1.385,1.385l-7.1,7.825,7.1,9.963c1,1.507-1.263,1.628-1.263,1.628l.121,1.166a47.958,47.958,0,0,1,9.817.049Z" transform="translate(-1340.153 -320.721)" fill="none" stroke="#ee3124" stroke-miterlimit="10" stroke-width="1"/>
    <path id="Caminho_75" data-name="Caminho 75" d="M1916.78,358.046s-10.984-5.006-19.683.923c0,0-7.825,5.152-6.221,16.136,0,0,1.069,10.352,9.04,12.928,0,0,9.429,2.965,17.253-3.548l-.729-1.6s-11.13,7.484-18.42-.875c0,0-6.61-7.728-.729-19.2a9.411,9.411,0,0,1,8.214-4.666s9.38-.972,9.866,8.554l1.652.1Z" transform="translate(-1459.051 -254.869)" fill="#0083ca"/>
    <path id="Caminho_76" data-name="Caminho 76" d="M1916.78,358.046s-10.984-5.006-19.683.923c0,0-7.825,5.152-6.221,16.136,0,0,1.069,10.352,9.04,12.928,0,0,9.429,2.965,17.253-3.548l-.729-1.6s-11.13,7.484-18.42-.875c0,0-6.61-7.728-.729-19.2a9.411,9.411,0,0,1,8.214-4.666s9.38-.972,9.866,8.554l1.652.1Z" transform="translate(-1459.051 -254.869)" fill="none" stroke="#0083ca" stroke-miterlimit="10" stroke-width="1"/>
    <path id="Caminho_77" data-name="Caminho 77" d="M2184.269,470.544s-3.013,3.061-3.694-.632c0,0,.437-10.935.194-12.782,0,0-.292-5.006-6.513-4.617a18.961,18.961,0,0,0-6.172,1.944,44.29,44.29,0,0,1-.486,4.568l1.166.243s1.6-5.055,5.006-4.957c0,0,3.839-.292,3.839,5.395a44.363,44.363,0,0,0-9.623,5.152s-3.256,2.43-1.166,7.144a5,5,0,0,0,6.173,2.236,10.519,10.519,0,0,0,4.374-2.868s.535,4.423,4.18,2.916c0,0,2.041-1.652,3.3-2.964Zm-7.679-.583s-3.839,4.763-6.512.243a4.51,4.51,0,0,1,2.041-5.784l5.346-2.77s.583,6.464-.875,8.311" transform="translate(-1704.913 -340.928)" fill="#0083ca"/>
    <path id="Caminho_78" data-name="Caminho 78" d="M2184.269,470.544s-3.013,3.061-3.694-.632c0,0,.437-10.935.194-12.782,0,0-.292-5.006-6.513-4.617a18.961,18.961,0,0,0-6.172,1.944,44.29,44.29,0,0,1-.486,4.568l1.166.243s1.6-5.055,5.006-4.957c0,0,3.839-.292,3.839,5.395a44.363,44.363,0,0,0-9.623,5.152s-3.256,2.43-1.166,7.144a5,5,0,0,0,6.173,2.236,10.519,10.519,0,0,0,4.374-2.868s.535,4.423,4.18,2.916c0,0,2.041-1.652,3.3-2.964Zm-7.679-.583s-3.839,4.763-6.512.243a4.51,4.51,0,0,1,2.041-5.784l5.346-2.77S2178.048,468.114,2176.59,469.961Z" transform="translate(-1704.913 -340.928)" fill="none" stroke="#0083ca" stroke-miterlimit="10" stroke-width="1"/>
    <path id="Caminho_79" data-name="Caminho 79" d="M2359.5,466.092a22.75,22.75,0,0,1-.194,5.541,13.378,13.378,0,0,0,8.882.547,6.179,6.179,0,0,0,3.645-7.727s-.765-3.135-6.707-5.613c0,0-5.614-2.588-1.312-6.2,0,0,4.337-2.588,5.759,3.718l1.312.036s.474-3.937.693-4.666c0,0-4.994-3.281-9.915.219,0,0-5.431,4.155-.219,8.6a61.594,61.594,0,0,0,5.431,3.5s4.994,3.354.438,6.6c0,0-4.447,2.078-6.561-4.52Z" transform="translate(-1877.232 -339.003)" fill="#0083ca"/>
    <path id="Caminho_80" data-name="Caminho 80" d="M2359.5,466.092a22.75,22.75,0,0,1-.194,5.541,13.378,13.378,0,0,0,8.882.547,6.179,6.179,0,0,0,3.645-7.727s-.765-3.135-6.707-5.613c0,0-5.614-2.588-1.312-6.2,0,0,4.337-2.588,5.759,3.718l1.312.036s.474-3.937.693-4.666c0,0-4.994-3.281-9.915.219,0,0-5.431,4.155-.219,8.6a61.594,61.594,0,0,0,5.431,3.5s4.994,3.354.438,6.6c0,0-4.447,2.078-6.561-4.52Z" transform="translate(-1877.232 -339.003)" fill="none" stroke="#0083ca" stroke-miterlimit="10" stroke-width="1"/>
    <path id="Caminho_81" data-name="Caminho 81" d="M2497.936,355.079l.036,1.312s3.135-.838,3.281.4c0,0,.219,23.584.182,24.2s.146,2.369-3.062,2.88l-.073,1.167A70.266,70.266,0,0,1,2508,385v-1.276s-3.426.037-3.426-2.661-.036-7.4.292-10.716a5.135,5.135,0,0,1,5.067-3.973,3.244,3.244,0,0,1,3.572,3.426s.037,9.258-.037,11.409c0,0,.219,2.078-3.1,2.479l.036,1.239a66.063,66.063,0,0,1,9.587-.109l-.037-1.021s-3.171.036-3.135-2.624l-.146-12.794s.437-5.285-5.541-5.1c0,0-3.427-.182-6.452,4.447l.109-14.435s.292-1.349-.8-.693a42.508,42.508,0,0,1-6.051,2.479" transform="translate(-2001.07 -251.61)" fill="#0083ca"/>
    <path id="Caminho_82" data-name="Caminho 82" d="M2497.936,355.079l.036,1.312s3.135-.838,3.281.4c0,0,.219,23.584.182,24.2s.146,2.369-3.062,2.88l-.073,1.167A70.266,70.266,0,0,1,2508,385v-1.276s-3.426.037-3.426-2.661-.036-7.4.292-10.716a5.135,5.135,0,0,1,5.067-3.973,3.244,3.244,0,0,1,3.572,3.426s.037,9.258-.037,11.409c0,0,.219,2.078-3.1,2.479l.036,1.239a66.063,66.063,0,0,1,9.587-.109l-.037-1.021s-3.171.036-3.135-2.624l-.146-12.794s.437-5.285-5.541-5.1c0,0-3.427-.182-6.452,4.447l.109-14.435s.292-1.349-.8-.693A42.508,42.508,0,0,1,2497.936,355.079Z" transform="translate(-2001.07 -251.61)" fill="none" stroke="#0083ca" stroke-miterlimit="10" stroke-width="1"/>
    <path id="Caminho_83" data-name="Caminho 83" d="M402.551,206.448a1.481,1.481,0,1,1-1.476-1.6,1.544,1.544,0,0,1,1.476,1.6" transform="translate(-128.217 -119.892)" fill="#0083ca"/>
    <path id="Caminho_84" data-name="Caminho 84" d="M349.635,204.073a1.481,1.481,0,1,1-1.476-1.6,1.544,1.544,0,0,1,1.476,1.6" transform="translate(-80.987 -117.773)" fill="#0083ca"/>
    <path id="Caminho_85" data-name="Caminho 85" d="M329.961,236.637a1.481,1.481,0,1,1-1.476-1.6,1.544,1.544,0,0,1,1.476,1.6" transform="translate(-63.428 -146.837)" fill="#0083ca"/>
    <path id="Caminho_86" data-name="Caminho 86" d="M391.188,247.153a1.481,1.481,0,1,1-1.476-1.6,1.544,1.544,0,0,1,1.476,1.6" transform="translate(-118.075 -156.223)" fill="#0083ca"/>
    <path id="Caminho_87" data-name="Caminho 87" d="M437.32,250.2a1.481,1.481,0,1,1-1.476-1.6,1.544,1.544,0,0,1,1.476,1.6" transform="translate(-159.25 -158.947)" fill="#0083ca"/>
    <path id="Caminho_88" data-name="Caminho 88" d="M455.3,288.875a1.481,1.481,0,1,1-1.476-1.6,1.544,1.544,0,0,1,1.476,1.6" transform="translate(-175.296 -193.462)" fill="#0083ca"/>
    <path id="Caminho_89" data-name="Caminho 89" d="M491.254,255.293a1.481,1.481,0,1,1-1.476-1.6,1.544,1.544,0,0,1,1.476,1.6" transform="translate(-207.388 -163.489)" fill="#0083ca"/>
    <path id="Caminho_90" data-name="Caminho 90" d="M508.893,293.963a1.481,1.481,0,1,1-1.476-1.6,1.544,1.544,0,0,1,1.476,1.6" transform="translate(-223.132 -198.003)" fill="#0083ca"/>
    <path id="Caminho_91" data-name="Caminho 91" d="M502.109,214.589a1.481,1.481,0,1,1-1.476-1.6,1.544,1.544,0,0,1,1.476,1.6" transform="translate(-217.077 -127.159)" fill="#0083ca"/>
    <path id="Caminho_92" data-name="Caminho 92" d="M549.258,186.774a1.481,1.481,0,1,1-1.476-1.6,1.544,1.544,0,0,1,1.476,1.6" transform="translate(-259.159 -102.333)" fill="#0083ca"/>
    <path id="Caminho_93" data-name="Caminho 93" d="M543.153,257.668a1.481,1.481,0,1,1-1.476-1.6,1.544,1.544,0,0,1,1.476,1.6" transform="translate(-253.71 -165.608)" fill="#0083ca"/>
    <path id="Caminho_94" data-name="Caminho 94" d="M550.276,298.373a1.481,1.481,0,1,1-1.476-1.6,1.544,1.544,0,0,1,1.476,1.6" transform="translate(-260.068 -201.939)" fill="#0083ca"/>
    <path id="Caminho_95" data-name="Caminho 95" d="M572.325,228.5a1.481,1.481,0,1,1-1.476-1.6,1.544,1.544,0,0,1,1.476,1.6" transform="translate(-279.748 -139.571)" fill="#0083ca"/>
    <path id="Caminho_96" data-name="Caminho 96" d="M606.924,192.879a1.481,1.481,0,1,1-1.476-1.6,1.544,1.544,0,0,1,1.476,1.6" transform="translate(-310.629 -107.782)" fill="#0083ca"/>
    <path id="Caminho_97" data-name="Caminho 97" d="M671.712,157.263a1.481,1.481,0,1,1-1.476-1.6,1.544,1.544,0,0,1,1.476,1.6" transform="translate(-368.455 -75.993)" fill="#0083ca"/>
    <path id="Caminho_98" data-name="Caminho 98" d="M614.726,151.835a1.481,1.481,0,1,1-1.476-1.6,1.544,1.544,0,0,1,1.476,1.6" transform="translate(-317.592 -71.148)" fill="#0083ca"/>
    <path id="Caminho_99" data-name="Caminho 99" d="M561.13,145.729a1.481,1.481,0,1,1-1.476-1.6,1.544,1.544,0,0,1,1.476,1.6" transform="translate(-269.756 -65.698)" fill="#0083ca"/>
    <path id="Caminho_100" data-name="Caminho 100" d="M595.729,112.827a1.481,1.481,0,1,1-1.476-1.6,1.544,1.544,0,0,1,1.476,1.6" transform="translate(-300.637 -36.332)" fill="#0083ca"/>
    <path id="Caminho_101" data-name="Caminho 101" d="M607.6,72.121a1.481,1.481,0,1,1-1.476-1.6,1.544,1.544,0,0,1,1.476,1.6" transform="translate(-311.234 0)" fill="#0083ca"/>
    <path id="Caminho_102" data-name="Caminho 102" d="M648.985,114.862a1.481,1.481,0,1,1-1.476-1.6,1.544,1.544,0,0,1,1.476,1.6" transform="translate(-348.17 -38.148)" fill="#0083ca"/>
    <path id="Caminho_103" data-name="Caminho 103" d="M588.945,453.39a1.481,1.481,0,1,1-1.476-1.6,1.544,1.544,0,0,1,1.476,1.6" transform="translate(-294.582 -340.298)" fill="#0083ca"/>
    <path id="Caminho_104" data-name="Caminho 104" d="M588.322,454.7a1.391,1.391,0,0,1-.853.295,1.609,1.609,0,0,1,0-3.208,1.371,1.371,0,0,1,.151.008" transform="translate(-294.582 -340.299)" fill="#fff"/>
    <path id="Caminho_105" data-name="Caminho 105" d="M617.779,425.576a1.481,1.481,0,1,1-1.476-1.6,1.544,1.544,0,0,1,1.476,1.6" transform="translate(-320.317 -315.473)" fill="#0083ca"/>
    <path id="Caminho_106" data-name="Caminho 106" d="M660.179,468.655a1.481,1.481,0,1,1-1.476-1.6,1.544,1.544,0,0,1,1.476,1.6" transform="translate(-358.161 -353.923)" fill="#0083ca"/>
    <path id="Caminho_107" data-name="Caminho 107" d="M724.629,432.36a1.481,1.481,0,1,1-1.476-1.6,1.544,1.544,0,0,1,1.476,1.6" transform="translate(-415.685 -321.528)" fill="#0083ca"/>
    <path id="Caminho_108" data-name="Caminho 108" d="M352.858,278.7a1.481,1.481,0,1,1-1.476-1.6,1.544,1.544,0,0,1,1.476,1.6" transform="translate(-83.864 -184.379)" fill="#0083ca"/>
    <path id="Caminho_109" data-name="Caminho 109" d="M402.382,286.5a1.481,1.481,0,1,1-1.476-1.6,1.544,1.544,0,0,1,1.476,1.6" transform="translate(-128.066 -191.342)" fill="#0083ca"/>
    <path id="Caminho_110" data-name="Caminho 110" d="M287.391,313.3a1.481,1.481,0,1,1-1.476-1.6,1.544,1.544,0,0,1,1.476,1.6" transform="translate(-25.432 -215.261)" fill="#0083ca"/>
    <path id="Caminho_111" data-name="Caminho 111" d="M340.985,319.064a1.481,1.481,0,1,1-1.476-1.6,1.544,1.544,0,0,1,1.476,1.6" transform="translate(-73.268 -220.407)" fill="#0083ca"/>
    <path id="Caminho_112" data-name="Caminho 112" d="M305.369,352.307a1.481,1.481,0,1,1-1.476-1.6,1.544,1.544,0,0,1,1.476,1.6" transform="translate(-41.478 -250.078)" fill="#0083ca"/>
    <path id="Caminho_113" data-name="Caminho 113" d="M324.364,380.8a1.481,1.481,0,1,1-1.476-1.6,1.544,1.544,0,0,1,1.476,1.6" transform="translate(-58.432 -275.509)" fill="#0083ca"/>
    <path id="Caminho_114" data-name="Caminho 114" d="M293.836,392.672a1.481,1.481,0,1,1-1.476-1.6,1.544,1.544,0,0,1,1.476,1.6" transform="translate(-31.185 -286.105)" fill="#0083ca"/>
    <path id="Caminho_115" data-name="Caminho 115" d="M312.152,420.488a1.481,1.481,0,1,1-1.476-1.6,1.544,1.544,0,0,1,1.476,1.6" transform="translate(-47.533 -310.932)" fill="#0083ca"/>
    <path id="Caminho_116" data-name="Caminho 116" d="M258.9,415.4a1.481,1.481,0,1,1-1.476-1.6,1.544,1.544,0,0,1,1.476,1.6" transform="translate(0 -306.39)" fill="#0083ca"/>
    <path id="Caminho_117" data-name="Caminho 117" d="M276.875,453.73a1.481,1.481,0,1,1-1.476-1.6,1.544,1.544,0,0,1,1.476,1.6" transform="translate(-16.046 -340.602)" fill="#0083ca"/>
    <path id="Caminho_118" data-name="Caminho 118" d="M330.47,459.835a1.481,1.481,0,1,1-1.476-1.6,1.544,1.544,0,0,1,1.476,1.6" transform="translate(-63.882 -346.051)" fill="#0083ca"/>
    <path id="Caminho_119" data-name="Caminho 119" d="M323.007,499.862a1.481,1.481,0,1,1-1.476-1.6,1.544,1.544,0,0,1,1.476,1.6" transform="translate(-57.221 -381.777)" fill="#0083ca"/>
    <path id="Caminho_120" data-name="Caminho 120" d="M265,494.095a1.481,1.481,0,1,1-1.476-1.6,1.544,1.544,0,0,1,1.476,1.6" transform="translate(-5.45 -376.629)" fill="#0083ca"/>
    <path id="Caminho_121" data-name="Caminho 121" d="M340.985,539.209a1.481,1.481,0,1,1-1.476-1.6,1.544,1.544,0,0,1,1.476,1.6" transform="translate(-73.268 -416.895)" fill="#0083ca"/>
    <path id="Caminho_122" data-name="Caminho 122" d="M298.585,577.879a1.481,1.481,0,1,1-1.476-1.6,1.544,1.544,0,0,1,1.476,1.6" transform="translate(-35.423 -451.41)" fill="#0083ca"/>
    <path id="Caminho_123" data-name="Caminho 123" d="M276.2,610.782a1.481,1.481,0,1,1-1.476-1.6,1.544,1.544,0,0,1,1.476,1.6" transform="translate(-15.441 -480.777)" fill="#0083ca"/>
    <path id="Caminho_124" data-name="Caminho 124" d="M329.113,579.236a1.481,1.481,0,1,1-1.476-1.6,1.544,1.544,0,0,1,1.476,1.6" transform="translate(-62.671 -452.621)" fill="#0083ca"/>
    <path id="Caminho_125" data-name="Caminho 125" d="M335.219,621.637a1.481,1.481,0,1,1-1.476-1.6,1.544,1.544,0,0,1,1.476,1.6" transform="translate(-68.121 -490.466)" fill="#0083ca"/>
    <path id="Caminho_126" data-name="Caminho 126" d="M317.58,653.523a1.481,1.481,0,1,1-1.476-1.6,1.544,1.544,0,0,1,1.476,1.6" transform="translate(-52.377 -518.925)" fill="#0083ca"/>
    <path id="Caminho_127" data-name="Caminho 127" d="M369.479,585.342a1.481,1.481,0,1,1-1.476-1.6,1.544,1.544,0,0,1,1.476,1.6" transform="translate(-98.699 -458.071)" fill="#0083ca"/>
    <path id="Caminho_128" data-name="Caminho 128" d="M387.457,625.029a1.481,1.481,0,1,1-1.476-1.6,1.544,1.544,0,0,1,1.476,1.6" transform="translate(-114.745 -493.493)" fill="#0083ca"/>
    <path id="Caminho_129" data-name="Caminho 129" d="M376.263,664.037a1.481,1.481,0,1,1-1.476-1.6,1.544,1.544,0,0,1,1.476,1.6" transform="translate(-104.754 -528.309)" fill="#0083ca"/>
    <path id="Caminho_130" data-name="Caminho 130" d="M398.99,706.778a1.481,1.481,0,1,1-1.476-1.6,1.544,1.544,0,0,1,1.476,1.6" transform="translate(-125.039 -566.458)" fill="#0083ca"/>
    <path id="Caminho_131" data-name="Caminho 131" d="M370.836,735.611a1.481,1.481,0,1,1-1.476-1.6,1.544,1.544,0,0,1,1.476,1.6" transform="translate(-99.91 -592.193)" fill="#0083ca"/>
    <path id="Caminho_132" data-name="Caminho 132" d="M423.413,590.43a1.481,1.481,0,1,1-1.476-1.6,1.544,1.544,0,0,1,1.476,1.6" transform="translate(-146.838 -462.612)" fill="#0083ca"/>
    <path id="Caminho_133" data-name="Caminho 133" d="M475.99,593.144a1.481,1.481,0,1,1-1.476-1.6,1.544,1.544,0,0,1,1.476,1.6" transform="translate(-193.765 -465.035)" fill="#0083ca"/>
    <path id="Caminho_134" data-name="Caminho 134" d="M480.285,612.8a1.474,1.474,0,0,1-1.337.923,1.4,1.4,0,0,1-.942-.369" transform="translate(-198.199 -484.009)" fill="#fff"/>
    <path id="Caminho_135" data-name="Caminho 135" d="M432.8,670.033a1.481,1.481,0,1,1-1.476-1.6,1.544,1.544,0,0,1,1.476,1.6" transform="translate(-155.214 -533.661)" fill="#0083ca"/>
    <path id="Caminho_136" data-name="Caminho 136" d="M394.918,544.3a1.481,1.481,0,1,1-1.476-1.6,1.544,1.544,0,0,1,1.476,1.6" transform="translate(-121.405 -421.438)" fill="#0083ca"/>
    <path id="Caminho_137" data-name="Caminho 137" d="M403.494,542.716a1.376,1.376,0,0,1,.238-.021,1.544,1.544,0,0,1,1.476,1.6,1.649,1.649,0,0,1-.614,1.3" transform="translate(-131.695 -421.439)" fill="#fff"/>
    <path id="Caminho_138" data-name="Caminho 138" d="M377.62,504.95a1.481,1.481,0,1,1-1.476-1.6,1.544,1.544,0,0,1,1.476,1.6" transform="translate(-105.965 -386.318)" fill="#0083ca"/>
    <path id="Caminho_139" data-name="Caminho 139" d="M394.1,504.683a1.617,1.617,0,0,1,.865,1.46,1.692,1.692,0,0,1-.278.937" transform="translate(-123.307 -387.511)" fill="#fff"/>
    <path id="Caminho_140" data-name="Caminho 140" d="M365.748,423.2a1.481,1.481,0,1,1-1.476-1.6,1.544,1.544,0,0,1,1.476,1.6" transform="translate(-95.369 -313.354)" fill="#0083ca"/>
    <path id="Caminho_141" data-name="Caminho 141" d="M373.763,421.629a1.369,1.369,0,0,1,.3-.033,1.544,1.544,0,0,1,1.476,1.6,1.6,1.6,0,0,1-1.009,1.522" transform="translate(-105.158 -313.353)" fill="#fff"/>
    <path id="Caminho_142" data-name="Caminho 142" d="M359.981,358.412a1.481,1.481,0,1,1-1.476-1.6,1.544,1.544,0,0,1,1.476,1.6" transform="translate(-90.222 -255.527)" fill="#0083ca"/>
    <path id="Caminho_143" data-name="Caminho 143" d="M371.368,364.839a1.709,1.709,0,0,1,.167.741,1.544,1.544,0,0,1-1.476,1.6l-.085,0" transform="translate(-101.776 -262.695)" fill="#fff"/>
    <path id="Caminho_144" data-name="Caminho 144" d="M393.9,321.439a1.481,1.481,0,1,1-1.476-1.6,1.544,1.544,0,0,1,1.476,1.6" transform="translate(-120.497 -222.527)" fill="#0083ca"/>
    <path id="Caminho_145" data-name="Caminho 145" d="M444.443,329.919a1.481,1.481,0,1,1-1.476-1.6,1.544,1.544,0,0,1,1.476,1.6" transform="translate(-165.608 -230.095)" fill="#0083ca"/>
    <path id="Caminho_146" data-name="Caminho 146" d="M445.4,342.32c0,.033,0,.066,0,.1a1.544,1.544,0,0,1-1.476,1.6,1.481,1.481,0,0,1-1.36-.98" transform="translate(-166.571 -242.595)" fill="#fff"/>
    <path id="Caminho_147" data-name="Caminho 147" d="M430.311,363.388a1.481,1.481,0,1,1-1.476-1.6,1.544,1.544,0,0,1,1.476,1.6" transform="translate(-152.994 -259.968)" fill="#fff"/>
    <path id="Caminho_148" data-name="Caminho 148" d="M396.164,399.569a1.481,1.481,0,1,1-1.476-1.6,1.544,1.544,0,0,1,1.476,1.6" transform="translate(-122.517 -292.261)" fill="#fff"/>
    <path id="Caminho_149" data-name="Caminho 149" d="M449.08,403.188a1.481,1.481,0,1,1-1.476-1.6,1.544,1.544,0,0,1,1.476,1.6" transform="translate(-169.746 -295.491)" fill="#fff"/>
    <path id="Caminho_150" data-name="Caminho 150" d="M483.9,369.04a1.481,1.481,0,1,1-1.476-1.6,1.544,1.544,0,0,1,1.476,1.6" transform="translate(-200.829 -265.013)" fill="#fff"/>
    <path id="Caminho_151" data-name="Caminho 151" d="M502.448,407.71a1.481,1.481,0,1,1-1.476-1.6,1.544,1.544,0,0,1,1.476,1.6" transform="translate(-217.379 -299.527)" fill="#fff"/>
    <path id="Caminho_152" data-name="Caminho 152" d="M483.452,445.928a1.481,1.481,0,1,1-1.476-1.6,1.544,1.544,0,0,1,1.476,1.6" transform="translate(-200.425 -333.638)" fill="#fff"/>
    <path id="Caminho_153" data-name="Caminho 153" d="M549.033,411.1a1.481,1.481,0,1,1-1.476-1.6,1.544,1.544,0,0,1,1.476,1.6" transform="translate(-258.958 -302.555)" fill="#fff"/>
    <path id="Caminho_154" data-name="Caminho 154" d="M536.822,450.9a1.481,1.481,0,1,1-1.476-1.6,1.544,1.544,0,0,1,1.476,1.6" transform="translate(-248.06 -338.079)" fill="#fff"/>
    <path id="Caminho_155" data-name="Caminho 155" d="M437.547,442.762a1.481,1.481,0,1,1-1.476-1.6,1.544,1.544,0,0,1,1.476,1.6" transform="translate(-159.453 -330.813)" fill="#fff"/>
    <path id="Caminho_156" data-name="Caminho 156" d="M449.08,482.335a1.481,1.481,0,1,1-1.476-1.6,1.544,1.544,0,0,1,1.476,1.6" transform="translate(-169.746 -366.133)" fill="#fff"/>
    <path id="Caminho_157" data-name="Caminho 157" d="M428.5,508.116a1.481,1.481,0,1,1-1.476-1.6,1.544,1.544,0,0,1,1.476,1.6" transform="translate(-151.379 -389.144)" fill="#fff"/>
    <path id="Caminho_158" data-name="Caminho 158" d="M388.474,464.7a1.481,1.481,0,1,1-1.476-1.6,1.544,1.544,0,0,1,1.476,1.6" transform="translate(-115.653 -350.391)" fill="#fff"/>
    <path id="Caminho_159" data-name="Caminho 159" d="M490.011,524.623a1.481,1.481,0,1,1-1.476-1.6,1.544,1.544,0,0,1,1.476,1.6" transform="translate(-206.279 -403.877)" fill="#fff"/>
    <path id="Caminho_160" data-name="Caminho 160" d="M434.381,550.178a1.481,1.481,0,1,1-1.476-1.6,1.544,1.544,0,0,1,1.476,1.6" transform="translate(-156.627 -426.686)" fill="#fff"/>
    <path id="Caminho_161" data-name="Caminho 161" d="M442.3,630.231a1.481,1.481,0,1,1-1.476-1.6,1.544,1.544,0,0,1,1.476,1.6" transform="translate(-163.691 -498.136)" fill="#fff"/>
    <path id="Caminho_162" data-name="Caminho 162" d="M498.378,635.659a1.481,1.481,0,1,1-1.476-1.6,1.544,1.544,0,0,1,1.476,1.6" transform="translate(-213.747 -502.981)" fill="#fff"/>
    <path id="Caminho_163" data-name="Caminho 163" d="M486.166,675.006a1.481,1.481,0,1,1-1.476-1.6,1.544,1.544,0,0,1,1.476,1.6" transform="translate(-202.847 -538.1)" fill="#fff"/>
    <path id="Caminho_164" data-name="Caminho 164" d="M504.71,714.808a1.481,1.481,0,1,1-1.476-1.6,1.544,1.544,0,0,1,1.476,1.6" transform="translate(-219.398 -573.625)" fill="#fff"/>
    <path id="Caminho_165" data-name="Caminho 165" d="M539.081,678.173a1.481,1.481,0,1,1-1.476-1.6,1.544,1.544,0,0,1,1.476,1.6" transform="translate(-250.077 -540.927)" fill="#fff"/>
    <path id="Caminho_166" data-name="Caminho 166" d="M451.794,708.927a1.481,1.481,0,1,1-1.476-1.6,1.544,1.544,0,0,1,1.476,1.6" transform="translate(-172.169 -568.376)" fill="#fff"/>
    <path id="Caminho_167" data-name="Caminho 167" d="M706.424,392.786a1.481,1.481,0,1,1-1.476-1.6,1.544,1.544,0,0,1,1.476,1.6" transform="translate(-399.437 -286.207)" fill="#fff"/>
    <path id="Caminho_168" data-name="Caminho 168" d="M717.279,353.437a1.481,1.481,0,1,1-1.476-1.6,1.544,1.544,0,0,1,1.476,1.6" transform="translate(-409.125 -251.086)" fill="#fff"/>
    <path id="Caminho_169" data-name="Caminho 169" d="M653.056,388.263a1.481,1.481,0,1,1-1.476-1.6,1.544,1.544,0,0,1,1.476,1.6" transform="translate(-351.803 -282.17)" fill="#fff"/>
    <path id="Caminho_170" data-name="Caminho 170" d="M660.292,348.01a1.481,1.481,0,1,1-1.476-1.6,1.544,1.544,0,0,1,1.476,1.6" transform="translate(-358.262 -246.242)" fill="#fff"/>
    <path id="Caminho_171" data-name="Caminho 171" d="M695.118,310.924a1.481,1.481,0,1,1-1.476-1.6,1.544,1.544,0,0,1,1.476,1.6" transform="translate(-389.346 -213.142)" fill="#fff"/>
    <path id="Caminho_172" data-name="Caminho 172" d="M641.75,308.661a1.481,1.481,0,1,1-1.476-1.6,1.544,1.544,0,0,1,1.476,1.6" transform="translate(-341.712 -211.122)" fill="#fff"/>
    <path id="Caminho_173" data-name="Caminho 173" d="M654.412,268.862a1.481,1.481,0,1,1-1.476-1.6,1.544,1.544,0,0,1,1.476,1.6" transform="translate(-353.014 -175.6)" fill="#fff"/>
    <path id="Caminho_174" data-name="Caminho 174" d="M612.8,271.123a1.481,1.481,0,1,1-1.476-1.6,1.544,1.544,0,0,1,1.476,1.6" transform="translate(-315.876 -177.618)" fill="#fff"/>
    <path id="Caminho_175" data-name="Caminho 175" d="M624.111,230.419a1.481,1.481,0,1,1-1.476-1.6,1.544,1.544,0,0,1,1.476,1.6" transform="translate(-325.969 -141.288)" fill="#fff"/>
    <path id="Caminho_176" data-name="Caminho 176" d="M677.931,235.846a1.481,1.481,0,1,1-1.476-1.6,1.544,1.544,0,0,1,1.476,1.6" transform="translate(-374.005 -146.131)" fill="#fff"/>
    <path id="Caminho_177" data-name="Caminho 177" d="M712.3,199.663a1.481,1.481,0,1,1-1.476-1.6,1.544,1.544,0,0,1,1.476,1.6" transform="translate(-404.686 -113.837)" fill="#fff"/>
    <path id="Caminho_178" data-name="Caminho 178" d="M659.613,199.212a1.481,1.481,0,1,1-1.476-1.6,1.544,1.544,0,0,1,1.476,1.6" transform="translate(-357.656 -113.434)" fill="#fff"/>
    <path id="Caminho_179" data-name="Caminho 179" d="M501.545,485.276a1.481,1.481,0,1,1-1.476-1.6,1.544,1.544,0,0,1,1.476,1.6" transform="translate(-216.574 -368.758)" fill="#fff"/>
    <path id="Caminho_180" data-name="Caminho 180" d="M555.364,490.478a1.481,1.481,0,1,1-1.476-1.6,1.544,1.544,0,0,1,1.476,1.6" transform="translate(-264.609 -373.401)" fill="#fff"/>
    <path id="Caminho_181" data-name="Caminho 181" d="M536.369,371.529a1.481,1.481,0,1,1-1.476-1.6,1.544,1.544,0,0,1,1.476,1.6" transform="translate(-247.655 -267.234)" fill="#fff"/>
    <path id="Caminho_182" data-name="Caminho 182" d="M551.52,340.549a1.481,1.481,0,1,1-1.476-1.6,1.544,1.544,0,0,1,1.476,1.6" transform="translate(-261.179 -239.583)" fill="#fff"/>
    <path id="Caminho_183" data-name="Caminho 183" d="M495.664,328.223a1.481,1.481,0,1,1-1.476-1.6,1.544,1.544,0,0,1,1.476,1.6" transform="translate(-211.324 -228.582)" fill="#0083ca"/>
    <path id="Caminho_184" data-name="Caminho 184" d="M495.222,330.9a1.67,1.67,0,0,1,.442,1.144,1.481,1.481,0,1,1-2.952,0,1.727,1.727,0,0,1,.088-.547" transform="translate(-211.324 -232.399)" fill="#fff"/>
    <path id="Caminho_185" data-name="Caminho 185" d="M595.729,383.175a1.481,1.481,0,1,1-1.476-1.6,1.544,1.544,0,0,1,1.476,1.6" transform="translate(-300.637 -277.629)" fill="#0083ca"/>
    <path id="Caminho_186" data-name="Caminho 186" d="M432.516,669.083a1.44,1.44,0,0,1,1.189-.654,1.609,1.609,0,0,1,0,3.208,1.369,1.369,0,0,1-.575-.126" transform="translate(-157.598 -533.661)" fill="#fff"/>
    <path id="Caminho_187" data-name="Caminho 187" d="M440.373,749.858a1.481,1.481,0,1,1-1.476-1.6,1.544,1.544,0,0,1,1.476,1.6" transform="translate(-161.975 -604.909)" fill="#0083ca"/>
    <path id="Caminho_188" data-name="Caminho 188" d="M450.537,748.256l.067,0a1.544,1.544,0,0,1,1.476,1.6,1.623,1.623,0,0,1-.811,1.432" transform="translate(-173.682 -604.909)" fill="#fff"/>
    <path id="Caminho_189" data-name="Caminho 189" d="M660.886,478.663a1.749,1.749,0,0,1,.036.356,1.544,1.544,0,0,1-1.476,1.6,1.489,1.489,0,0,1-1.387-1.053" transform="translate(-358.905 -364.287)" fill="#fff"/>
    <path id="Caminho_190" data-name="Caminho 190" d="M608.8,207.312a1.533,1.533,0,0,1-1.472,1.484,1.453,1.453,0,0,1-1.25-.75" transform="translate(-312.511 -122.095)" fill="#fff"/>
    <path id="Caminho_191" data-name="Caminho 191" d="M590.973,230.907a1.666,1.666,0,0,1,.469,1.172,1.644,1.644,0,0,1-.651,1.33" transform="translate(-298.865 -143.155)" fill="#fff"/>
    <path id="Caminho_192" data-name="Caminho 192" d="M759.227,395.386a1.481,1.481,0,1,1-1.476-1.6,1.544,1.544,0,0,1,1.476,1.6" transform="translate(-446.566 -288.528)" fill="#0083ca"/>
    <path id="Caminho_193" data-name="Caminho 193" d="M756.338,395.851a1.732,1.732,0,0,1-.063-.465,1.544,1.544,0,0,1,1.476-1.6,1.521,1.521,0,0,1,1.459,1.361" transform="translate(-446.566 -288.528)" fill="#fff"/>
    <path id="Caminho_194" data-name="Caminho 194" d="M670.695,426.593a1.481,1.481,0,1,1-1.476-1.6,1.544,1.544,0,0,1,1.476,1.6" transform="translate(-367.547 -316.381)" fill="#0083ca"/>
    <path id="Caminho_195" data-name="Caminho 195" d="M668.626,426.026a1.487,1.487,0,0,1,1.381-1.037,1.413,1.413,0,0,1,1.025.45" transform="translate(-368.336 -316.381)" fill="#fff"/>
    <path id="Caminho_196" data-name="Caminho 196" d="M607.6,342.131a1.481,1.481,0,1,1-1.476-1.6,1.544,1.544,0,0,1,1.476,1.6" transform="translate(-311.234 -240.995)" fill="#0083ca"/>
    <path id="Caminho_197" data-name="Caminho 197" d="M612.291,340.693a1.376,1.376,0,0,1,.655-.166,1.614,1.614,0,0,1,.1,3.2" transform="translate(-318.055 -240.995)" fill="#fff"/>
    <path id="Caminho_198" data-name="Caminho 198" d="M589.963,303.122a1.481,1.481,0,1,1-1.476-1.6,1.544,1.544,0,0,1,1.476,1.6" transform="translate(-295.49 -206.178)" fill="#0083ca"/>
    <path id="Caminho_199" data-name="Caminho 199" d="M602.439,301.63a1.564,1.564,0,0,1,1.295,1.592,1.649,1.649,0,0,1-.607,1.3" transform="translate(-309.261 -206.278)" fill="#fff"/>
    <path id="Caminho_200" data-name="Caminho 200" d="M1974.018,710.543l.044.044q-.045.442-.044,1.542l-.039.039h-.231l-.04-.044-.054-.452a4.1,4.1,0,0,0-.061-.444.21.21,0,0,0-.071-.118.885.885,0,0,0-.319-.061c-.18-.016-.381-.024-.6-.024h-.928q-.04,1.109-.039,1.282v2.863l.01.957q0,.555.027.719a.428.428,0,0,0,.068.216.383.383,0,0,0,.179.088,3.83,3.83,0,0,0,.658.057l.034.03v.245l-.034.039q-1.257-.039-1.4-.039t-1.4.039l-.039-.039v-.245l.039-.03a5.044,5.044,0,0,0,.612-.049.444.444,0,0,0,.2-.076.394.394,0,0,0,.086-.2,4.012,4.012,0,0,0,.034-.677l.01-1.036v-2.863q0-.078-.039-1.282h-.731q-.452,0-.781.019t-.381.1a1.791,1.791,0,0,0-.1.527l-.048.452-.045.044h-.226l-.04-.039q-.01-1.183-.044-1.542l.044-.044q.855.039,2.843.039,2.028,0,2.848-.039" transform="translate(-1528.333 -571.25)" fill="#0083ca"/>
    <path id="Caminho_201" data-name="Caminho 201" d="M2022.321,731.481l.093.064q-.029.284-.044,1.011l.369-.466a2.92,2.92,0,0,1,.321-.356,1,1,0,0,1,.327-.194,1.1,1.1,0,0,1,.383-.069.96.96,0,0,1,.407.088l.034.069q-.078.653-.088,1.149h-.221a.659.659,0,0,0-.633-.452.791.791,0,0,0-.53.194.936.936,0,0,0-.3.486,3.015,3.015,0,0,0-.076.739v.545q0,.147.02.722a5.858,5.858,0,0,0,.042.662.245.245,0,0,0,.069.13.25.25,0,0,0,.123.057q.077.015.7.049l.044.039v.207l-.044.044q-.653-.039-1.365-.039-.565,0-1.179.039l-.044-.044v-.207l.044-.039q.477-.03.538-.044a.23.23,0,0,0,.108-.062.259.259,0,0,0,.064-.142q.017-.1.04-.633t.022-.813v-.967q0-.2-.02-.535t-.032-.418a.154.154,0,0,0-.076-.115.585.585,0,0,0-.255-.037l-.413-.005-.044-.039v-.212l.039-.039a6.4,6.4,0,0,0,1.581-.368" transform="translate(-1575.119 -589.929)" fill="#0083ca"/>
    <path id="Caminho_202" data-name="Caminho 202" d="M2057.709,732.871l-.192-.049-.039-.049v-.609a2.87,2.87,0,0,1,1.7-.648,1.884,1.884,0,0,1,.938.211,1.324,1.324,0,0,1,.54.528,1.563,1.563,0,0,1,.167.739l-.024.987v1.463a.886.886,0,0,0,.041.363.215.215,0,0,0,.1.087.823.823,0,0,0,.2.036l.28.025.039.044v.2l-.039.039q-.358-.029-.667-.029t-.707.029l-.074-.069.02-.79-1.071.835a1.513,1.513,0,0,1-.589.113,1.481,1.481,0,0,1-.676-.143,1.016,1.016,0,0,1-.432-.4,1.2,1.2,0,0,1-.15-.619,1.437,1.437,0,0,1,.452-1.127,5.684,5.684,0,0,1,2.465-.689,1.346,1.346,0,0,0-.324-1.024,1.239,1.239,0,0,0-.869-.3,1.532,1.532,0,0,0-.518.083.676.676,0,0,0-.268.135q-.034.052-.265.6Zm2.278.776a4.626,4.626,0,0,0-1.713.5.976.976,0,0,0-.339.82.675.675,0,0,0,.761.766,1.755,1.755,0,0,0,1.291-.756Z" transform="translate(-1607.58 -589.969)" fill="#0083ca"/>
    <path id="Caminho_203" data-name="Caminho 203" d="M2106.024,731.481l.093.064c-.019.219-.032.507-.039.864q.393-.324.747-.658a.846.846,0,0,1,.193-.138,1.584,1.584,0,0,1,.3-.093,1.9,1.9,0,0,1,.432-.049,1.8,1.8,0,0,1,.724.152,1.442,1.442,0,0,1,.53.361,1.158,1.158,0,0,1,.248.494,3.008,3.008,0,0,1,.069.7v.864q0,.084.024,1.223a.972.972,0,0,0,.1.555,1.162,1.162,0,0,0,.609.088l.04.039v.211l-.04.039c-.415-.026-.7-.039-.844-.039q-.129,0-.717.039l-.059-.054q.064-.638.064-1.664v-.643q0-.58-.027-.835a1.029,1.029,0,0,0-.165-.464.931.931,0,0,0-.368-.324,1.217,1.217,0,0,0-.55-.115,1.606,1.606,0,0,0-.437.051,1.389,1.389,0,0,0-.407.211,1.572,1.572,0,0,0-.334.3.633.633,0,0,0-.131.261,3.651,3.651,0,0,0-.022.513v.854q0,.108.02.695a6.336,6.336,0,0,0,.042.685.291.291,0,0,0,.066.143.2.2,0,0,0,.108.057q.064.012.531.041l.044.039v.207l-.04.044c-.408-.026-.8-.039-1.183-.039s-.77.013-1.179.039l-.044-.044v-.207l.044-.039c.318-.02.5-.034.538-.044a.229.229,0,0,0,.108-.062.26.26,0,0,0,.064-.142q.017-.1.04-.633t.022-.813v-.967q0-.2-.02-.535t-.032-.418a.153.153,0,0,0-.076-.115.585.585,0,0,0-.255-.037l-.413-.005-.044-.039v-.212l.039-.039a6.382,6.382,0,0,0,1.581-.368" transform="translate(-1649.828 -589.929)" fill="#0083ca"/>
    <path id="Caminho_204" data-name="Caminho 204" d="M2165.581,734.431h.211l.044.044a6.828,6.828,0,0,0,.049.708,1.068,1.068,0,0,0,.525.375,2.021,2.021,0,0,0,.737.145,1.2,1.2,0,0,0,.832-.28.868.868,0,0,0,.313-.668.609.609,0,0,0-.113-.366.823.823,0,0,0-.342-.255,5.261,5.261,0,0,0-.818-.238c-.337-.078-.572-.14-.708-.185a1.169,1.169,0,0,1-.388-.223,1.029,1.029,0,0,1-.284-.385,1.328,1.328,0,0,1,.425-1.557,2.1,2.1,0,0,1,1.3-.395,3.166,3.166,0,0,1,.717.091,3.948,3.948,0,0,1,.589.174l.044.069a8.062,8.062,0,0,0-.049,1.031l-.044.044h-.2l-.044-.044a2.3,2.3,0,0,0-.054-.42.634.634,0,0,0-.177-.26,1.117,1.117,0,0,0-.4-.235,1.575,1.575,0,0,0-.55-.1,1.259,1.259,0,0,0-.5.088.765.765,0,0,0-.33.268.735.735,0,0,0-.125.434.723.723,0,0,0,.076.334.582.582,0,0,0,.233.238,1.179,1.179,0,0,0,.329.13l.535.138a7.448,7.448,0,0,1,.984.29.974.974,0,0,1,.46.371,1.072,1.072,0,0,1,.162.6,1.491,1.491,0,0,1-.56,1.164,2.11,2.11,0,0,1-1.438.487,5.367,5.367,0,0,1-.769-.069,7.82,7.82,0,0,1-.783-.152l-.025-.064.049-.329a2.257,2.257,0,0,0,.029-.307q0-.155.01-.651Z" transform="translate(-1704.312 -589.643)" fill="#0083ca"/>
    <path id="Caminho_205" data-name="Caminho 205" d="M2206.553,714.415l.04.039v.207l-.04.044q-.152,0-.574-.02-.383-.019-.791-.02-.53,0-1.183.039l-.039-.044v-.207l.039-.039c.318-.02.5-.034.54-.044a.214.214,0,0,0,.108-.062.274.274,0,0,0,.061-.142q.017-.1.04-.633t.022-.813v-1.9l-.634.034-.044-.039V710.7l.034-.049.643-.329v-.295a4.64,4.64,0,0,1,.044-.744,1.449,1.449,0,0,1,.164-.466,3.2,3.2,0,0,1,.419-.541q.3-.326.526-.535a1.478,1.478,0,0,1,.392-.28,1.007,1.007,0,0,1,.393-.071,1.252,1.252,0,0,1,.4.074l0,.8-.114.044a.93.93,0,0,0-.638-.245.882.882,0,0,0-.442.106.544.544,0,0,0-.255.344,3.132,3.132,0,0,0-.069.788v1.016h.525q.408,0,.771-.029l.044.054-.088.432-.044.049c-.1,0-.162,0-.191,0l-.638-.005h-.378v1.979q0,.157.022.72t.042.66a.262.262,0,0,0,.066.143.3.3,0,0,0,.152.064c.071.013.3.024.675.034" transform="translate(-1738.69 -568.435)" fill="#0083ca"/>
    <path id="Caminho_206" data-name="Caminho 206" d="M2239.312,735.232l-.156.353a3.107,3.107,0,0,1-.911.427,3.044,3.044,0,0,1-.715.1,2.756,2.756,0,0,1-1.117-.231,1.865,1.865,0,0,1-.859-.781,2.519,2.519,0,0,1-.332-1.326,3.158,3.158,0,0,1,.128-.93,2.32,2.32,0,0,1,.267-.616,2.1,2.1,0,0,1,.474-.447,3.11,3.11,0,0,1,.707-.393,2.172,2.172,0,0,1,.8-.147,1.934,1.934,0,0,1,1.039.278,1.522,1.522,0,0,1,.631.709,2.342,2.342,0,0,1,.182.918c0,.1,0,.2-.014.295l-.054.054a5.41,5.41,0,0,1-.9.1c-.376.016-.626.024-.747.024h-1.576a2.02,2.02,0,0,0,.51,1.5,1.7,1.7,0,0,0,1.228.481,1.886,1.886,0,0,0,.66-.118,4.143,4.143,0,0,0,.67-.329Zm-3.147-2.009q.088.015.68.035t.877.02a7.63,7.63,0,0,0,.829-.025c0-.078,0-.139,0-.182a1.74,1.74,0,0,0-.309-1.131,1.041,1.041,0,0,0-.845-.371,1.091,1.091,0,0,0-.911.417,1.982,1.982,0,0,0-.326,1.237" transform="translate(-1766.587 -589.723)" fill="#0083ca"/>
    <path id="Caminho_207" data-name="Caminho 207" d="M2281.8,731.481l.094.064q-.029.284-.044,1.011l.368-.466a2.939,2.939,0,0,1,.322-.356,1.006,1.006,0,0,1,.327-.194,1.1,1.1,0,0,1,.383-.069.961.961,0,0,1,.407.088l.034.069q-.079.653-.088,1.149h-.221a.659.659,0,0,0-.633-.452.793.793,0,0,0-.531.194.942.942,0,0,0-.3.486,3.022,3.022,0,0,0-.076.739v.545q0,.147.02.722a5.823,5.823,0,0,0,.041.662.247.247,0,0,0,.069.13.25.25,0,0,0,.123.057q.076.015.7.049l.044.039v.207l-.044.044q-.653-.039-1.365-.039-.564,0-1.178.039l-.044-.044v-.207l.044-.039q.476-.03.538-.044a.232.232,0,0,0,.108-.062.259.259,0,0,0,.063-.142c.011-.064.025-.275.039-.633s.022-.629.022-.813v-.967c0-.131-.006-.309-.02-.535s-.024-.365-.032-.418a.152.152,0,0,0-.076-.115.592.592,0,0,0-.256-.037l-.412-.005-.044-.039v-.212l.04-.039a6.391,6.391,0,0,0,1.581-.368" transform="translate(-1806.717 -589.929)" fill="#0083ca"/>
    <path id="Caminho_208" data-name="Caminho 208" d="M2316.784,719.58v-.128l.034-.049a6.87,6.87,0,0,0,.747-.319q0-1.281-.029-1.493a4.234,4.234,0,0,0,.829-.378l.118.1q-.049.309-.118,1.8c.164,0,.341.005.531.005a8.186,8.186,0,0,0,.83-.03l.034.034-.093.412-.039.044c-.167,0-.352-.005-.555-.005q-.275,0-.707.005l-.029,2a8.035,8.035,0,0,0,.031.906.516.516,0,0,0,.178.334.654.654,0,0,0,.429.121,1.144,1.144,0,0,0,.609-.172l.117.177q-.118.084-.564.491a1.236,1.236,0,0,1-.521.118.961.961,0,0,1-1.1-1.07q0-.393.02-.668c0-.055,0-.113,0-.172V719.6h-.2q-.221,0-.506.019Z" transform="translate(-1839.385 -577.203)" fill="#0083ca"/>
    <path id="Caminho_209" data-name="Caminho 209" d="M2373.457,708.046v-.206l.04-.044a6.248,6.248,0,0,0,1.581-.363l.093.059q-.054.565-.054,2.263v3.216q0,.5.017.867a1.3,1.3,0,0,0,.061.44.317.317,0,0,0,.145.112,2.57,2.57,0,0,0,.572.084l.044.039v.187l-.044.044q-.53-.035-.825-.034-.265,0-.756.034l-.054-.054q.015-.481.015-.672c0-.017,0-.079,0-.187-.18.131-.36.277-.54.437q-.4.353-.52.442a1.481,1.481,0,0,1-.644.113,1.945,1.945,0,0,1-1.151-.334,1.841,1.841,0,0,1-.675-.852,2.907,2.907,0,0,1-.2-1.063,2.805,2.805,0,0,1,.209-1.068,1.5,1.5,0,0,1,.594-.749q.385-.236.839-.488a1.843,1.843,0,0,1,.9-.253,2.437,2.437,0,0,1,1.189.309l-.02-1.1c-.006-.38-.016-.644-.029-.793a.784.784,0,0,0-.049-.265.181.181,0,0,0-.1-.061,4.491,4.491,0,0,0-.6-.02Zm.84,3.118a2.2,2.2,0,0,0-.675-.526,1.679,1.679,0,0,0-.744-.181,1.424,1.424,0,0,0-.768.223,1.248,1.248,0,0,0-.513.663,2.81,2.81,0,0,0-.157.955,2.087,2.087,0,0,0,.434,1.379,1.365,1.365,0,0,0,1.093.521,1.222,1.222,0,0,0,.635-.164,1.357,1.357,0,0,0,.457-.445,1.28,1.28,0,0,0,.208-.559q.03-.28.03-1.026Z" transform="translate(-1887.386 -568.473)" fill="#0083ca"/>
    <path id="Caminho_210" data-name="Caminho 210" d="M2426.1,712.416l-.147-.113a6.151,6.151,0,0,0,.4-.692,3.774,3.774,0,0,0,.231-.66,6.842,6.842,0,0,0,.157-.852,7.9,7.9,0,0,0,.958-.284l.143.117a8.173,8.173,0,0,1-1.292,2.249Z" transform="translate(-1936.821 -570.599)" fill="#0083ca"/>
    <path id="Caminho_211" data-name="Caminho 211" d="M2443.981,732.871l-.191-.049-.04-.049v-.609a2.869,2.869,0,0,1,1.7-.648,1.884,1.884,0,0,1,.938.211,1.323,1.323,0,0,1,.54.528,1.56,1.56,0,0,1,.167.739l-.025.987v1.463a.883.883,0,0,0,.042.363.213.213,0,0,0,.1.087.823.823,0,0,0,.2.036l.28.025.039.044v.2l-.039.039q-.358-.029-.668-.029-.294,0-.707.029l-.073-.069.02-.79-1.071.835a1.516,1.516,0,0,1-.589.113,1.481,1.481,0,0,1-.675-.143,1.02,1.02,0,0,1-.432-.4,1.2,1.2,0,0,1-.149-.619,1.436,1.436,0,0,1,.452-1.127,5.68,5.68,0,0,1,2.465-.689,1.345,1.345,0,0,0-.325-1.024,1.237,1.237,0,0,0-.869-.3,1.538,1.538,0,0,0-.518.083.661.661,0,0,0-.267.135q-.035.052-.266.6Zm2.279.776a4.631,4.631,0,0,0-1.714.5.976.976,0,0,0-.338.82.674.674,0,0,0,.761.766,1.758,1.758,0,0,0,1.292-.756Z" transform="translate(-1952.344 -589.969)" fill="#0083ca"/>
    <path id="Caminho_212" data-name="Caminho 212" d="M2490.473,731.481l.093.064q-.029.284-.044,1.011l.368-.466a2.861,2.861,0,0,1,.321-.356,1,1,0,0,1,.327-.194,1.094,1.094,0,0,1,.383-.069.96.96,0,0,1,.408.088l.034.069q-.078.653-.088,1.149h-.22a.66.66,0,0,0-.634-.452.79.79,0,0,0-.53.194.936.936,0,0,0-.3.486,2.973,2.973,0,0,0-.076.739v.545q0,.147.019.722a5.671,5.671,0,0,0,.042.662.246.246,0,0,0,.068.13.256.256,0,0,0,.123.057q.076.015.7.049l.045.039v.207l-.045.044q-.653-.039-1.365-.039-.565,0-1.178.039l-.045-.044v-.207l.045-.039q.475-.03.537-.044a.226.226,0,0,0,.108-.062.261.261,0,0,0,.064-.142c.011-.064.024-.275.039-.633s.022-.629.022-.813v-.967q0-.2-.02-.535t-.032-.418a.152.152,0,0,0-.076-.115.582.582,0,0,0-.255-.037l-.413-.005-.044-.039v-.212l.04-.039a6.4,6.4,0,0,0,1.581-.368" transform="translate(-1992.963 -589.929)" fill="#0083ca"/>
    <path id="Caminho_213" data-name="Caminho 213" d="M2531.665,731.571l.04.089c-.135.206-.218.34-.251.4h-.913a1.231,1.231,0,0,1,.137.565,1.537,1.537,0,0,1-.159.678,1.628,1.628,0,0,1-.444.56,2.357,2.357,0,0,1-.646.368,2.3,2.3,0,0,1-.822.137h-.226a2.359,2.359,0,0,0-.373.344.385.385,0,0,0-.084.231.31.31,0,0,0,.2.3,2.424,2.424,0,0,0,.822.088l1.1-.014a2.048,2.048,0,0,1,.8.123.956.956,0,0,1,.449.439,1.388,1.388,0,0,1,.172.67,1.96,1.96,0,0,1-.351,1.078,2.19,2.19,0,0,1-1.014.818,3.6,3.6,0,0,1-1.414.28,3.337,3.337,0,0,1-.8-.093,2.071,2.071,0,0,1-.658-.283,1.423,1.423,0,0,1-.454-.493,1.269,1.269,0,0,1-.172-.633,1.443,1.443,0,0,1,.054-.38,1.53,1.53,0,0,1,.206-.43l.889-.5a1.257,1.257,0,0,1-.538-.263.471.471,0,0,1-.11-.312,1.064,1.064,0,0,1,.123-.442l.791-.57a1.551,1.551,0,0,1-.941-.545,1.4,1.4,0,0,1-.243-.795,1.742,1.742,0,0,1,.172-.759,1.349,1.349,0,0,1,.518-.577,3.07,3.07,0,0,1,.776-.342,2.82,2.82,0,0,1,.783-.125,1.971,1.971,0,0,1,1.168.4q.889,0,1.419-.02m-2.553,4.434q-.791,0-.911.02a.994.994,0,0,0-.341.167,1.127,1.127,0,0,0-.361.4,1.155,1.155,0,0,0-.14.567,1.126,1.126,0,0,0,.413.9,1.646,1.646,0,0,0,1.1.349,2.116,2.116,0,0,0,.952-.216,1.467,1.467,0,0,0,.646-.579,1.4,1.4,0,0,0,.208-.7.94.94,0,0,0-.174-.572.7.7,0,0,0-.452-.29,5.875,5.875,0,0,0-.94-.051m-1.438-3.3a2,2,0,0,0,.118.643.99.99,0,0,0,.381.521,1.034,1.034,0,0,0,.592.177,1.088,1.088,0,0,0,.753-.285,1.138,1.138,0,0,0,.317-.889,1.547,1.547,0,0,0-.29-.918.947.947,0,0,0-.82-.408,1.035,1.035,0,0,0-.749.292,1.153,1.153,0,0,0-.3.866" transform="translate(-2026.653 -589.681)" fill="#0083ca"/>
    <path id="Caminho_214" data-name="Caminho 214" d="M2581.816,735.232l-.157.353a3.1,3.1,0,0,1-.911.427,3.035,3.035,0,0,1-.714.1,2.762,2.762,0,0,1-1.117-.231,1.871,1.871,0,0,1-.859-.781,2.521,2.521,0,0,1-.332-1.326,3.167,3.167,0,0,1,.127-.93,2.3,2.3,0,0,1,.268-.616,2.09,2.09,0,0,1,.474-.447,3.123,3.123,0,0,1,.707-.393,2.177,2.177,0,0,1,.805-.147,1.934,1.934,0,0,1,1.039.278,1.527,1.527,0,0,1,.631.709,2.351,2.351,0,0,1,.181.918,2.885,2.885,0,0,1-.015.295l-.054.054a5.414,5.414,0,0,1-.9.1q-.565.025-.746.024h-1.576a2.021,2.021,0,0,0,.511,1.5,1.7,1.7,0,0,0,1.228.481,1.886,1.886,0,0,0,.66-.118,4.133,4.133,0,0,0,.67-.329Zm-3.147-2.009q.089.015.68.035t.876.02a7.662,7.662,0,0,0,.83-.025c0-.078,0-.139,0-.182a1.741,1.741,0,0,0-.309-1.131,1.043,1.043,0,0,0-.845-.371,1.091,1.091,0,0,0-.911.417,1.98,1.98,0,0,0-.327,1.237" transform="translate(-2072.286 -589.723)" fill="#0083ca"/>
    <path id="Caminho_215" data-name="Caminho 215" d="M2622.39,731.481l.094.064q-.03.329-.04.864.393-.324.747-.658a.858.858,0,0,1,.194-.138,1.586,1.586,0,0,1,.3-.093,1.909,1.909,0,0,1,.432-.049,1.807,1.807,0,0,1,.725.152,1.441,1.441,0,0,1,.53.361,1.156,1.156,0,0,1,.248.494,3.025,3.025,0,0,1,.069.7v.864q0,.084.025,1.223a.969.969,0,0,0,.1.555,1.163,1.163,0,0,0,.609.088l.039.039v.211l-.039.039q-.624-.039-.845-.039-.128,0-.717.039l-.059-.054q.063-.638.064-1.664v-.643q0-.58-.027-.835a1.03,1.03,0,0,0-.165-.464.928.928,0,0,0-.368-.324,1.218,1.218,0,0,0-.55-.115,1.6,1.6,0,0,0-.437.051,1.384,1.384,0,0,0-.407.211,1.562,1.562,0,0,0-.334.3.632.632,0,0,0-.13.261,3.651,3.651,0,0,0-.022.513v.854q0,.108.02.695a6.374,6.374,0,0,0,.042.685.283.283,0,0,0,.066.143.2.2,0,0,0,.108.057q.064.012.53.041l.044.039v.207l-.04.044q-.613-.039-1.183-.039c-.377,0-.769.013-1.179.039l-.044-.044v-.207l.044-.039q.477-.03.538-.044a.229.229,0,0,0,.108-.062.264.264,0,0,0,.064-.142q.018-.1.039-.633t.022-.813v-.967q0-.2-.02-.535c-.013-.226-.024-.365-.032-.418a.153.153,0,0,0-.077-.115.584.584,0,0,0-.255-.037l-.412-.005-.044-.039v-.212l.039-.039a6.39,6.39,0,0,0,1.581-.368" transform="translate(-2110.706 -589.929)" fill="#0083ca"/>
    <path id="Caminho_216" data-name="Caminho 216" d="M2676.786,719.58v-.128l.035-.049a6.87,6.87,0,0,0,.747-.319q0-1.281-.03-1.493a4.246,4.246,0,0,0,.83-.378l.118.1q-.049.309-.118,1.8.245.005.53.005a8.2,8.2,0,0,0,.83-.03l.034.034-.093.412-.04.044q-.25-.005-.554-.005-.275,0-.707.005l-.029,2a7.953,7.953,0,0,0,.031.906.513.513,0,0,0,.177.334.654.654,0,0,0,.429.121,1.144,1.144,0,0,0,.609-.172l.118.177q-.119.084-.565.491a1.232,1.232,0,0,1-.521.118.962.962,0,0,1-1.1-1.07q0-.393.02-.668c0-.055.005-.113.005-.172V719.6h-.2c-.147,0-.316.007-.506.019Z" transform="translate(-2160.702 -577.203)" fill="#0083ca"/>
  </g>
</svg>
