<svg xmlns="http://www.w3.org/2000/svg" width="314.816" height="99.893" viewBox="0 0 314.816 99.893">
  <g id="current_logo_-_QC_-_branca" data-name="current logo - QC - branca" transform="translate(338.848 -8035.445)">
    <path id="Caminho_58" data-name="Caminho 58" d="M461.5,610.034c.685,2.811-.423,5.5-2.474,6l-19.267,4.694c-2.05.5-4.269-1.374-4.954-4.186l-4.483-18.4c-.685-2.811.423-5.5,2.473-6l19.267-4.694c2.051-.5,4.268,1.375,4.954,4.187Z" transform="translate(-746.575 7514.535)" fill="#fff"/>
    <path id="Caminho_59" data-name="Caminho 59" d="M677.238,468.246c.685,2.811-.423,5.5-2.473,6L655.5,478.934c-2.05.5-4.269-1.374-4.954-4.186l-4.483-18.4c-.685-2.811.423-5.5,2.473-6l19.267-4.693c2.051-.5,4.268,1.375,4.954,4.187Z" transform="translate(-934.573 7638.093)" fill="#fff"/>
    <path id="Caminho_60" data-name="Caminho 60" d="M400.445,347.234c.685,2.811-.423,5.5-2.473,6l-19.267,4.693c-2.051.5-4.269-1.374-4.954-4.186l-4.483-18.4c-.685-2.811.423-5.5,2.473-6l19.267-4.694c2.051-.5,4.268,1.375,4.954,4.187Z" transform="translate(-693.369 7743.546)" fill="#fff"/>
    <path id="Caminho_61" data-name="Caminho 61" d="M621.192,198.168c.7,2.821-.372,5.513-2.389,6.012l-18.952,4.688c-2.017.5-4.219-1.383-4.917-4.2L590.366,186.2c-.7-2.821.372-5.513,2.389-6.013l18.952-4.688c2.017-.5,4.219,1.384,4.916,4.205Z" transform="translate(-886.029 7873.517)" fill="#fff"/>
    <path id="Caminho_62" data-name="Caminho 62" d="M956.674,363.944a17.654,17.654,0,0,1-9.29,1.439s-6.019-.7-17.14-6.586c0,0,19.757,4.885,23.507-17.925,0,0,3.01-23.551-16.333-24.554,0,0-19.691-2.268-21.959,19.321,0,0-1.4,11.994,5.713,19.539,0,0-.393.218-1.875-.436a4.774,4.774,0,0,0-1.745-.392v2.181a22.852,22.852,0,0,1,9.508,3.14s13,8.025,17.445,9.595a7.311,7.311,0,0,0,5.582,0l7.2-3.838Zm-35.806-28.3s.567-17.925,15.177-16.66c0,0,10.554.654,12.081,15,0,0,3.184,22.156-13.476,23.464,0,0-14.567.349-13.782-21.807" transform="translate(-1169.414 7750.79)" fill="#fff"/>
    <path id="Caminho_63" data-name="Caminho 63" d="M956.674,363.944a17.654,17.654,0,0,1-9.29,1.439s-6.019-.7-17.14-6.586c0,0,19.757,4.885,23.507-17.925,0,0,3.01-23.551-16.333-24.554,0,0-19.691-2.268-21.959,19.321,0,0-1.4,11.994,5.713,19.539,0,0-.393.218-1.875-.436a4.774,4.774,0,0,0-1.745-.392v2.181a22.852,22.852,0,0,1,9.508,3.14s13,8.025,17.445,9.595a7.311,7.311,0,0,0,5.582,0l7.2-3.838Zm-35.806-28.3s.567-17.925,15.177-16.66c0,0,10.554.654,12.081,15,0,0,3.184,22.156-13.476,23.464C934.649,357.446,920.082,357.795,920.867,335.639Z" transform="translate(-1169.414 7750.79)" fill="#fff"/>
    <path id="Caminho_64" data-name="Caminho 64" d="M1240.834,451.654l.058,1.337s-5.175,1.047-8.374,3.605l-.7-.581a27.448,27.448,0,0,0,.291-4.361s-3.649,3.533-5.176,4.129c-1.221.814-9.813,3.213-10.758-5.99-.32-6.062.116-9.769,0-15.41,0,0,.247-3.867-4.419-3.78l-.436-1.265a64.75,64.75,0,0,0,8.2-1.134s1.177-.393,1.134.654-1.047,19.277.044,21.414c0,0,1.875,4.1,6.193,2.791,0,0,4.8-1.265,5.19-7.327,0,0,.174-8.461.044-12.124,0,0,.305-3.663-4.754-2.748v-1.614a65.124,65.124,0,0,0,7.894-1.134s1.483-.349,1.4,1.047-.567,18.4-.436,19.844.654,3.794,3.184,3.009Z" transform="translate(-1427.333 7653.339)" fill="#fff"/>
    <path id="Caminho_65" data-name="Caminho 65" d="M1240.834,451.654l.058,1.337s-5.175,1.047-8.374,3.605l-.7-.581a27.448,27.448,0,0,0,.291-4.361s-3.649,3.533-5.176,4.129c-1.221.814-9.813,3.213-10.758-5.99-.32-6.062.116-9.769,0-15.41,0,0,.247-3.867-4.419-3.78l-.436-1.265a64.75,64.75,0,0,0,8.2-1.134s1.177-.393,1.134.654-1.047,19.277.044,21.414c0,0,1.875,4.1,6.193,2.791,0,0,4.8-1.265,5.19-7.327,0,0,.174-8.461.044-12.124,0,0,.305-3.663-4.754-2.748v-1.614a65.124,65.124,0,0,0,7.894-1.134s1.483-.349,1.4,1.047-.567,18.4-.436,19.844.654,3.794,3.184,3.009Z" transform="translate(-1427.333 7653.339)" fill="#fff"/>
    <path id="Caminho_66" data-name="Caminho 66" d="M1441.034,447.029l.262-22.635s.131-1.657-1.134-.785c0,0-5.539,2.966-7.676,3.184l.043,1.483s4.012-1.134,4.405.436l.261,17.969s.436,3.663-4.536,4.143l-.043,1.439a91.235,91.235,0,0,1,12.779-.044l.131-1.526s-4.492-.262-4.492-3.663" transform="translate(-1620.061 7657.456)" fill="#fff"/>
    <path id="Caminho_67" data-name="Caminho 67" d="M1441.034,447.029l.262-22.635s.131-1.657-1.134-.785c0,0-5.539,2.966-7.676,3.184l.043,1.483s4.012-1.134,4.405.436l.261,17.969s.436,3.663-4.536,4.143l-.043,1.439a91.235,91.235,0,0,1,12.779-.044l.131-1.526S1441.034,450.431,1441.034,447.029Z" transform="translate(-1620.061 7657.456)" fill="#fff"/>
    <path id="Caminho_68" data-name="Caminho 68" d="M1466.544,315.282a3.192,3.192,0,1,0-2.682-3.151,2.945,2.945,0,0,0,2.682,3.151" transform="translate(-1647.404 7757.125)" fill="#fff"/>
    <ellipse id="Elipse_16" data-name="Elipse 16" cx="2.682" cy="3.151" rx="2.682" ry="3.151" transform="translate(-183.542 8066.105)" fill="#fff"/>
    <path id="Caminho_69" data-name="Caminho 69" d="M1550.648,443.732l.916,1.309s-5.059,4.71-8.2,5.19c0,0-11.819,2.922-13.259-12.822,0,0-.479-8.286,5.1-13.345a13.322,13.322,0,0,1,16.529-1.09l-1.483,7.719-1.657-.305s.523-6.455-5.5-7.371c0,0-7.327-.7-8.548,9.115,0,0-1.352,8.025,3.445,12.691,0,0,4.23,4.71,12.648-1.09" transform="translate(-1705.122 7659.881)" fill="#fff"/>
    <path id="Caminho_70" data-name="Caminho 70" d="M1550.648,443.732l.916,1.309s-5.059,4.71-8.2,5.19c0,0-11.819,2.922-13.259-12.822,0,0-.479-8.286,5.1-13.345a13.322,13.322,0,0,1,16.529-1.09l-1.483,7.719-1.657-.305s.523-6.455-5.5-7.371c0,0-7.327-.7-8.548,9.115,0,0-1.352,8.025,3.445,12.691C1538,444.822,1542.231,449.532,1550.648,443.732Z" transform="translate(-1705.122 7659.881)" fill="#fff"/>
    <path id="Caminho_71" data-name="Caminho 71" d="M1695.895,350.32c.058-1.715-.125-1.883.378-35.588.175-1.512-1.221-.669-1.221-.669a71.6,71.6,0,0,1-7.7,3.46l.029,1.338,2.093-.378c2.413-.436,2.326,2.093,2.326,2.093s-.029,27.331,0,31.2-4.158,3.489-4.158,3.489l.116,1.512a77.575,77.575,0,0,1,12.822-.145V355.5c-.715-.169-1.744-.552-3.14-1.047-1.6-.552-1.541-4.129-1.541-4.129" transform="translate(-1842.154 7752.9)" fill="#fff"/>
    <path id="Caminho_72" data-name="Caminho 72" d="M1695.895,350.32c.058-1.715-.125-1.883.378-35.588.175-1.512-1.221-.669-1.221-.669a71.6,71.6,0,0,1-7.7,3.46l.029,1.338,2.093-.378c2.413-.436,2.326,2.093,2.326,2.093s-.029,27.331,0,31.2-4.158,3.489-4.158,3.489l.116,1.512a77.575,77.575,0,0,1,12.822-.145V355.5c-.715-.169-1.744-.552-3.14-1.047C1695.836,353.9,1695.895,350.32,1695.895,350.32Z" transform="translate(-1842.154 7752.9)" fill="#fff"/>
    <path id="Caminho_73" data-name="Caminho 73" d="M1776.228,456.571a9.3,9.3,0,0,1-5.786-3.14l-9.1-12.066,7.966-7.5c2.181-1.977,5.844-2.384,5.844-2.384l-.058-1.628a72.989,72.989,0,0,1-10.787.174l-.029,1.483c3.053.029,1.657,1.657,1.657,1.657l-8.49,9.362,8.49,11.921c1.192,1.8-1.512,1.948-1.512,1.948l.145,1.4a57.383,57.383,0,0,1,11.747.058Z" transform="translate(-1903.24 7651.795)" fill="#fff"/>
    <path id="Caminho_74" data-name="Caminho 74" d="M1776.228,456.571a9.3,9.3,0,0,1-5.786-3.14l-9.1-12.066,7.966-7.5c2.181-1.977,5.844-2.384,5.844-2.384l-.058-1.628a72.989,72.989,0,0,1-10.787.174l-.029,1.483c3.053.029,1.657,1.657,1.657,1.657l-8.49,9.362,8.49,11.921c1.192,1.8-1.512,1.948-1.512,1.948l.145,1.4a57.383,57.383,0,0,1,11.747.058Z" transform="translate(-1903.24 7651.795)" fill="#fff"/>
    <path id="Caminho_75" data-name="Caminho 75" d="M1921.913,358.434s-13.142-5.99-23.551,1.1c0,0-9.363,6.164-7.443,19.306,0,0,1.279,12.386,10.816,15.468,0,0,11.281,3.547,20.644-4.245l-.872-1.919s-13.316,8.955-22.039-1.047c0,0-7.908-9.246-.872-22.97a11.261,11.261,0,0,1,9.828-5.582s11.223-1.163,11.8,10.235l1.977.116Z" transform="translate(-2019.326 7716.088)" fill="#fff"/>
    <path id="Caminho_76" data-name="Caminho 76" d="M1921.913,358.434s-13.142-5.99-23.551,1.1c0,0-9.363,6.164-7.443,19.306,0,0,1.279,12.386,10.816,15.468,0,0,11.281,3.547,20.644-4.245l-.872-1.919s-13.316,8.955-22.039-1.047c0,0-7.908-9.246-.872-22.97a11.261,11.261,0,0,1,9.828-5.582s11.223-1.163,11.8,10.235l1.977.116Z" transform="translate(-2019.326 7716.088)" fill="#fff"/>
    <path id="Caminho_77" data-name="Caminho 77" d="M2187.835,474.091s-3.6,3.663-4.419-.756c0,0,.523-13.084.233-15.294,0,0-.349-5.99-7.792-5.524,0,0-2.558.116-7.385,2.326a53.034,53.034,0,0,1-.581,5.466l1.4.291s1.919-6.048,5.99-5.931c0,0,4.594-.349,4.594,6.455a53.081,53.081,0,0,0-11.514,6.164s-3.9,2.907-1.4,8.548a5.987,5.987,0,0,0,7.385,2.675s2.268-.524,5.233-3.431c0,0,.64,5.292,5,3.489,0,0,2.442-1.977,3.954-3.547Zm-9.188-.7s-4.594,5.7-7.792.291a5.4,5.4,0,0,1,2.442-6.92l6.4-3.315s.7,7.734-1.047,9.944" transform="translate(-2259.372 7632.065)" fill="#fff"/>
    <path id="Caminho_78" data-name="Caminho 78" d="M2187.835,474.091s-3.6,3.663-4.419-.756c0,0,.523-13.084.233-15.294,0,0-.349-5.99-7.792-5.524,0,0-2.558.116-7.385,2.326a53.034,53.034,0,0,1-.581,5.466l1.4.291s1.919-6.048,5.99-5.931c0,0,4.594-.349,4.594,6.455a53.081,53.081,0,0,0-11.514,6.164s-3.9,2.907-1.4,8.548a5.987,5.987,0,0,0,7.385,2.675s2.268-.524,5.233-3.431c0,0,.64,5.292,5,3.489,0,0,2.442-1.977,3.954-3.547Zm-9.188-.7s-4.594,5.7-7.792.291a5.4,5.4,0,0,1,2.442-6.92l6.4-3.315S2180.392,471.184,2178.647,473.393Z" transform="translate(-2259.372 7632.065)" fill="#fff"/>
    <path id="Caminho_79" data-name="Caminho 79" d="M2359.567,469.188a27.219,27.219,0,0,1-.232,6.629s5.306,2.442,10.627.654c0,0,6.367-2.4,4.361-9.246,0,0-.916-3.751-8.025-6.716,0,0-6.717-3.1-1.57-7.414,0,0,5.19-3.1,6.89,4.448l1.57.044s.567-4.71.829-5.582c0,0-5.976-3.925-11.863.262,0,0-6.5,4.972-.262,10.293a73.706,73.706,0,0,0,6.5,4.187s5.975,4.012.523,7.894c0,0-5.321,2.486-7.851-5.408Z" transform="translate(-2427.614 7633.945)" fill="#fff"/>
    <path id="Caminho_80" data-name="Caminho 80" d="M2359.567,469.188a27.219,27.219,0,0,1-.232,6.629s5.306,2.442,10.627.654c0,0,6.367-2.4,4.361-9.246,0,0-.916-3.751-8.025-6.716,0,0-6.717-3.1-1.57-7.414,0,0,5.19-3.1,6.89,4.448l1.57.044s.567-4.71.829-5.582c0,0-5.976-3.925-11.863.262,0,0-6.5,4.972-.262,10.293a73.706,73.706,0,0,0,6.5,4.187s5.975,4.012.523,7.894c0,0-5.321,2.486-7.851-5.408Z" transform="translate(-2427.614 7633.945)" fill="#fff"/>
    <path id="Caminho_81" data-name="Caminho 81" d="M2497.936,355.6l.043,1.57s3.751-1,3.926.48c0,0,.261,28.218.218,28.959s.175,2.835-3.664,3.445l-.087,1.4a84.072,84.072,0,0,1,11.6-.044v-1.526s-4.1.044-4.1-3.184-.044-8.853.349-12.822a6.145,6.145,0,0,1,6.062-4.754,3.882,3.882,0,0,1,4.274,4.1s.044,11.078-.044,13.651c0,0,.262,2.486-3.707,2.966l.044,1.483a79.039,79.039,0,0,1,11.47-.131l-.044-1.221s-3.795.044-3.751-3.14l-.175-15.308s.523-6.324-6.629-6.106c0,0-4.1-.218-7.719,5.321l.131-17.271s.349-1.614-.959-.829a50.854,50.854,0,0,1-7.24,2.966" transform="translate(-2548.523 7719.271)" fill="#fff"/>
    <path id="Caminho_82" data-name="Caminho 82" d="M2497.936,355.6l.043,1.57s3.751-1,3.926.48c0,0,.261,28.218.218,28.959s.175,2.835-3.664,3.445l-.087,1.4a84.072,84.072,0,0,1,11.6-.044v-1.526s-4.1.044-4.1-3.184-.044-8.853.349-12.822a6.145,6.145,0,0,1,6.062-4.754,3.882,3.882,0,0,1,4.274,4.1s.044,11.078-.044,13.651c0,0,.262,2.486-3.707,2.966l.044,1.483a79.039,79.039,0,0,1,11.47-.131l-.044-1.221s-3.795.044-3.751-3.14l-.175-15.308s.523-6.324-6.629-6.106c0,0-4.1-.218-7.719,5.321l.131-17.271s.349-1.614-.959-.829A50.854,50.854,0,0,1,2497.936,355.6Z" transform="translate(-2548.523 7719.271)" fill="#fff"/>
    <path id="Caminho_83" data-name="Caminho 83" d="M403.131,206.763a1.772,1.772,0,1,1-1.766-1.919,1.847,1.847,0,0,1,1.766,1.919" transform="translate(-719.976 7847.872)" fill="#fff"/>
    <path id="Caminho_84" data-name="Caminho 84" d="M350.215,204.388a1.772,1.772,0,1,1-1.766-1.919,1.848,1.848,0,0,1,1.766,1.919" transform="translate(-673.863 7849.942)" fill="#fff"/>
    <path id="Caminho_85" data-name="Caminho 85" d="M330.541,236.952a1.772,1.772,0,1,1-1.766-1.919,1.847,1.847,0,0,1,1.766,1.919" transform="translate(-656.719 7821.564)" fill="#fff"/>
    <path id="Caminho_86" data-name="Caminho 86" d="M391.768,247.468A1.772,1.772,0,1,1,390,245.549a1.847,1.847,0,0,1,1.766,1.919" transform="translate(-710.073 7812.401)" fill="#fff"/>
    <path id="Caminho_87" data-name="Caminho 87" d="M437.9,250.52a1.772,1.772,0,1,1-1.766-1.919,1.847,1.847,0,0,1,1.766,1.919" transform="translate(-750.274 7809.741)" fill="#fff"/>
    <path id="Caminho_88" data-name="Caminho 88" d="M455.878,289.19a1.772,1.772,0,1,1-1.766-1.919,1.847,1.847,0,0,1,1.766,1.919" transform="translate(-765.94 7776.043)" fill="#fff"/>
    <path id="Caminho_89" data-name="Caminho 89" d="M491.834,255.608a1.772,1.772,0,1,1-1.766-1.919,1.848,1.848,0,0,1,1.766,1.919" transform="translate(-797.273 7805.307)" fill="#fff"/>
    <path id="Caminho_90" data-name="Caminho 90" d="M509.473,294.278a1.772,1.772,0,1,1-1.766-1.919,1.847,1.847,0,0,1,1.766,1.919" transform="translate(-812.645 7771.609)" fill="#fff"/>
    <path id="Caminho_91" data-name="Caminho 91" d="M502.689,214.9a1.772,1.772,0,1,1-1.766-1.919,1.848,1.848,0,0,1,1.766,1.919" transform="translate(-806.733 7840.778)" fill="#fff"/>
    <path id="Caminho_92" data-name="Caminho 92" d="M549.838,187.089a1.772,1.772,0,1,1-1.766-1.919,1.847,1.847,0,0,1,1.766,1.919" transform="translate(-847.82 7865.017)" fill="#fff"/>
    <path id="Caminho_93" data-name="Caminho 93" d="M543.733,257.983a1.772,1.772,0,1,1-1.766-1.919,1.847,1.847,0,0,1,1.766,1.919" transform="translate(-842.5 7803.238)" fill="#fff"/>
    <path id="Caminho_94" data-name="Caminho 94" d="M550.856,298.688a1.772,1.772,0,1,1-1.766-1.919,1.847,1.847,0,0,1,1.766,1.919" transform="translate(-848.707 7767.766)" fill="#fff"/>
    <path id="Caminho_95" data-name="Caminho 95" d="M572.9,228.811a1.772,1.772,0,1,1-1.766-1.919,1.848,1.848,0,0,1,1.766,1.919" transform="translate(-867.921 7828.659)" fill="#fff"/>
    <path id="Caminho_96" data-name="Caminho 96" d="M607.5,193.194a1.772,1.772,0,1,1-1.766-1.919,1.847,1.847,0,0,1,1.766,1.919" transform="translate(-898.072 7859.696)" fill="#fff"/>
    <path id="Caminho_97" data-name="Caminho 97" d="M672.292,157.578a1.772,1.772,0,1,1-1.766-1.919,1.848,1.848,0,0,1,1.766,1.919" transform="translate(-954.53 7890.733)" fill="#fff"/>
    <path id="Caminho_98" data-name="Caminho 98" d="M615.306,152.15a1.772,1.772,0,1,1-1.766-1.919,1.847,1.847,0,0,1,1.766,1.919" transform="translate(-904.871 7895.463)" fill="#fff"/>
    <path id="Caminho_99" data-name="Caminho 99" d="M561.711,146.044a1.772,1.772,0,1,1-1.766-1.919,1.848,1.848,0,0,1,1.766,1.919" transform="translate(-858.166 7900.784)" fill="#fff"/>
    <path id="Caminho_100" data-name="Caminho 100" d="M596.31,113.142a1.772,1.772,0,1,1-1.766-1.919,1.848,1.848,0,0,1,1.766,1.919" transform="translate(-888.317 7929.456)" fill="#fff"/>
    <path id="Caminho_101" data-name="Caminho 101" d="M608.182,72.436a1.772,1.772,0,1,1-1.766-1.919,1.848,1.848,0,0,1,1.766,1.919" transform="translate(-898.663 7964.928)" fill="#fff"/>
    <path id="Caminho_102" data-name="Caminho 102" d="M649.565,115.177a1.772,1.772,0,1,1-1.766-1.919,1.848,1.848,0,0,1,1.766,1.919" transform="translate(-934.725 7927.683)" fill="#fff"/>
    <path id="Caminho_103" data-name="Caminho 103" d="M589.526,453.705a1.772,1.772,0,1,1-1.766-1.919,1.848,1.848,0,0,1,1.766,1.919" transform="translate(-882.405 7632.68)" fill="#fff"/>
    <path id="Caminho_104" data-name="Caminho 104" d="M588.78,455.273a1.665,1.665,0,0,1-1.02.352,1.926,1.926,0,0,1,0-3.838,1.636,1.636,0,0,1,.181.01" transform="translate(-882.405 7632.679)" fill="#ee3325"/>
    <path id="Caminho_105" data-name="Caminho 105" d="M618.359,425.891a1.772,1.772,0,1,1-1.766-1.919,1.848,1.848,0,0,1,1.766,1.919" transform="translate(-907.531 7656.918)" fill="#fff"/>
    <path id="Caminho_106" data-name="Caminho 106" d="M660.759,468.97a1.772,1.772,0,1,1-1.766-1.919,1.848,1.848,0,0,1,1.766,1.919" transform="translate(-944.479 7619.378)" fill="#fff"/>
    <path id="Caminho_107" data-name="Caminho 107" d="M725.209,432.675a1.772,1.772,0,1,1-1.766-1.919,1.847,1.847,0,0,1,1.766,1.919" transform="translate(-1000.643 7651.006)" fill="#fff"/>
    <path id="Caminho_108" data-name="Caminho 108" d="M353.438,279.013a1.772,1.772,0,1,1-1.766-1.919,1.848,1.848,0,0,1,1.766,1.919" transform="translate(-676.672 7784.912)" fill="#fff"/>
    <path id="Caminho_109" data-name="Caminho 109" d="M402.962,286.815A1.772,1.772,0,1,1,401.2,284.9a1.847,1.847,0,0,1,1.766,1.919" transform="translate(-719.828 7778.112)" fill="#fff"/>
    <path id="Caminho_110" data-name="Caminho 110" d="M287.971,313.613a1.772,1.772,0,1,1-1.766-1.919,1.847,1.847,0,0,1,1.766,1.919" transform="translate(-619.622 7754.76)" fill="#fff"/>
    <path id="Caminho_111" data-name="Caminho 111" d="M341.566,319.379a1.772,1.772,0,1,1-1.766-1.919,1.848,1.848,0,0,1,1.766,1.919" transform="translate(-666.326 7749.736)" fill="#fff"/>
    <path id="Caminho_112" data-name="Caminho 112" d="M305.949,352.622a1.772,1.772,0,1,1-1.766-1.919,1.848,1.848,0,0,1,1.766,1.919" transform="translate(-635.289 7720.767)" fill="#fff"/>
    <path id="Caminho_113" data-name="Caminho 113" d="M324.944,381.115a1.772,1.772,0,1,1-1.766-1.919,1.847,1.847,0,0,1,1.766,1.919" transform="translate(-651.841 7695.937)" fill="#fff"/>
    <path id="Caminho_114" data-name="Caminho 114" d="M294.416,392.987a1.772,1.772,0,1,1-1.766-1.919,1.848,1.848,0,0,1,1.766,1.919" transform="translate(-625.238 7685.592)" fill="#fff"/>
    <path id="Caminho_115" data-name="Caminho 115" d="M312.733,420.8a1.772,1.772,0,1,1-1.766-1.919,1.848,1.848,0,0,1,1.766,1.919" transform="translate(-641.2 7661.352)" fill="#fff"/>
    <path id="Caminho_116" data-name="Caminho 116" d="M259.477,415.714a1.772,1.772,0,1,1-1.766-1.919,1.847,1.847,0,0,1,1.766,1.919" transform="translate(-594.792 7665.786)" fill="#fff"/>
    <path id="Caminho_117" data-name="Caminho 117" d="M277.455,454.045a1.772,1.772,0,1,1-1.766-1.919,1.848,1.848,0,0,1,1.766,1.919" transform="translate(-610.458 7632.384)" fill="#fff"/>
    <path id="Caminho_118" data-name="Caminho 118" d="M331.05,460.15a1.772,1.772,0,1,1-1.766-1.919,1.847,1.847,0,0,1,1.766,1.919" transform="translate(-657.162 7627.064)" fill="#fff"/>
    <path id="Caminho_119" data-name="Caminho 119" d="M323.587,500.177a1.772,1.772,0,1,1-1.766-1.919,1.848,1.848,0,0,1,1.766,1.919" transform="translate(-650.659 7592.183)" fill="#fff"/>
    <path id="Caminho_120" data-name="Caminho 120" d="M265.583,494.41a1.772,1.772,0,1,1-1.766-1.919,1.848,1.848,0,0,1,1.766,1.919" transform="translate(-600.113 7597.209)" fill="#fff"/>
    <path id="Caminho_121" data-name="Caminho 121" d="M341.566,539.524a1.772,1.772,0,1,1-1.766-1.919,1.848,1.848,0,0,1,1.766,1.919" transform="translate(-666.326 7557.895)" fill="#fff"/>
    <path id="Caminho_122" data-name="Caminho 122" d="M299.165,578.194a1.772,1.772,0,1,1-1.766-1.919,1.848,1.848,0,0,1,1.766,1.919" transform="translate(-629.376 7524.197)" fill="#fff"/>
    <path id="Caminho_123" data-name="Caminho 123" d="M276.777,611.1a1.772,1.772,0,1,1-1.766-1.919,1.848,1.848,0,0,1,1.766,1.919" transform="translate(-609.867 7495.524)" fill="#fff"/>
    <path id="Caminho_124" data-name="Caminho 124" d="M329.693,579.551a1.772,1.772,0,1,1-1.766-1.919,1.847,1.847,0,0,1,1.766,1.919" transform="translate(-655.979 7523.015)" fill="#fff"/>
    <path id="Caminho_125" data-name="Caminho 125" d="M335.8,621.952a1.772,1.772,0,1,1-1.766-1.919,1.848,1.848,0,0,1,1.766,1.919" transform="translate(-661.301 7486.065)" fill="#fff"/>
    <path id="Caminho_126" data-name="Caminho 126" d="M318.16,653.838a1.772,1.772,0,1,1-1.766-1.919,1.848,1.848,0,0,1,1.766,1.919" transform="translate(-645.93 7458.279)" fill="#fff"/>
    <path id="Caminho_127" data-name="Caminho 127" d="M370.059,585.657a1.772,1.772,0,1,1-1.766-1.919,1.847,1.847,0,0,1,1.766,1.919" transform="translate(-691.156 7517.694)" fill="#fff"/>
    <path id="Caminho_128" data-name="Caminho 128" d="M388.037,625.344a1.772,1.772,0,1,1-1.766-1.919,1.848,1.848,0,0,1,1.766,1.919" transform="translate(-706.822 7483.11)" fill="#fff"/>
    <path id="Caminho_129" data-name="Caminho 129" d="M376.843,664.352a1.772,1.772,0,1,1-1.766-1.919,1.848,1.848,0,0,1,1.766,1.919" transform="translate(-697.067 7449.117)" fill="#fff"/>
    <path id="Caminho_130" data-name="Caminho 130" d="M399.57,707.093a1.772,1.772,0,1,1-1.766-1.919,1.848,1.848,0,0,1,1.766,1.919" transform="translate(-716.872 7411.872)" fill="#fff"/>
    <path id="Caminho_131" data-name="Caminho 131" d="M371.416,735.926a1.772,1.772,0,1,1-1.766-1.919,1.848,1.848,0,0,1,1.766,1.919" transform="translate(-692.338 7386.745)" fill="#fff"/>
    <path id="Caminho_132" data-name="Caminho 132" d="M423.993,590.745a1.772,1.772,0,1,1-1.766-1.919,1.848,1.848,0,0,1,1.766,1.919" transform="translate(-738.156 7513.26)" fill="#fff"/>
    <path id="Caminho_133" data-name="Caminho 133" d="M476.57,593.459a1.772,1.772,0,1,1-1.766-1.919,1.848,1.848,0,0,1,1.766,1.919" transform="translate(-783.972 7510.895)" fill="#fff"/>
    <path id="Caminho_134" data-name="Caminho 134" d="M480.732,612.8a1.764,1.764,0,0,1-1.6,1.1,1.676,1.676,0,0,1-1.128-.442" transform="translate(-788.302 7492.369)" fill="#ee3325"/>
    <path id="Caminho_135" data-name="Caminho 135" d="M433.378,670.348a1.772,1.772,0,1,1-1.766-1.919,1.847,1.847,0,0,1,1.766,1.919" transform="translate(-746.333 7443.892)" fill="#0083ca"/>
    <path id="Caminho_136" data-name="Caminho 136" d="M395.5,544.613a1.772,1.772,0,1,1-1.766-1.919,1.847,1.847,0,0,1,1.766,1.919" transform="translate(-713.325 7553.461)" fill="#fff"/>
    <path id="Caminho_137" data-name="Caminho 137" d="M403.494,542.72a1.644,1.644,0,0,1,.284-.025,1.847,1.847,0,0,1,1.766,1.919,1.972,1.972,0,0,1-.735,1.558" transform="translate(-723.371 7553.46)" fill="#fff"/>
    <path id="Caminho_138" data-name="Caminho 138" d="M378.2,505.265a1.772,1.772,0,1,1-1.766-1.919,1.848,1.848,0,0,1,1.766,1.919" transform="translate(-698.25 7587.75)" fill="#fff"/>
    <path id="Caminho_139" data-name="Caminho 139" d="M394.1,504.683a1.935,1.935,0,0,1,1.034,1.747,2.024,2.024,0,0,1-.333,1.121" transform="translate(-715.182 7586.584)" fill="#ee3325"/>
    <path id="Caminho_140" data-name="Caminho 140" d="M366.328,423.516a1.772,1.772,0,1,1-1.766-1.919,1.848,1.848,0,0,1,1.766,1.919" transform="translate(-687.904 7658.988)" fill="#fff"/>
    <path id="Caminho_141" data-name="Caminho 141" d="M373.763,421.635a1.639,1.639,0,0,1,.356-.039,1.848,1.848,0,0,1,1.766,1.919,1.912,1.912,0,0,1-1.207,1.821" transform="translate(-697.462 7658.989)" fill="#ee3325"/>
    <path id="Caminho_142" data-name="Caminho 142" d="M360.561,358.727a1.772,1.772,0,1,1-1.766-1.919,1.848,1.848,0,0,1,1.766,1.919" transform="translate(-682.879 7715.446)" fill="#fff"/>
    <path id="Caminho_143" data-name="Caminho 143" d="M371.642,364.839a2.045,2.045,0,0,1,.2.886,1.847,1.847,0,0,1-1.766,1.919c-.034,0-.068,0-.1,0" transform="translate(-694.16 7708.448)" fill="#ee3325"/>
    <path id="Caminho_144" data-name="Caminho 144" d="M394.481,321.754a1.772,1.772,0,1,1-1.766-1.919,1.847,1.847,0,0,1,1.766,1.919" transform="translate(-712.438 7747.666)" fill="#fff"/>
    <path id="Caminho_145" data-name="Caminho 145" d="M445.023,330.234a1.772,1.772,0,1,1-1.766-1.919,1.848,1.848,0,0,1,1.766,1.919" transform="translate(-756.481 7740.276)" fill="#fff"/>
    <path id="Caminho_146" data-name="Caminho 146" d="M445.96,342.32c0,.039,0,.079,0,.118a1.847,1.847,0,0,1-1.766,1.919,1.772,1.772,0,0,1-1.628-1.172" transform="translate(-757.422 7728.072)" fill="#ee3325"/>
    <path id="Caminho_147" data-name="Caminho 147" d="M430.891,363.7a1.772,1.772,0,1,1-1.766-1.919,1.848,1.848,0,0,1,1.766,1.919" transform="translate(-744.166 7711.11)" fill="#ee3325"/>
    <path id="Caminho_148" data-name="Caminho 148" d="M396.744,399.884a1.772,1.772,0,1,1-1.766-1.919,1.848,1.848,0,0,1,1.766,1.919" transform="translate(-714.41 7679.582)" fill="#ee3325"/>
    <path id="Caminho_149" data-name="Caminho 149" d="M449.66,403.5a1.772,1.772,0,1,1-1.766-1.919,1.848,1.848,0,0,1,1.766,1.919" transform="translate(-760.522 7676.427)" fill="#ee3325"/>
    <path id="Caminho_150" data-name="Caminho 150" d="M484.485,369.355a1.772,1.772,0,1,1-1.766-1.919,1.847,1.847,0,0,1,1.766,1.919" transform="translate(-790.869 7706.185)" fill="#ee3325"/>
    <path id="Caminho_151" data-name="Caminho 151" d="M503.028,408.025a1.772,1.772,0,1,1-1.766-1.919,1.847,1.847,0,0,1,1.766,1.919" transform="translate(-807.028 7672.487)" fill="#ee3325"/>
    <path id="Caminho_152" data-name="Caminho 152" d="M484.032,446.243a1.772,1.772,0,1,1-1.766-1.919,1.848,1.848,0,0,1,1.766,1.919" transform="translate(-790.475 7639.183)" fill="#ee3325"/>
    <path id="Caminho_153" data-name="Caminho 153" d="M549.613,411.417a1.772,1.772,0,1,1-1.766-1.919,1.847,1.847,0,0,1,1.766,1.919" transform="translate(-847.624 7669.531)" fill="#ee3325"/>
    <path id="Caminho_154" data-name="Caminho 154" d="M537.4,451.219a1.772,1.772,0,1,1-1.766-1.919,1.848,1.848,0,0,1,1.766,1.919" transform="translate(-836.983 7634.847)" fill="#ee3325"/>
    <path id="Caminho_155" data-name="Caminho 155" d="M438.127,443.077a1.772,1.772,0,1,1-1.766-1.919,1.848,1.848,0,0,1,1.766,1.919" transform="translate(-750.472 7641.942)" fill="#ee3325"/>
    <path id="Caminho_156" data-name="Caminho 156" d="M449.66,482.65a1.772,1.772,0,1,1-1.766-1.919,1.848,1.848,0,0,1,1.766,1.919" transform="translate(-760.522 7607.457)" fill="#ee3325"/>
    <path id="Caminho_157" data-name="Caminho 157" d="M429.081,508.431a1.772,1.772,0,1,1-1.766-1.919,1.847,1.847,0,0,1,1.766,1.919" transform="translate(-742.589 7584.991)" fill="#ee3325"/>
    <path id="Caminho_158" data-name="Caminho 158" d="M389.054,465.012a1.772,1.772,0,1,1-1.766-1.919,1.848,1.848,0,0,1,1.766,1.919" transform="translate(-707.708 7622.827)" fill="#ee3325"/>
    <path id="Caminho_159" data-name="Caminho 159" d="M490.591,524.938a1.772,1.772,0,1,1-1.766-1.919,1.848,1.848,0,0,1,1.766,1.919" transform="translate(-796.19 7570.606)" fill="#ee3325"/>
    <path id="Caminho_160" data-name="Caminho 160" d="M434.961,550.493a1.772,1.772,0,1,1-1.766-1.919,1.848,1.848,0,0,1,1.766,1.919" transform="translate(-747.713 7548.336)" fill="#ee3325"/>
    <path id="Caminho_161" data-name="Caminho 161" d="M442.876,630.546a1.772,1.772,0,1,1-1.766-1.919,1.848,1.848,0,0,1,1.766,1.919" transform="translate(-754.61 7478.576)" fill="#ee3325"/>
    <path id="Caminho_162" data-name="Caminho 162" d="M498.958,635.974a1.772,1.772,0,1,1-1.766-1.919,1.848,1.848,0,0,1,1.766,1.919" transform="translate(-803.482 7473.846)" fill="#ee3325"/>
    <path id="Caminho_163" data-name="Caminho 163" d="M486.746,675.321a1.772,1.772,0,1,1-1.766-1.919,1.848,1.848,0,0,1,1.766,1.919" transform="translate(-792.84 7439.558)" fill="#ee3325"/>
    <path id="Caminho_164" data-name="Caminho 164" d="M505.29,715.123a1.772,1.772,0,1,1-1.766-1.919,1.848,1.848,0,0,1,1.766,1.919" transform="translate(-809 7404.874)" fill="#ee3325"/>
    <path id="Caminho_165" data-name="Caminho 165" d="M539.662,678.488a1.772,1.772,0,1,1-1.766-1.919,1.848,1.848,0,0,1,1.766,1.919" transform="translate(-838.952 7436.798)" fill="#ee3325"/>
    <path id="Caminho_166" data-name="Caminho 166" d="M452.374,709.242a1.772,1.772,0,1,1-1.766-1.919,1.848,1.848,0,0,1,1.766,1.919" transform="translate(-762.887 7409.999)" fill="#ee3325"/>
    <path id="Caminho_167" data-name="Caminho 167" d="M707,393.1a1.772,1.772,0,1,1-1.766-1.919A1.847,1.847,0,0,1,707,393.1" transform="translate(-984.779 7685.492)" fill="#ee3325"/>
    <path id="Caminho_168" data-name="Caminho 168" d="M717.859,353.752a1.772,1.772,0,1,1-1.766-1.919,1.848,1.848,0,0,1,1.766,1.919" transform="translate(-994.238 7719.782)" fill="#ee3325"/>
    <path id="Caminho_169" data-name="Caminho 169" d="M653.636,388.578a1.772,1.772,0,1,1-1.766-1.919,1.847,1.847,0,0,1,1.766,1.919" transform="translate(-938.272 7689.434)" fill="#ee3325"/>
    <path id="Caminho_170" data-name="Caminho 170" d="M660.872,348.325a1.772,1.772,0,1,1-1.766-1.919,1.847,1.847,0,0,1,1.766,1.919" transform="translate(-944.578 7724.511)" fill="#ee3325"/>
    <path id="Caminho_171" data-name="Caminho 171" d="M695.7,311.239a1.772,1.772,0,1,1-1.766-1.919,1.848,1.848,0,0,1,1.766,1.919" transform="translate(-974.927 7756.829)" fill="#ee3325"/>
    <path id="Caminho_172" data-name="Caminho 172" d="M642.33,308.976a1.772,1.772,0,1,1-1.766-1.919,1.848,1.848,0,0,1,1.766,1.919" transform="translate(-928.42 7758.801)" fill="#ee3325"/>
    <path id="Caminho_173" data-name="Caminho 173" d="M654.993,269.177a1.772,1.772,0,1,1-1.766-1.919,1.847,1.847,0,0,1,1.766,1.919" transform="translate(-939.455 7793.483)" fill="#ee3325"/>
    <path id="Caminho_174" data-name="Caminho 174" d="M613.383,271.438a1.772,1.772,0,1,1-1.766-1.919,1.847,1.847,0,0,1,1.766,1.919" transform="translate(-903.195 7791.512)" fill="#ee3325"/>
    <path id="Caminho_175" data-name="Caminho 175" d="M624.691,230.734a1.772,1.772,0,1,1-1.766-1.919,1.848,1.848,0,0,1,1.766,1.919" transform="translate(-913.049 7826.983)" fill="#ee3325"/>
    <path id="Caminho_176" data-name="Caminho 176" d="M678.511,236.161a1.772,1.772,0,1,1-1.766-1.919,1.848,1.848,0,0,1,1.766,1.919" transform="translate(-959.949 7822.254)" fill="#ee3325"/>
    <path id="Caminho_177" data-name="Caminho 177" d="M712.885,199.978a1.772,1.772,0,1,1-1.766-1.919,1.847,1.847,0,0,1,1.766,1.919" transform="translate(-989.904 7853.785)" fill="#ee3325"/>
    <path id="Caminho_178" data-name="Caminho 178" d="M660.193,199.527a1.772,1.772,0,1,1-1.766-1.919,1.847,1.847,0,0,1,1.766,1.919" transform="translate(-943.986 7854.178)" fill="#ee3325"/>
    <path id="Caminho_179" data-name="Caminho 179" d="M502.125,485.591a1.772,1.772,0,1,1-1.766-1.919,1.848,1.848,0,0,1,1.766,1.919" transform="translate(-806.241 7604.894)" fill="#ee3325"/>
    <path id="Caminho_180" data-name="Caminho 180" d="M555.944,490.793a1.772,1.772,0,1,1-1.766-1.919,1.848,1.848,0,0,1,1.766,1.919" transform="translate(-853.141 7600.361)" fill="#ee3325"/>
    <path id="Caminho_181" data-name="Caminho 181" d="M536.949,371.844a1.772,1.772,0,1,1-1.766-1.919,1.847,1.847,0,0,1,1.766,1.919" transform="translate(-836.588 7704.016)" fill="#ee3325"/>
    <path id="Caminho_182" data-name="Caminho 182" d="M552.1,340.864a1.772,1.772,0,1,1-1.766-1.919,1.847,1.847,0,0,1,1.766,1.919" transform="translate(-849.792 7731.013)" fill="#ee3325"/>
    <path id="Caminho_183" data-name="Caminho 183" d="M496.244,328.538a1.772,1.772,0,1,1-1.766-1.919,1.847,1.847,0,0,1,1.766,1.919" transform="translate(-801.117 7741.754)" fill="#fff"/>
    <path id="Caminho_184" data-name="Caminho 184" d="M495.715,330.9a2,2,0,0,1,.529,1.369,1.772,1.772,0,1,1-3.533,0,2.066,2.066,0,0,1,.106-.655" transform="translate(-801.117 7738.027)" fill="#ee3325"/>
    <path id="Caminho_185" data-name="Caminho 185" d="M596.31,383.49a1.772,1.772,0,1,1-1.766-1.919,1.848,1.848,0,0,1,1.766,1.919" transform="translate(-888.317 7693.868)" fill="#fff"/>
    <path id="Caminho_186" data-name="Caminho 186" d="M432.516,669.211a1.723,1.723,0,0,1,1.423-.782,1.926,1.926,0,0,1,0,3.838,1.638,1.638,0,0,1-.688-.151" transform="translate(-748.661 7443.892)" fill="#ee3325"/>
    <path id="Caminho_187" data-name="Caminho 187" d="M440.953,750.173a1.772,1.772,0,1,1-1.766-1.919,1.848,1.848,0,0,1,1.766,1.919" transform="translate(-752.935 7374.33)" fill="#fff"/>
    <path id="Caminho_188" data-name="Caminho 188" d="M450.537,748.256l.08,0a1.847,1.847,0,0,1,1.766,1.919,1.942,1.942,0,0,1-.971,1.714" transform="translate(-764.365 7374.33)" fill="#ee3325"/>
    <path id="Caminho_189" data-name="Caminho 189" d="M661.442,478.663a2.1,2.1,0,0,1,.044.426,1.847,1.847,0,0,1-1.766,1.919,1.782,1.782,0,0,1-1.659-1.259" transform="translate(-945.206 7609.259)" fill="#ee3325"/>
    <path id="Caminho_190" data-name="Caminho 190" d="M609.337,207.312a1.834,1.834,0,0,1-1.761,1.776,1.738,1.738,0,0,1-1.5-.9" transform="translate(-899.909 7845.721)" fill="#ee3325"/>
    <path id="Caminho_191" data-name="Caminho 191" d="M591.009,230.907a1.993,1.993,0,0,1,.561,1.4,1.967,1.967,0,0,1-.779,1.591" transform="translate(-886.586 7825.16)" fill="#ee3325"/>
    <path id="Caminho_192" data-name="Caminho 192" d="M759.808,395.7a1.772,1.772,0,1,1-1.766-1.919,1.847,1.847,0,0,1,1.766,1.919" transform="translate(-1030.793 7683.227)" fill="#fff"/>
    <path id="Caminho_193" data-name="Caminho 193" d="M756.35,396.258a2.072,2.072,0,0,1-.076-.557,1.848,1.848,0,0,1,1.766-1.919,1.82,1.82,0,0,1,1.746,1.628" transform="translate(-1030.793 7683.227)" fill="#ee3325"/>
    <path id="Caminho_194" data-name="Caminho 194" d="M671.275,426.908a1.772,1.772,0,1,1-1.766-1.919,1.848,1.848,0,0,1,1.766,1.919" transform="translate(-953.643 7656.031)" fill="#fff"/>
    <path id="Caminho_195" data-name="Caminho 195" d="M668.626,426.23a1.779,1.779,0,0,1,1.653-1.241,1.69,1.69,0,0,1,1.227.538" transform="translate(-954.414 7656.031)" fill="#ee3325"/>
    <path id="Caminho_196" data-name="Caminho 196" d="M608.182,342.446a1.772,1.772,0,1,1-1.766-1.919,1.848,1.848,0,0,1,1.766,1.919" transform="translate(-898.663 7729.634)" fill="#fff"/>
    <path id="Caminho_197" data-name="Caminho 197" d="M612.291,340.726a1.647,1.647,0,0,1,.784-.2,1.931,1.931,0,0,1,.121,3.834" transform="translate(-905.322 7729.634)" fill="#ee3325"/>
    <path id="Caminho_198" data-name="Caminho 198" d="M590.543,303.437a1.773,1.773,0,1,1-1.766-1.919,1.848,1.848,0,0,1,1.766,1.919" transform="translate(-883.291 7763.627)" fill="#fff"/>
    <path id="Caminho_199" data-name="Caminho 199" d="M602.439,301.63a1.871,1.871,0,0,1,1.549,1.9,1.972,1.972,0,0,1-.726,1.551" transform="translate(-896.737 7763.53)" fill="#ee3325"/>
    <path id="Caminho_200" data-name="Caminho 200" d="M1975.145,710.543l.053.052q-.054.529-.053,1.845l-.047.047h-.276l-.048-.053-.065-.54a4.943,4.943,0,0,0-.073-.531.252.252,0,0,0-.085-.142,1.061,1.061,0,0,0-.382-.073q-.324-.029-.723-.029h-1.11q-.048,1.327-.047,1.534v3.425l.012,1.145a8.608,8.608,0,0,0,.032.861.513.513,0,0,0,.082.258.458.458,0,0,0,.214.106,4.581,4.581,0,0,0,.787.068l.041.035v.294l-.041.047q-1.5-.047-1.68-.047t-1.675.047l-.046-.047v-.294l.046-.035a6.035,6.035,0,0,0,.732-.059.532.532,0,0,0,.241-.091.471.471,0,0,0,.1-.238,4.8,4.8,0,0,0,.041-.81l.012-1.239v-3.425q0-.094-.047-1.534h-.875q-.541,0-.934.023t-.456.122a2.143,2.143,0,0,0-.114.631l-.058.54-.053.053h-.27l-.047-.047q-.012-1.416-.053-1.845l.053-.052q1.023.047,3.4.047,2.427,0,3.408-.047" transform="translate(-2086.969 7407.193)" fill="#fff"/>
    <path id="Caminho_201" data-name="Caminho 201" d="M2022.639,731.483l.112.076q-.035.34-.053,1.21l.441-.558a3.483,3.483,0,0,1,.385-.426,1.2,1.2,0,0,1,.391-.232,1.31,1.31,0,0,1,.458-.082,1.148,1.148,0,0,1,.487.106l.041.082q-.094.781-.105,1.375h-.264a.789.789,0,0,0-.758-.541.946.946,0,0,0-.635.232,1.12,1.12,0,0,0-.362.582,3.608,3.608,0,0,0-.091.884v.652q0,.176.023.864a6.97,6.97,0,0,0,.05.793.292.292,0,0,0,.082.156.3.3,0,0,0,.147.068q.092.018.838.059l.053.047v.247l-.053.053q-.781-.047-1.634-.047-.676,0-1.41.047l-.053-.053v-.247l.053-.047q.571-.035.644-.052a.274.274,0,0,0,.129-.074.311.311,0,0,0,.076-.17c.013-.077.03-.329.047-.758s.026-.753.026-.973V733.6q0-.235-.023-.64t-.038-.5a.184.184,0,0,0-.091-.138.7.7,0,0,0-.305-.044l-.494-.006-.052-.046v-.253l.047-.047a7.658,7.658,0,0,0,1.892-.441" transform="translate(-2132.648 7388.955)" fill="#fff"/>
    <path id="Caminho_202" data-name="Caminho 202" d="M2057.835,733.137l-.229-.059-.047-.059v-.728a3.434,3.434,0,0,1,2.033-.775,2.254,2.254,0,0,1,1.122.253,1.582,1.582,0,0,1,.646.631,1.869,1.869,0,0,1,.2.884l-.029,1.181v1.751a1.064,1.064,0,0,0,.049.434.257.257,0,0,0,.115.1.984.984,0,0,0,.24.044l.335.03.047.053v.235l-.047.047q-.428-.035-.8-.035-.353,0-.845.035l-.089-.083.023-.946-1.281,1a1.811,1.811,0,0,1-.7.135,1.771,1.771,0,0,1-.808-.171,1.215,1.215,0,0,1-.517-.476,1.438,1.438,0,0,1-.179-.74,1.72,1.72,0,0,1,.541-1.349,6.8,6.8,0,0,1,2.949-.825,1.61,1.61,0,0,0-.388-1.225,1.482,1.482,0,0,0-1.04-.355,1.832,1.832,0,0,0-.62.1.81.81,0,0,0-.321.161q-.041.062-.317.72Zm2.726.929a5.534,5.534,0,0,0-2.05.593,1.168,1.168,0,0,0-.406.981.807.807,0,0,0,.911.916,2.1,2.1,0,0,0,1.545-.9Z" transform="translate(-2164.341 7388.916)" fill="#fff"/>
    <path id="Caminho_203" data-name="Caminho 203" d="M2106.343,731.483l.112.076c-.023.263-.039.607-.046,1.034q.47-.387.893-.787a1.012,1.012,0,0,1,.231-.165,1.887,1.887,0,0,1,.362-.111,2.271,2.271,0,0,1,.517-.059,2.157,2.157,0,0,1,.866.182,1.725,1.725,0,0,1,.635.432,1.384,1.384,0,0,1,.3.591,3.589,3.589,0,0,1,.083.84v1.034q0,.1.029,1.463a1.162,1.162,0,0,0,.124.664,1.39,1.39,0,0,0,.728.106l.047.047v.253l-.047.047c-.5-.031-.835-.047-1.01-.047q-.154,0-.858.047l-.071-.065q.077-.763.077-1.991v-.77q0-.694-.032-1a1.231,1.231,0,0,0-.2-.555,1.115,1.115,0,0,0-.441-.388,1.455,1.455,0,0,0-.658-.138,1.921,1.921,0,0,0-.523.062,1.663,1.663,0,0,0-.487.253,1.88,1.88,0,0,0-.4.358.756.756,0,0,0-.156.312,4.355,4.355,0,0,0-.026.614v1.022q0,.129.023.831a7.563,7.563,0,0,0,.05.819.348.348,0,0,0,.08.171.243.243,0,0,0,.129.068q.077.014.635.049l.053.047v.247l-.048.053c-.489-.031-.961-.047-1.415-.047s-.921.016-1.41.047l-.053-.053v-.247l.053-.047q.57-.035.643-.052a.273.273,0,0,0,.129-.074.313.313,0,0,0,.076-.17q.021-.115.047-.758t.026-.973V733.6q0-.235-.024-.64t-.038-.5a.182.182,0,0,0-.091-.138.7.7,0,0,0-.305-.044l-.494-.006-.053-.046v-.253l.047-.047a7.637,7.637,0,0,0,1.891-.441" transform="translate(-2205.589 7388.955)" fill="#fff"/>
    <path id="Caminho_204" data-name="Caminho 204" d="M2165.607,735.075h.252l.053.053a8.2,8.2,0,0,0,.059.847,1.278,1.278,0,0,0,.629.449,2.418,2.418,0,0,0,.882.173,1.433,1.433,0,0,0,1-.335,1.039,1.039,0,0,0,.374-.8.729.729,0,0,0-.135-.438.986.986,0,0,0-.409-.3,6.29,6.29,0,0,0-.978-.285c-.4-.094-.685-.167-.846-.221a1.4,1.4,0,0,1-.464-.267,1.229,1.229,0,0,1-.34-.461,1.589,1.589,0,0,1,.508-1.863,2.515,2.515,0,0,1,1.56-.472,3.789,3.789,0,0,1,.858.109,4.727,4.727,0,0,1,.7.208l.053.083a9.648,9.648,0,0,0-.058,1.233l-.053.053h-.235l-.053-.053a2.748,2.748,0,0,0-.065-.5.756.756,0,0,0-.212-.312,1.337,1.337,0,0,0-.481-.282,1.886,1.886,0,0,0-.658-.115,1.506,1.506,0,0,0-.6.106.915.915,0,0,0-.394.321.879.879,0,0,0-.15.52.867.867,0,0,0,.091.4.7.7,0,0,0,.279.285,1.41,1.41,0,0,0,.394.155l.64.164a8.921,8.921,0,0,1,1.177.347,1.165,1.165,0,0,1,.55.444,1.283,1.283,0,0,1,.194.719,1.784,1.784,0,0,1-.67,1.392,2.525,2.525,0,0,1-1.721.582,6.421,6.421,0,0,1-.92-.082,9.356,9.356,0,0,1-.937-.182l-.03-.077.059-.394a2.749,2.749,0,0,0,.035-.367q.005-.186.012-.779Z" transform="translate(-2258.784 7389.234)" fill="#fff"/>
    <path id="Caminho_205" data-name="Caminho 205" d="M2207.062,715.8l.047.047v.247l-.047.053q-.182,0-.687-.023-.458-.023-.946-.024-.634,0-1.416.047l-.047-.053v-.247l.047-.047c.38-.024.6-.041.646-.052a.257.257,0,0,0,.129-.074.327.327,0,0,0,.073-.17q.021-.115.047-.758t.026-.972V711.5l-.758.041-.053-.046v-.147l.041-.059.77-.393v-.352a5.544,5.544,0,0,1,.053-.89,1.726,1.726,0,0,1,.2-.558,3.826,3.826,0,0,1,.5-.647q.359-.39.63-.64a1.768,1.768,0,0,1,.469-.335,1.205,1.205,0,0,1,.47-.085,1.5,1.5,0,0,1,.482.088l-.005.963-.136.052a1.114,1.114,0,0,0-.763-.293,1.055,1.055,0,0,0-.528.127.652.652,0,0,0-.306.411,3.753,3.753,0,0,0-.083.943V710.9h.629q.487,0,.922-.035l.052.065-.1.517-.053.059c-.117,0-.194-.005-.229-.005l-.764-.006h-.452v2.367q0,.188.027.861t.05.79a.315.315,0,0,0,.08.171.361.361,0,0,0,.182.076c.085.015.353.029.808.041" transform="translate(-2292.35 7409.94)" fill="#fff"/>
    <path id="Caminho_206" data-name="Caminho 206" d="M2240.115,736.017l-.187.423a3.714,3.714,0,0,1-1.09.511,3.641,3.641,0,0,1-.855.118,3.3,3.3,0,0,1-1.336-.276,2.232,2.232,0,0,1-1.028-.935,3.016,3.016,0,0,1-.4-1.586,3.783,3.783,0,0,1,.153-1.113,2.78,2.78,0,0,1,.32-.737,2.516,2.516,0,0,1,.567-.534,3.725,3.725,0,0,1,.846-.47,2.6,2.6,0,0,1,.963-.176,2.314,2.314,0,0,1,1.243.332,1.821,1.821,0,0,1,.754.849,2.8,2.8,0,0,1,.218,1.1,3.514,3.514,0,0,1-.017.353l-.065.065a6.483,6.483,0,0,1-1.075.118c-.45.02-.749.029-.893.029h-1.885a2.417,2.417,0,0,0,.61,1.792,2.04,2.04,0,0,0,1.469.576,2.257,2.257,0,0,0,.79-.141,4.961,4.961,0,0,0,.8-.393Zm-3.765-2.4q.1.018.813.042t1.049.023a9.114,9.114,0,0,0,.992-.03c0-.094.006-.166.006-.217a2.082,2.082,0,0,0-.369-1.354,1.246,1.246,0,0,0-1.011-.444,1.3,1.3,0,0,0-1.09.5,2.371,2.371,0,0,0-.391,1.48" transform="translate(-2319.587 7389.156)" fill="#fff"/>
    <path id="Caminho_207" data-name="Caminho 207" d="M2282.121,731.483l.112.076q-.035.34-.053,1.21l.44-.558a3.522,3.522,0,0,1,.385-.426,1.207,1.207,0,0,1,.391-.232,1.314,1.314,0,0,1,.458-.082,1.148,1.148,0,0,1,.487.106l.041.082q-.094.781-.106,1.375h-.264a.788.788,0,0,0-.758-.541.949.949,0,0,0-.635.232,1.126,1.126,0,0,0-.362.582,3.62,3.62,0,0,0-.091.884v.652q0,.176.024.864a6.968,6.968,0,0,0,.05.793.294.294,0,0,0,.082.156.3.3,0,0,0,.147.068q.09.018.837.059l.053.047v.247l-.053.053q-.781-.047-1.634-.047-.675,0-1.41.047l-.052-.053v-.247l.052-.047q.569-.035.644-.052a.277.277,0,0,0,.129-.074.31.31,0,0,0,.076-.17c.014-.077.03-.329.047-.758s.027-.753.027-.973V733.6c0-.156-.008-.37-.024-.64s-.029-.437-.038-.5a.182.182,0,0,0-.091-.138.707.707,0,0,0-.306-.044l-.493-.006-.053-.046v-.253l.047-.047a7.643,7.643,0,0,0,1.891-.441" transform="translate(-2358.767 7388.955)" fill="#fff"/>
    <path id="Caminho_208" data-name="Caminho 208" d="M2316.784,720.045v-.153l.041-.059a8.214,8.214,0,0,0,.893-.382q0-1.533-.035-1.786a5.063,5.063,0,0,0,.992-.453l.141.117q-.058.37-.141,2.15c.2,0,.408.006.635.006a9.794,9.794,0,0,0,.993-.035l.041.041-.112.493-.047.053c-.2,0-.421-.006-.664-.006-.219,0-.5,0-.846.006l-.035,2.391a9.578,9.578,0,0,0,.038,1.084.616.616,0,0,0,.213.4.782.782,0,0,0,.513.145,1.369,1.369,0,0,0,.729-.206l.141.211q-.141.1-.675.588a1.479,1.479,0,0,1-.624.141,1.15,1.15,0,0,1-1.321-1.281q0-.47.024-.8c0-.066.006-.135.006-.206v-2.438h-.241q-.264,0-.605.023Z" transform="translate(-2390.663 7401.38)" fill="#fff"/>
    <path id="Caminho_209" data-name="Caminho 209" d="M2374.025,708.166v-.247l.047-.053a7.474,7.474,0,0,0,1.892-.435l.111.071q-.064.676-.064,2.708v3.848q0,.594.021,1.037a1.558,1.558,0,0,0,.073.526.379.379,0,0,0,.174.135,3.072,3.072,0,0,0,.684.1l.053.046v.223l-.053.053q-.634-.042-.987-.041-.317,0-.9.041l-.065-.065q.018-.576.018-.8,0-.03.006-.224c-.215.157-.431.331-.646.523q-.476.423-.623.529a1.772,1.772,0,0,1-.77.135,2.328,2.328,0,0,1-1.378-.4,2.2,2.2,0,0,1-.808-1.019,3.478,3.478,0,0,1-.241-1.272,3.357,3.357,0,0,1,.25-1.278,1.8,1.8,0,0,1,.711-.9q.461-.283,1-.584a2.2,2.2,0,0,1,1.078-.3,2.915,2.915,0,0,1,1.422.37l-.024-1.31c-.007-.454-.019-.771-.035-.949a.944.944,0,0,0-.058-.317.217.217,0,0,0-.12-.073,5.368,5.368,0,0,0-.714-.023Zm1,3.731a2.626,2.626,0,0,0-.808-.629,2.009,2.009,0,0,0-.89-.217,1.7,1.7,0,0,0-.919.267,1.494,1.494,0,0,0-.614.794,3.365,3.365,0,0,0-.188,1.142,2.5,2.5,0,0,0,.519,1.651,1.633,1.633,0,0,0,1.308.623,1.462,1.462,0,0,0,.76-.2,1.623,1.623,0,0,0,.547-.532,1.531,1.531,0,0,0,.249-.669q.036-.335.036-1.228Z" transform="translate(-2437.528 7409.903)" fill="#fff"/>
    <path id="Caminho_210" data-name="Caminho 210" d="M2426.127,712.927l-.177-.135a7.343,7.343,0,0,0,.481-.828,4.512,4.512,0,0,0,.276-.79,8.188,8.188,0,0,0,.188-1.02,9.451,9.451,0,0,0,1.146-.34l.17.14a9.775,9.775,0,0,1-1.545,2.691Z" transform="translate(-2485.793 7407.828)" fill="#fff"/>
    <path id="Caminho_211" data-name="Caminho 211" d="M2444.106,733.137l-.229-.059-.048-.059v-.728a3.433,3.433,0,0,1,2.032-.775,2.254,2.254,0,0,1,1.122.253,1.582,1.582,0,0,1,.646.631,1.866,1.866,0,0,1,.2.884l-.029,1.181v1.751a1.06,1.06,0,0,0,.05.434.254.254,0,0,0,.115.1.979.979,0,0,0,.24.044l.334.03.047.053v.235l-.047.047q-.428-.035-.8-.035-.352,0-.846.035l-.088-.083.024-.946-1.281,1a1.815,1.815,0,0,1-.7.135,1.771,1.771,0,0,1-.808-.171,1.218,1.218,0,0,1-.517-.476,1.436,1.436,0,0,1-.179-.74,1.719,1.719,0,0,1,.541-1.349,6.8,6.8,0,0,1,2.949-.825,1.609,1.609,0,0,0-.388-1.225,1.48,1.48,0,0,0-1.04-.355,1.839,1.839,0,0,0-.62.1.793.793,0,0,0-.319.161q-.042.062-.318.72Zm2.727.929a5.541,5.541,0,0,0-2.051.593,1.168,1.168,0,0,0-.4.981.807.807,0,0,0,.91.916,2.1,2.1,0,0,0,1.546-.9Z" transform="translate(-2500.949 7388.916)" fill="#fff"/>
    <path id="Caminho_212" data-name="Caminho 212" d="M2490.792,731.483l.112.076q-.035.34-.053,1.21l.441-.558a3.424,3.424,0,0,1,.385-.426,1.2,1.2,0,0,1,.391-.232,1.31,1.31,0,0,1,.458-.082,1.148,1.148,0,0,1,.488.106l.04.082q-.093.781-.1,1.375h-.264a.789.789,0,0,0-.758-.541.946.946,0,0,0-.635.232,1.12,1.12,0,0,0-.362.582,3.56,3.56,0,0,0-.091.884v.652q0,.176.023.864a6.754,6.754,0,0,0,.051.793.3.3,0,0,0,.081.156.308.308,0,0,0,.147.068q.091.018.837.059l.054.047v.247l-.054.053q-.781-.047-1.633-.047-.676,0-1.409.047l-.054-.053v-.247l.054-.047q.569-.035.643-.052a.27.27,0,0,0,.129-.074.313.313,0,0,0,.077-.17c.013-.077.029-.329.047-.758s.026-.753.026-.973V733.6q0-.235-.023-.64t-.038-.5a.183.183,0,0,0-.092-.138.7.7,0,0,0-.3-.044l-.494-.006-.053-.046v-.253l.047-.047a7.656,7.656,0,0,0,1.892-.441" transform="translate(-2540.607 7388.955)" fill="#fff"/>
    <path id="Caminho_213" data-name="Caminho 213" d="M2532.66,731.645l.047.107c-.161.246-.26.407-.3.481h-1.092a1.472,1.472,0,0,1,.164.675,1.838,1.838,0,0,1-.191.811,1.951,1.951,0,0,1-.531.669,2.822,2.822,0,0,1-.773.441,2.752,2.752,0,0,1-.984.164h-.27a2.824,2.824,0,0,0-.446.411.461.461,0,0,0-.1.276.371.371,0,0,0,.239.364,2.9,2.9,0,0,0,.984.105l1.316-.017a2.449,2.449,0,0,1,.955.147,1.144,1.144,0,0,1,.537.526,1.661,1.661,0,0,1,.206.8,2.344,2.344,0,0,1-.42,1.289,2.62,2.62,0,0,1-1.213.978,4.3,4.3,0,0,1-1.692.335,3.99,3.99,0,0,1-.961-.111,2.477,2.477,0,0,1-.787-.338,1.7,1.7,0,0,1-.543-.59,1.519,1.519,0,0,1-.206-.757,1.727,1.727,0,0,1,.064-.455,1.827,1.827,0,0,1,.247-.514l1.063-.593a1.5,1.5,0,0,1-.644-.315.564.564,0,0,1-.132-.373,1.273,1.273,0,0,1,.146-.529l.947-.682a1.856,1.856,0,0,1-1.126-.652,1.676,1.676,0,0,1-.29-.951,2.084,2.084,0,0,1,.205-.908,1.613,1.613,0,0,1,.62-.69,3.669,3.669,0,0,1,.928-.409,3.376,3.376,0,0,1,.937-.15,2.359,2.359,0,0,1,1.4.476q1.063,0,1.7-.024m-3.055,5.305q-.946,0-1.09.024a1.191,1.191,0,0,0-.408.2,1.349,1.349,0,0,0-.432.479,1.382,1.382,0,0,0-.167.678,1.347,1.347,0,0,0,.494,1.081,1.969,1.969,0,0,0,1.316.417,2.532,2.532,0,0,0,1.139-.258,1.755,1.755,0,0,0,.773-.693,1.678,1.678,0,0,0,.249-.834,1.124,1.124,0,0,0-.208-.684.842.842,0,0,0-.541-.347,7.022,7.022,0,0,0-1.125-.062m-1.721-3.943a2.389,2.389,0,0,0,.141.77,1.184,1.184,0,0,0,.456.623,1.237,1.237,0,0,0,.708.212,1.3,1.3,0,0,0,.9-.34,1.362,1.362,0,0,0,.379-1.064,1.852,1.852,0,0,0-.347-1.1,1.133,1.133,0,0,0-.981-.488,1.238,1.238,0,0,0-.9.35,1.379,1.379,0,0,0-.361,1.037" transform="translate(-2573.5 7389.198)" fill="#fff"/>
    <path id="Caminho_214" data-name="Caminho 214" d="M2582.62,736.017l-.188.423a3.707,3.707,0,0,1-1.09.511,3.629,3.629,0,0,1-.854.118,3.3,3.3,0,0,1-1.337-.276,2.238,2.238,0,0,1-1.028-.935,3.016,3.016,0,0,1-.4-1.586,3.784,3.784,0,0,1,.153-1.113,2.754,2.754,0,0,1,.32-.737,2.5,2.5,0,0,1,.568-.534,3.738,3.738,0,0,1,.846-.47,2.605,2.605,0,0,1,.963-.176,2.315,2.315,0,0,1,1.243.332,1.828,1.828,0,0,1,.755.849,2.814,2.814,0,0,1,.217,1.1,3.441,3.441,0,0,1-.018.353l-.064.065a6.487,6.487,0,0,1-1.076.118q-.676.029-.893.029h-1.885a2.419,2.419,0,0,0,.611,1.792,2.037,2.037,0,0,0,1.469.576,2.258,2.258,0,0,0,.79-.141,4.952,4.952,0,0,0,.8-.393Zm-3.766-2.4q.106.018.814.042t1.048.023a9.162,9.162,0,0,0,.994-.03c0-.094.005-.166.005-.217a2.084,2.084,0,0,0-.37-1.354,1.248,1.248,0,0,0-1.011-.444,1.3,1.3,0,0,0-1.09.5,2.368,2.368,0,0,0-.391,1.48" transform="translate(-2618.054 7389.156)" fill="#fff"/>
    <path id="Caminho_215" data-name="Caminho 215" d="M2622.709,731.483l.112.076q-.036.394-.047,1.034.47-.387.893-.787a1.036,1.036,0,0,1,.232-.165,1.9,1.9,0,0,1,.361-.111,2.283,2.283,0,0,1,.517-.059,2.162,2.162,0,0,1,.867.182,1.726,1.726,0,0,1,.634.432,1.381,1.381,0,0,1,.3.591,3.621,3.621,0,0,1,.082.84v1.034q0,.1.031,1.463a1.159,1.159,0,0,0,.123.664,1.391,1.391,0,0,0,.729.106l.047.047v.253l-.047.047q-.746-.047-1.011-.047-.153,0-.858.047l-.07-.065q.075-.763.076-1.991v-.77q0-.694-.032-1a1.229,1.229,0,0,0-.2-.555,1.11,1.11,0,0,0-.44-.388,1.458,1.458,0,0,0-.658-.138,1.915,1.915,0,0,0-.522.062,1.655,1.655,0,0,0-.488.253,1.872,1.872,0,0,0-.4.358.759.759,0,0,0-.156.312,4.409,4.409,0,0,0-.026.614v1.022q0,.129.023.831a7.639,7.639,0,0,0,.051.819.339.339,0,0,0,.08.171.238.238,0,0,0,.129.068q.076.014.634.049l.053.047v.247l-.048.053q-.734-.047-1.415-.047c-.451,0-.92.016-1.411.047l-.053-.053v-.247l.053-.047q.571-.035.643-.052a.274.274,0,0,0,.13-.074.315.315,0,0,0,.076-.17q.021-.115.047-.758t.026-.973V733.6q0-.235-.023-.64c-.015-.27-.029-.437-.038-.5a.183.183,0,0,0-.092-.138.7.7,0,0,0-.306-.044l-.493-.006-.053-.046v-.253l.047-.047a7.645,7.645,0,0,0,1.891-.441" transform="translate(-2655.564 7388.955)" fill="#fff"/>
    <path id="Caminho_216" data-name="Caminho 216" d="M2676.786,720.045v-.153l.042-.059a8.214,8.214,0,0,0,.893-.382q0-1.533-.036-1.786a5.075,5.075,0,0,0,.993-.453l.141.117q-.059.37-.141,2.15.293.007.635.006a9.8,9.8,0,0,0,.993-.035l.041.041-.111.493-.048.053q-.3-.006-.663-.006-.33,0-.846.006l-.035,2.391a9.517,9.517,0,0,0,.038,1.084.614.614,0,0,0,.212.4.781.781,0,0,0,.514.145,1.369,1.369,0,0,0,.729-.206l.141.211c-.095.067-.319.262-.676.588a1.473,1.473,0,0,1-.623.141,1.151,1.151,0,0,1-1.322-1.281c0-.313.008-.58.023-.8,0-.066.006-.135.006-.206v-2.438h-.241c-.176,0-.378.008-.605.023Z" transform="translate(-2704.378 7401.38)" fill="#fff"/>
  </g>
</svg>
