<svg xmlns="http://www.w3.org/2000/svg" width="656.509" height="802.553" viewBox="0 0 656.509 802.553">
  <g id="detalhe_footer_antigo_grande" transform="translate(-255.944 -70.517)">
    <path id="Caminho_58" data-name="Caminho 58" d="M682.231,769.5c5.5,22.586-3.4,44.155-19.872,48.165l-154.791,37.71c-16.474,4.016-34.295-11.038-39.8-33.63L431.751,673.891c-5.5-22.585,3.4-44.155,19.871-48.173l154.792-37.709c16.474-4.008,34.293,11.048,39.8,33.638Z" transform="translate(5.744 17.043)" fill="#e52d1f"/>
    <path id="Caminho_59" data-name="Caminho 59" d="M897.967,627.715c5.5,22.586-3.4,44.154-19.872,48.166L723.3,713.59c-16.474,4.017-34.295-11.038-39.8-33.63L647.487,532.1c-5.5-22.583,3.4-44.154,19.872-48.172L822.15,446.221c16.476-4.008,34.293,11.048,39.8,33.637Z" transform="translate(12.858 12.368)" fill="#e52d1f"/>
    <path id="Caminho_60" data-name="Caminho 60" d="M621.174,506.7c5.5,22.586-3.4,44.154-19.872,48.166L446.51,592.578c-16.474,4.016-34.295-11.038-39.8-33.63L370.694,411.09c-5.5-22.584,3.4-44.155,19.871-48.172l154.791-37.709c16.475-4.008,34.293,11.049,39.8,33.638Z" transform="translate(3.73 8.377)" fill="#e52d1f"/>
    <path id="Caminho_61" data-name="Caminho 61" d="M839.528,358.216c5.609,22.665-2.99,44.293-19.194,48.3L668.073,444.182c-16.206,4.012-33.894-11.109-39.5-33.778L591.868,262.032c-5.61-22.661,2.988-44.293,19.193-48.307l152.262-37.667c16.206-4,33.892,11.12,39.5,33.787Z" transform="translate(11.02 3.459)" fill="#e52d1f"/>
    <path id="Caminho_83" data-name="Caminho 83" d="M427.98,220.261c0,8.514-6.353,15.417-14.191,15.417s-14.191-6.9-14.191-15.417,6.354-15.417,14.191-15.417,14.191,6.9,14.191,15.417" transform="translate(4.737 4.429)" fill="#e52d1f"/>
    <path id="Caminho_84" data-name="Caminho 84" d="M375.064,217.886c0,8.514-6.354,15.417-14.191,15.417s-14.191-6.9-14.191-15.417,6.354-15.417,14.191-15.417,14.191,6.9,14.191,15.417" transform="translate(2.992 4.351)" fill="#e52d1f"/>
    <path id="Caminho_85" data-name="Caminho 85" d="M355.39,250.45c0,8.514-6.354,15.417-14.191,15.417s-14.191-6.9-14.191-15.417,6.354-15.417,14.191-15.417,14.191,6.9,14.191,15.417" transform="translate(2.343 5.425)" fill="#e52d1f"/>
    <path id="Caminho_86" data-name="Caminho 86" d="M416.617,260.966c0,8.514-6.353,15.417-14.191,15.417s-14.191-6.9-14.191-15.417,6.354-15.417,14.191-15.417,14.191,6.9,14.191,15.417" transform="translate(4.362 5.772)" fill="#e52d1f"/>
    <path id="Caminho_87" data-name="Caminho 87" d="M462.75,264.018c0,8.514-6.353,15.417-14.192,15.417s-14.191-6.9-14.191-15.417,6.353-15.417,14.191-15.417,14.192,6.9,14.192,15.417" transform="translate(5.883 5.872)" fill="#e52d1f"/>
    <path id="Caminho_88" data-name="Caminho 88" d="M480.727,302.689c0,8.513-6.353,15.417-14.191,15.417s-14.191-6.9-14.191-15.417,6.354-15.418,14.191-15.418,14.191,6.9,14.191,15.418" transform="translate(6.476 7.147)" fill="#e52d1f"/>
    <path id="Caminho_89" data-name="Caminho 89" d="M516.683,269.106c0,8.513-6.354,15.417-14.191,15.417s-14.191-6.9-14.191-15.417,6.353-15.417,14.191-15.417,14.191,6.9,14.191,15.417" transform="translate(7.662 6.04)" fill="#e52d1f"/>
    <path id="Caminho_90" data-name="Caminho 90" d="M534.323,307.776c0,8.514-6.354,15.417-14.192,15.417s-14.191-6.9-14.191-15.417,6.354-15.417,14.191-15.417,14.192,6.9,14.192,15.417" transform="translate(8.243 7.315)" fill="#e52d1f"/>
    <path id="Caminho_91" data-name="Caminho 91" d="M527.539,228.4c0,8.514-6.354,15.417-14.191,15.417s-14.192-6.9-14.192-15.417,6.354-15.417,14.192-15.417,14.191,6.9,14.191,15.417" transform="translate(8.02 4.698)" fill="#e52d1f"/>
    <path id="Caminho_92" data-name="Caminho 92" d="M574.687,200.587c0,8.514-6.353,15.417-14.191,15.417s-14.192-6.9-14.192-15.417,6.354-15.417,14.192-15.417,14.191,6.9,14.191,15.417" transform="translate(9.574 3.781)" fill="#e52d1f"/>
    <path id="Caminho_93" data-name="Caminho 93" d="M568.582,271.481c0,8.514-6.354,15.417-14.19,15.417S540.2,280,540.2,271.481s6.354-15.417,14.192-15.417,14.19,6.9,14.19,15.417" transform="translate(9.373 6.118)" fill="#e52d1f"/>
    <path id="Caminho_94" data-name="Caminho 94" d="M575.706,312.186c0,8.513-6.353,15.417-14.192,15.417s-14.192-6.9-14.192-15.417,6.354-15.417,14.192-15.417,14.192,6.9,14.192,15.417" transform="translate(9.608 7.461)" fill="#e52d1f"/>
    <path id="Caminho_95" data-name="Caminho 95" d="M597.754,242.309c0,8.514-6.353,15.417-14.191,15.417s-14.191-6.9-14.191-15.417,6.354-15.417,14.191-15.417,14.191,6.9,14.191,15.417" transform="translate(10.335 5.156)" fill="#e52d1f"/>
    <path id="Caminho_96" data-name="Caminho 96" d="M632.353,206.692c0,8.514-6.354,15.417-14.191,15.417s-14.191-6.9-14.191-15.417,6.353-15.417,14.191-15.417,14.191,6.9,14.191,15.417" transform="translate(11.476 3.982)" fill="#e52d1f"/>
    <path id="Caminho_97" data-name="Caminho 97" d="M697.141,171.075c0,8.515-6.354,15.418-14.191,15.418s-14.192-6.9-14.192-15.418,6.354-15.416,14.192-15.416,14.191,6.9,14.191,15.416" transform="translate(13.612 2.807)" fill="#e52d1f"/>
    <path id="Caminho_98" data-name="Caminho 98" d="M640.155,165.648c0,8.514-6.354,15.417-14.191,15.417s-14.191-6.9-14.191-15.417,6.353-15.417,14.191-15.417,14.191,6.9,14.191,15.417" transform="translate(11.733 2.628)" fill="#e52d1f"/>
    <path id="Caminho_99" data-name="Caminho 99" d="M586.56,159.542c0,8.514-6.354,15.417-14.192,15.417s-14.19-6.9-14.19-15.417,6.353-15.417,14.19-15.417,14.192,6.9,14.192,15.417" transform="translate(9.966 2.427)" fill="#e52d1f"/>
    <path id="Caminho_100" data-name="Caminho 100" d="M621.159,126.64c0,8.514-6.353,15.417-14.192,15.417s-14.19-6.9-14.19-15.417,6.354-15.417,14.19-15.417,14.192,6.9,14.192,15.417" transform="translate(11.107 1.342)" fill="#e52d1f"/>
    <path id="Caminho_101" data-name="Caminho 101" d="M633.031,85.934c0,8.514-6.354,15.417-14.191,15.417s-14.191-6.9-14.191-15.417S611,70.517,618.84,70.517s14.191,6.9,14.191,15.417" transform="translate(11.498 0)" fill="#e52d1f"/>
    <path id="Caminho_102" data-name="Caminho 102" d="M674.414,128.675c0,8.514-6.354,15.417-14.191,15.417s-14.191-6.9-14.191-15.417,6.354-15.417,14.191-15.417,14.191,6.9,14.191,15.417" transform="translate(12.863 1.409)" fill="#e52d1f"/>
    <path id="Caminho_103" data-name="Caminho 103" d="M614.375,467.2c0,8.513-6.354,15.417-14.191,15.417s-14.192-6.9-14.192-15.417,6.354-15.419,14.192-15.419,14.191,6.9,14.191,15.419" transform="translate(10.883 12.572)" fill="#e52d1f"/>
    <path id="Caminho_104" data-name="Caminho 104" d="M608.382,479.79a13.372,13.372,0,0,1-8.2,2.832c-7.837,0-14.192-6.9-14.192-15.417s6.354-15.417,14.192-15.417a13.171,13.171,0,0,1,1.451.08" transform="translate(10.883 12.572)" fill="#e52d1f"/>
    <path id="Caminho_105" data-name="Caminho 105" d="M643.208,439.39c0,8.513-6.354,15.417-14.192,15.417s-14.19-6.9-14.19-15.417,6.354-15.418,14.19-15.418,14.192,6.9,14.192,15.418" transform="translate(11.834 11.655)" fill="#e52d1f"/>
    <path id="Caminho_106" data-name="Caminho 106" d="M685.609,482.468c0,8.514-6.354,15.419-14.191,15.419s-14.192-6.905-14.192-15.419,6.353-15.417,14.192-15.417,14.191,6.9,14.191,15.417" transform="translate(13.232 13.076)" fill="#e52d1f"/>
    <path id="Caminho_107" data-name="Caminho 107" d="M750.058,446.173c0,8.514-6.352,15.417-14.191,15.417s-14.191-6.9-14.191-15.417,6.354-15.417,14.191-15.417,14.191,6.9,14.191,15.417" transform="translate(15.357 11.879)" fill="#e52d1f"/>
    <path id="Caminho_108" data-name="Caminho 108" d="M378.287,292.511c0,8.514-6.354,15.418-14.191,15.418s-14.191-6.9-14.191-15.418,6.354-15.417,14.191-15.417,14.191,6.905,14.191,15.417" transform="translate(3.098 6.812)" fill="#e52d1f"/>
    <path id="Caminho_109" data-name="Caminho 109" d="M427.811,300.313c0,8.514-6.354,15.417-14.191,15.417s-14.191-6.9-14.191-15.417S405.783,284.9,413.62,284.9s14.191,6.905,14.191,15.417" transform="translate(4.731 7.069)" fill="#e52d1f"/>
    <path id="Caminho_110" data-name="Caminho 110" d="M312.82,327.111c0,8.514-6.354,15.418-14.191,15.418s-14.191-6.9-14.191-15.418,6.354-15.417,14.191-15.417,14.191,6.9,14.191,15.417" transform="translate(0.94 7.953)" fill="#e52d1f"/>
    <path id="Caminho_111" data-name="Caminho 111" d="M366.415,332.877c0,8.513-6.354,15.417-14.191,15.417s-14.191-6.9-14.191-15.417,6.354-15.417,14.191-15.417,14.191,6.9,14.191,15.417" transform="translate(2.707 8.143)" fill="#e52d1f"/>
    <path id="Caminho_112" data-name="Caminho 112" d="M330.8,366.12c0,8.513-6.353,15.417-14.191,15.417s-14.191-6.9-14.191-15.417S308.77,350.7,316.607,350.7s14.191,6.9,14.191,15.417" transform="translate(1.532 9.239)" fill="#e52d1f"/>
    <path id="Caminho_113" data-name="Caminho 113" d="M349.793,394.613c0,8.514-6.354,15.417-14.191,15.417s-14.191-6.9-14.191-15.417S327.765,379.2,335.6,379.2s14.191,6.9,14.191,15.417" transform="translate(2.159 10.179)" fill="#e52d1f"/>
    <path id="Caminho_114" data-name="Caminho 114" d="M319.265,406.485c0,8.514-6.354,15.417-14.191,15.417s-14.191-6.9-14.191-15.417,6.354-15.417,14.191-15.417,14.191,6.9,14.191,15.417" transform="translate(1.152 10.57)" fill="#e52d1f"/>
    <path id="Caminho_115" data-name="Caminho 115" d="M337.582,434.3c0,8.513-6.354,15.417-14.191,15.417S309.2,442.814,309.2,434.3s6.354-15.418,14.191-15.418,14.191,6.9,14.191,15.418" transform="translate(1.756 11.487)" fill="#e52d1f"/>
    <path id="Caminho_116" data-name="Caminho 116" d="M284.326,429.212c0,8.514-6.354,15.417-14.191,15.417s-14.191-6.9-14.191-15.417S262.3,413.8,270.135,413.8s14.191,6.9,14.191,15.417" transform="translate(0 11.319)" fill="#e52d1f"/>
    <path id="Caminho_117" data-name="Caminho 117" d="M302.3,467.543c0,8.513-6.354,15.418-14.191,15.418s-14.191-6.9-14.191-15.418,6.354-15.417,14.191-15.417,14.191,6.9,14.191,15.417" transform="translate(0.593 12.583)" fill="#e52d1f"/>
    <path id="Caminho_118" data-name="Caminho 118" d="M355.9,473.648c0,8.514-6.354,15.417-14.191,15.417s-14.191-6.9-14.191-15.417,6.354-15.417,14.191-15.417,14.191,6.9,14.191,15.417" transform="translate(2.36 12.784)" fill="#e52d1f"/>
    <path id="Caminho_119" data-name="Caminho 119" d="M348.436,513.675c0,8.514-6.354,15.418-14.191,15.418s-14.191-6.9-14.191-15.418,6.354-15.417,14.191-15.417,14.191,6.9,14.191,15.417" transform="translate(2.114 14.105)" fill="#e52d1f"/>
    <path id="Caminho_120" data-name="Caminho 120" d="M290.432,507.909c0,8.513-6.354,15.418-14.191,15.418s-14.191-6.905-14.191-15.418,6.354-15.418,14.191-15.418,14.191,6.9,14.191,15.418" transform="translate(0.201 13.914)" fill="#e52d1f"/>
    <path id="Caminho_121" data-name="Caminho 121" d="M366.415,553.024c0,8.513-6.354,15.417-14.191,15.417s-14.191-6.9-14.191-15.417,6.354-15.419,14.191-15.419,14.191,6.9,14.191,15.419" transform="translate(2.707 15.402)" fill="#e52d1f"/>
    <path id="Caminho_122" data-name="Caminho 122" d="M324.014,591.693c0,8.513-6.354,15.417-14.191,15.417s-14.191-6.9-14.191-15.417,6.354-15.418,14.191-15.418,14.191,6.9,14.191,15.418" transform="translate(1.309 16.677)" fill="#e52d1f"/>
    <path id="Caminho_123" data-name="Caminho 123" d="M301.626,624.6c0,8.513-6.353,15.418-14.191,15.418s-14.191-6.9-14.191-15.418,6.354-15.418,14.191-15.418,14.191,6.9,14.191,15.418" transform="translate(0.57 17.762)" fill="#e52d1f"/>
    <path id="Caminho_124" data-name="Caminho 124" d="M354.542,593.051c0,8.513-6.352,15.417-14.191,15.417s-14.191-6.9-14.191-15.417,6.354-15.419,14.191-15.419,14.191,6.905,14.191,15.419" transform="translate(2.315 16.722)" fill="#e52d1f"/>
    <path id="Caminho_125" data-name="Caminho 125" d="M360.648,635.45c0,8.514-6.354,15.419-14.191,15.419s-14.191-6.9-14.191-15.419,6.354-15.417,14.191-15.417,14.191,6.9,14.191,15.417" transform="translate(2.516 18.12)" fill="#e52d1f"/>
    <path id="Caminho_126" data-name="Caminho 126" d="M343.009,667.336c0,8.513-6.354,15.417-14.191,15.417s-14.191-6.9-14.191-15.417,6.354-15.417,14.191-15.417,14.191,6.9,14.191,15.417" transform="translate(1.935 19.171)" fill="#e52d1f"/>
    <path id="Caminho_127" data-name="Caminho 127" d="M394.908,599.156c0,8.513-6.353,15.417-14.191,15.417s-14.191-6.9-14.191-15.417,6.354-15.418,14.191-15.418,14.191,6.906,14.191,15.418" transform="translate(3.646 16.924)" fill="#e52d1f"/>
    <path id="Caminho_128" data-name="Caminho 128" d="M412.886,638.843c0,8.513-6.354,15.417-14.191,15.417s-14.191-6.9-14.191-15.417,6.354-15.418,14.191-15.418,14.191,6.905,14.191,15.418" transform="translate(4.239 18.232)" fill="#e52d1f"/>
    <path id="Caminho_129" data-name="Caminho 129" d="M401.692,677.852c0,8.512-6.354,15.417-14.191,15.417s-14.191-6.905-14.191-15.417,6.354-15.419,14.191-15.419,14.191,6.9,14.191,15.419" transform="translate(3.87 19.518)" fill="#e52d1f"/>
    <path id="Caminho_130" data-name="Caminho 130" d="M424.42,720.593c0,8.513-6.354,15.418-14.191,15.418s-14.192-6.9-14.192-15.418,6.354-15.419,14.192-15.419,14.191,6.905,14.191,15.419" transform="translate(4.619 20.928)" fill="#e52d1f"/>
    <path id="Caminho_131" data-name="Caminho 131" d="M396.265,749.425c0,8.513-6.354,15.419-14.191,15.419s-14.191-6.906-14.191-15.419,6.354-15.417,14.191-15.417,14.191,6.9,14.191,15.417" transform="translate(3.691 21.878)" fill="#e52d1f"/>
    <path id="Caminho_132" data-name="Caminho 132" d="M448.842,604.244c0,8.514-6.354,15.418-14.191,15.418s-14.191-6.9-14.191-15.418,6.353-15.418,14.191-15.418,14.191,6.9,14.191,15.418" transform="translate(5.425 17.091)" fill="#e52d1f"/>
    <path id="Caminho_133" data-name="Caminho 133" d="M501.419,606.958c0,8.512-6.354,15.417-14.192,15.417s-14.19-6.9-14.19-15.417,6.353-15.418,14.19-15.418,14.192,6.9,14.192,15.418" transform="translate(7.158 17.181)" fill="#e52d1f"/>
    <path id="Caminho_134" data-name="Caminho 134" d="M499.918,612.8a14.172,14.172,0,0,1-12.854,8.874,13.469,13.469,0,0,1-9.06-3.551" transform="translate(7.322 17.881)" fill="#e52d1f"/>
    <path id="Caminho_135" data-name="Caminho 135" d="M458.227,683.846c0,8.514-6.354,15.417-14.191,15.417s-14.191-6.9-14.191-15.417,6.354-15.417,14.191-15.417,14.191,6.9,14.191,15.417" transform="translate(5.734 19.716)" fill="#e52d1f"/>
    <path id="Caminho_136" data-name="Caminho 136" d="M420.348,558.112c0,8.512-6.353,15.417-14.191,15.417s-14.191-6.9-14.191-15.417,6.354-15.418,14.191-15.418,14.191,6.9,14.191,15.418" transform="translate(4.485 15.57)" fill="#e52d1f"/>
    <path id="Caminho_137" data-name="Caminho 137" d="M403.494,542.893a13.2,13.2,0,0,1,2.283-.2c7.837,0,14.191,6.9,14.191,15.415a15.849,15.849,0,0,1-5.9,12.517" transform="translate(4.865 15.569)" fill="#e52d1f"/>
    <path id="Caminho_138" data-name="Caminho 138" d="M403.049,518.764c0,8.513-6.353,15.418-14.191,15.418s-14.191-6.9-14.191-15.418,6.354-15.418,14.191-15.418,14.191,6.9,14.191,15.418" transform="translate(3.915 14.272)" fill="#e52d1f"/>
    <path id="Caminho_139" data-name="Caminho 139" d="M394.1,504.683a15.543,15.543,0,0,1,8.311,14.036,16.27,16.27,0,0,1-2.674,9.01" transform="translate(4.555 14.316)" fill="#e52d1f"/>
    <path id="Caminho_140" data-name="Caminho 140" d="M391.177,437.014c0,8.514-6.353,15.417-14.191,15.417s-14.191-6.9-14.191-15.417,6.354-15.417,14.191-15.417,14.191,6.9,14.191,15.417" transform="translate(3.523 11.577)" fill="#e52d1f"/>
    <path id="Caminho_141" data-name="Caminho 141" d="M373.763,421.91a13.159,13.159,0,0,1,2.86-.314c7.837,0,14.191,6.9,14.191,15.418,0,6.806-4.061,12.585-9.695,14.627" transform="translate(3.885 11.577)" fill="#e52d1f"/>
    <path id="Caminho_142" data-name="Caminho 142" d="M385.41,372.225c0,8.514-6.354,15.417-14.191,15.417s-14.191-6.9-14.191-15.417,6.354-15.417,14.191-15.417,14.191,6.9,14.191,15.417" transform="translate(3.333 9.44)" fill="#e52d1f"/>
    <path id="Caminho_143" data-name="Caminho 143" d="M383.382,364.839a16.431,16.431,0,0,1,1.6,7.121c0,8.514-6.354,15.417-14.191,15.417-.275,0-.549-.007-.819-.025" transform="translate(3.76 9.705)" fill="#e52d1f"/>
    <path id="Caminho_144" data-name="Caminho 144" d="M419.33,335.252c0,8.514-6.353,15.417-14.191,15.417s-14.191-6.9-14.191-15.417,6.354-15.417,14.191-15.417,14.191,6.9,14.191,15.417" transform="translate(4.452 8.221)" fill="#e52d1f"/>
    <path id="Caminho_145" data-name="Caminho 145" d="M469.872,343.732c0,8.513-6.354,15.417-14.191,15.417s-14.191-6.9-14.191-15.417,6.353-15.417,14.191-15.417,14.191,6.9,14.191,15.417" transform="translate(6.118 8.501)" fill="#e52d1f"/>
    <path id="Caminho_146" data-name="Caminho 146" d="M469.809,342.32c.017.315.027.631.027.95,0,8.513-6.353,15.417-14.19,15.417a14.234,14.234,0,0,1-13.077-9.417" transform="translate(6.154 8.963)" fill="#e52d1f"/>
    <path id="Caminho_147" data-name="Caminho 147" d="M455.74,377.2c0,8.513-6.354,15.417-14.191,15.417s-14.191-6.9-14.191-15.417,6.354-15.417,14.191-15.417,14.191,6.9,14.191,15.417" transform="translate(5.652 9.605)" fill="#e52d1f"/>
    <path id="Caminho_148" data-name="Caminho 148" d="M421.593,413.382c0,8.514-6.354,15.418-14.191,15.418s-14.191-6.9-14.191-15.418,6.354-15.417,14.191-15.417,14.191,6.9,14.191,15.417" transform="translate(4.526 10.797)" fill="#e52d1f"/>
    <path id="Caminho_149" data-name="Caminho 149" d="M474.509,417c0,8.513-6.354,15.417-14.191,15.417s-14.191-6.9-14.191-15.417,6.354-15.417,14.191-15.417,14.191,6.9,14.191,15.417" transform="translate(6.271 10.917)" fill="#e52d1f"/>
    <path id="Caminho_150" data-name="Caminho 150" d="M509.334,382.853c0,8.514-6.353,15.417-14.191,15.417s-14.192-6.9-14.192-15.417,6.354-15.417,14.192-15.417,14.191,6.9,14.191,15.417" transform="translate(7.42 9.791)" fill="#e52d1f"/>
    <path id="Caminho_151" data-name="Caminho 151" d="M527.877,421.523c0,8.514-6.353,15.417-14.191,15.417s-14.191-6.9-14.191-15.417,6.354-15.417,14.191-15.417,14.191,6.9,14.191,15.417" transform="translate(8.031 11.066)" fill="#e52d1f"/>
    <path id="Caminho_152" data-name="Caminho 152" d="M508.881,459.741c0,8.513-6.353,15.417-14.19,15.417s-14.192-6.9-14.192-15.417,6.354-15.417,14.192-15.417,14.19,6.9,14.19,15.417" transform="translate(7.404 12.326)" fill="#e52d1f"/>
    <path id="Caminho_153" data-name="Caminho 153" d="M574.462,424.915c0,8.514-6.354,15.417-14.191,15.417s-14.192-6.9-14.192-15.417,6.354-15.417,14.192-15.417,14.191,6.9,14.191,15.417" transform="translate(9.567 11.178)" fill="#e52d1f"/>
    <path id="Caminho_154" data-name="Caminho 154" d="M562.251,464.717c0,8.513-6.354,15.417-14.191,15.417s-14.191-6.9-14.191-15.417S540.223,449.3,548.06,449.3s14.191,6.9,14.191,15.417" transform="translate(9.164 12.49)" fill="#e52d1f"/>
    <path id="Caminho_155" data-name="Caminho 155" d="M462.976,456.575c0,8.514-6.354,15.418-14.191,15.418s-14.191-6.9-14.191-15.418,6.354-15.417,14.191-15.417,14.191,6.9,14.191,15.417" transform="translate(5.891 12.222)" fill="#e52d1f"/>
    <path id="Caminho_156" data-name="Caminho 156" d="M474.509,496.149c0,8.513-6.354,15.418-14.191,15.418s-14.191-6.905-14.191-15.418,6.354-15.418,14.191-15.418,14.191,6.905,14.191,15.418" transform="translate(6.271 13.527)" fill="#e52d1f"/>
    <path id="Caminho_157" data-name="Caminho 157" d="M453.93,521.928c0,8.514-6.352,15.419-14.191,15.419s-14.191-6.905-14.191-15.419,6.353-15.416,14.191-15.416,14.191,6.9,14.191,15.416" transform="translate(5.592 14.377)" fill="#e52d1f"/>
    <path id="Caminho_158" data-name="Caminho 158" d="M413.9,478.51c0,8.514-6.354,15.418-14.191,15.418s-14.191-6.9-14.191-15.418,6.354-15.417,14.191-15.417S413.9,470,413.9,478.51" transform="translate(4.273 12.945)" fill="#e52d1f"/>
    <path id="Caminho_159" data-name="Caminho 159" d="M515.44,538.438c0,8.513-6.354,15.417-14.192,15.417s-14.191-6.9-14.191-15.417,6.354-15.418,14.191-15.418,14.192,6.9,14.192,15.418" transform="translate(7.621 14.921)" fill="#e52d1f"/>
    <path id="Caminho_160" data-name="Caminho 160" d="M459.811,563.992c0,8.513-6.354,15.418-14.191,15.418s-14.192-6.9-14.192-15.418,6.354-15.418,14.192-15.418,14.191,6.9,14.191,15.418" transform="translate(5.786 15.764)" fill="#e52d1f"/>
    <path id="Caminho_161" data-name="Caminho 161" d="M467.726,644.045c0,8.513-6.353,15.418-14.191,15.418s-14.191-6.9-14.191-15.418,6.354-15.418,14.191-15.418,14.191,6.9,14.191,15.418" transform="translate(6.048 18.403)" fill="#e52d1f"/>
    <path id="Caminho_162" data-name="Caminho 162" d="M523.807,649.472c0,8.513-6.354,15.419-14.191,15.419s-14.191-6.906-14.191-15.419,6.354-15.417,14.191-15.417,14.191,6.9,14.191,15.417" transform="translate(7.897 18.582)" fill="#e52d1f"/>
    <path id="Caminho_163" data-name="Caminho 163" d="M511.595,688.821c0,8.513-6.354,15.417-14.19,15.417s-14.192-6.9-14.192-15.417S489.566,673.4,497.4,673.4s14.19,6.9,14.19,15.418" transform="translate(7.494 19.88)" fill="#e52d1f"/>
    <path id="Caminho_164" data-name="Caminho 164" d="M530.139,728.621c0,8.513-6.353,15.418-14.191,15.418s-14.191-6.905-14.191-15.418,6.354-15.417,14.191-15.417,14.191,6.9,14.191,15.417" transform="translate(8.105 21.192)" fill="#e52d1f"/>
    <path id="Caminho_165" data-name="Caminho 165" d="M564.511,691.987c0,8.513-6.353,15.418-14.191,15.418s-14.192-6.905-14.192-15.418,6.354-15.418,14.192-15.418,14.191,6.905,14.191,15.418" transform="translate(9.239 19.985)" fill="#e52d1f"/>
    <path id="Caminho_166" data-name="Caminho 166" d="M477.223,722.741c0,8.514-6.353,15.418-14.191,15.418s-14.191-6.9-14.191-15.418,6.354-15.418,14.191-15.418,14.191,6.9,14.191,15.418" transform="translate(6.361 20.999)" fill="#e52d1f"/>
    <path id="Caminho_167" data-name="Caminho 167" d="M731.853,406.6c0,8.514-6.353,15.417-14.192,15.417s-14.19-6.9-14.19-15.417,6.353-15.417,14.19-15.417,14.192,6.9,14.192,15.417" transform="translate(14.757 10.574)" fill="#e52d1f"/>
    <path id="Caminho_168" data-name="Caminho 168" d="M742.708,367.25c0,8.514-6.354,15.417-14.191,15.417s-14.191-6.9-14.191-15.417,6.354-15.417,14.191-15.417,14.191,6.9,14.191,15.417" transform="translate(15.115 9.276)" fill="#e52d1f"/>
    <path id="Caminho_169" data-name="Caminho 169" d="M678.485,402.075c0,8.515-6.353,15.418-14.191,15.418s-14.192-6.9-14.192-15.418,6.354-15.416,14.192-15.416,14.191,6.9,14.191,15.416" transform="translate(12.997 10.424)" fill="#e52d1f"/>
    <path id="Caminho_170" data-name="Caminho 170" d="M685.721,361.823c0,8.514-6.353,15.417-14.19,15.417s-14.192-6.9-14.192-15.417,6.354-15.417,14.192-15.417,14.19,6.9,14.19,15.417" transform="translate(13.236 9.097)" fill="#e52d1f"/>
    <path id="Caminho_171" data-name="Caminho 171" d="M720.547,324.737c0,8.513-6.354,15.417-14.19,15.417s-14.192-6.9-14.192-15.417,6.354-15.417,14.192-15.417,14.19,6.9,14.19,15.417" transform="translate(14.384 7.874)" fill="#e52d1f"/>
    <path id="Caminho_172" data-name="Caminho 172" d="M667.179,322.474c0,8.514-6.353,15.417-14.191,15.417s-14.191-6.9-14.191-15.417,6.354-15.417,14.191-15.417,14.191,6.9,14.191,15.417" transform="translate(12.624 7.8)" fill="#e52d1f"/>
    <path id="Caminho_173" data-name="Caminho 173" d="M679.842,282.675c0,8.514-6.354,15.417-14.19,15.417s-14.192-6.9-14.192-15.417,6.354-15.417,14.192-15.417,14.19,6.9,14.19,15.417" transform="translate(13.042 6.488)" fill="#e52d1f"/>
    <path id="Caminho_174" data-name="Caminho 174" d="M638.232,284.936c0,8.514-6.354,15.417-14.191,15.417s-14.191-6.9-14.191-15.417,6.354-15.417,14.191-15.417,14.191,6.9,14.191,15.417" transform="translate(11.67 6.562)" fill="#e52d1f"/>
    <path id="Caminho_175" data-name="Caminho 175" d="M649.541,244.232c0,8.514-6.355,15.417-14.192,15.417s-14.191-6.9-14.191-15.417,6.354-15.417,14.191-15.417,14.192,6.9,14.192,15.417" transform="translate(12.043 5.22)" fill="#e52d1f"/>
    <path id="Caminho_176" data-name="Caminho 176" d="M703.36,249.659c0,8.514-6.354,15.417-14.191,15.417s-14.192-6.9-14.192-15.417,6.354-15.417,14.192-15.417,14.191,6.9,14.191,15.417" transform="translate(13.818 5.399)" fill="#e52d1f"/>
    <path id="Caminho_177" data-name="Caminho 177" d="M737.733,213.476c0,8.514-6.353,15.417-14.19,15.417s-14.191-6.9-14.191-15.417,6.354-15.417,14.191-15.417,14.19,6.9,14.19,15.417" transform="translate(14.951 4.206)" fill="#e52d1f"/>
    <path id="Caminho_178" data-name="Caminho 178" d="M685.042,213.025c0,8.514-6.353,15.417-14.19,15.417s-14.192-6.9-14.192-15.417,6.354-15.417,14.192-15.417,14.19,6.9,14.19,15.417" transform="translate(13.213 4.191)" fill="#e52d1f"/>
    <path id="Caminho_179" data-name="Caminho 179" d="M526.974,499.09c0,8.514-6.354,15.418-14.191,15.418s-14.191-6.9-14.191-15.418,6.354-15.418,14.191-15.418,14.191,6.9,14.191,15.418" transform="translate(8.001 13.624)" fill="#e52d1f"/>
    <path id="Caminho_180" data-name="Caminho 180" d="M580.794,504.291c0,8.515-6.355,15.419-14.191,15.419s-14.191-6.9-14.191-15.419,6.353-15.417,14.191-15.417,14.191,6.9,14.191,15.417" transform="translate(9.776 13.795)" fill="#e52d1f"/>
    <path id="Caminho_181" data-name="Caminho 181" d="M561.8,385.343c0,8.513-6.354,15.417-14.192,15.417s-14.19-6.9-14.19-15.417,6.354-15.418,14.19-15.418,14.192,6.9,14.192,15.418" transform="translate(9.149 9.873)" fill="#e52d1f"/>
    <path id="Caminho_182" data-name="Caminho 182" d="M576.95,354.362c0,8.513-6.354,15.417-14.191,15.417s-14.192-6.9-14.192-15.417,6.354-15.417,14.192-15.417,14.191,6.9,14.191,15.417" transform="translate(9.649 8.851)" fill="#e52d1f"/>
    <path id="Caminho_183" data-name="Caminho 183" d="M521.093,342.036c0,8.514-6.353,15.417-14.191,15.417s-14.191-6.9-14.191-15.417,6.354-15.417,14.191-15.417,14.191,6.9,14.191,15.417" transform="translate(7.807 8.445)" fill="#e52d1f"/>
    <path id="Caminho_184" data-name="Caminho 184" d="M516.845,330.9a16.053,16.053,0,0,1,4.247,11c0,8.514-6.353,15.417-14.19,15.417s-14.191-6.9-14.191-15.417a16.6,16.6,0,0,1,.848-5.263" transform="translate(7.807 8.586)" fill="#e52d1f"/>
    <path id="Caminho_185" data-name="Caminho 185" d="M621.159,396.988c0,8.514-6.353,15.417-14.192,15.417s-14.19-6.9-14.19-15.417,6.354-15.417,14.19-15.417,14.192,6.9,14.192,15.417" transform="translate(11.107 10.257)" fill="#e52d1f"/>
    <path id="Caminho_186" data-name="Caminho 186" d="M432.516,674.712a13.84,13.84,0,0,1,11.432-6.282c7.837,0,14.191,6.9,14.191,15.417s-6.354,15.417-14.191,15.417a13.161,13.161,0,0,1-5.525-1.213" transform="translate(5.822 19.716)" fill="#e52d1f"/>
    <path id="Caminho_187" data-name="Caminho 187" d="M465.8,763.672c0,8.512-6.354,15.417-14.192,15.417s-14.191-6.9-14.191-15.417,6.354-15.418,14.191-15.418,14.192,6.9,14.192,15.418" transform="translate(5.984 22.348)" fill="#e52d1f"/>
    <path id="Caminho_188" data-name="Caminho 188" d="M450.537,748.271c.214-.012.428-.016.643-.016,7.836,0,14.19,6.9,14.19,15.418a15.6,15.6,0,0,1-7.8,13.766" transform="translate(6.417 22.348)" fill="#e52d1f"/>
    <path id="Caminho_189" data-name="Caminho 189" d="M685.23,478.663a16.772,16.772,0,0,1,.351,3.422c0,8.514-6.354,15.417-14.189,15.417-6.122,0-11.342-4.215-13.331-10.118" transform="translate(13.26 13.458)" fill="#e52d1f"/>
    <path id="Caminho_190" data-name="Caminho 190" d="M632.243,207.312c-.54,7.978-6.67,14.268-14.151,14.268a13.966,13.966,0,0,1-12.012-7.206" transform="translate(11.545 4.511)" fill="#e52d1f"/>
    <path id="Caminho_191" data-name="Caminho 191" d="M592.539,230.907a16.014,16.014,0,0,1,4.509,11.27,15.8,15.8,0,0,1-6.257,12.783" transform="translate(11.041 5.289)" fill="#e52d1f"/>
    <path id="Caminho_192" data-name="Caminho 192" d="M784.657,409.2c0,8.514-6.352,15.417-14.191,15.417s-14.191-6.9-14.191-15.417,6.354-15.417,14.191-15.417,14.191,6.9,14.191,15.417" transform="translate(16.498 10.659)" fill="#e52d1f"/>
    <path id="Caminho_193" data-name="Caminho 193" d="M756.882,413.671a16.659,16.659,0,0,1-.607-4.472c0-8.513,6.354-15.417,14.191-15.417,7.106,0,12.991,5.676,14.029,13.082" transform="translate(16.498 10.659)" fill="#e52d1f"/>
    <path id="Caminho_194" data-name="Caminho 194" d="M696.124,440.406c0,8.513-6.354,15.417-14.192,15.417s-14.19-6.9-14.19-15.417,6.353-15.417,14.19-15.417,14.192,6.9,14.192,15.417" transform="translate(13.579 11.688)" fill="#e52d1f"/>
    <path id="Caminho_195" data-name="Caminho 195" d="M668.626,434.956c2.026-5.824,7.207-9.967,13.278-9.967a13.58,13.58,0,0,1,9.854,4.323" transform="translate(13.608 11.688)" fill="#e52d1f"/>
    <path id="Caminho_196" data-name="Caminho 196" d="M633.031,355.944c0,8.513-6.354,15.417-14.191,15.417s-14.191-6.9-14.191-15.417S611,340.527,618.84,340.527s14.191,6.9,14.191,15.417" transform="translate(11.498 8.903)" fill="#e52d1f"/>
    <path id="Caminho_197" data-name="Caminho 197" d="M612.291,342.124a13.227,13.227,0,0,1,6.3-1.6c7.837,0,14.189,6.9,14.189,15.417,0,8.16-5.835,14.842-13.221,15.382" transform="translate(11.75 8.903)" fill="#e52d1f"/>
    <path id="Caminho_198" data-name="Caminho 198" d="M615.393,316.935c0,8.513-6.354,15.417-14.192,15.417s-14.192-6.9-14.192-15.417,6.354-15.417,14.192-15.417,14.192,6.9,14.192,15.417" transform="translate(10.917 7.617)" fill="#e52d1f"/>
    <path id="Caminho_199" data-name="Caminho 199" d="M602.439,301.63c7.013.935,12.444,7.429,12.444,15.3a15.849,15.849,0,0,1-5.836,12.463" transform="translate(11.425 7.621)" fill="#e52d1f"/>
  </g>
</svg>
