<svg xmlns="http://www.w3.org/2000/svg" xmlns:xlink="http://www.w3.org/1999/xlink" width="233" height="282" viewBox="0 0 233 282">
  <defs>
    <clipPath id="clip-path">
      <rect id="Retângulo_69" data-name="Retângulo 69" width="233" height="282" transform="translate(1687 5639)" fill="#fff" stroke="#707070" stroke-width="1"/>
    </clipPath>
  </defs>
  <g id="detalhe_footer_antigo_pequeno" transform="translate(-1687 -5639)" clip-path="url(#clip-path)">
    <g id="Grupo_29" data-name="Grupo 29" transform="translate(1431.208 5568.928)">
      <path id="Caminho_58" data-name="Caminho 58" d="M544.79,670.207c2.5,10.273-1.545,20.083-9.039,21.907l-70.4,17.152c-7.493,1.826-15.6-5.021-18.1-15.3l-16.382-67.251c-2.5-10.272,1.546-20.083,9.038-21.911l70.4-17.151c7.493-1.823,15.6,5.025,18.1,15.3Z" transform="translate(-92.344 -274.015)" fill="#fff"/>
      <path id="Caminho_59" data-name="Caminho 59" d="M760.526,528.418c2.5,10.273-1.545,20.083-9.039,21.907l-70.4,17.151c-7.493,1.827-15.6-5.021-18.1-15.3L646.6,484.93c-2.5-10.271,1.546-20.083,9.039-21.91l70.4-17.151c7.494-1.823,15.6,5.025,18.1,15.3Z" transform="translate(-206.72 -198.844)" fill="#fff"/>
      <path id="Caminho_60" data-name="Caminho 60" d="M483.733,407.407c2.5,10.273-1.545,20.083-9.039,21.907l-70.4,17.151c-7.493,1.827-15.6-5.02-18.1-15.3l-16.382-67.251c-2.5-10.272,1.545-20.083,9.038-21.91l70.4-17.151c7.493-1.823,15.6,5.026,18.1,15.3Z" transform="translate(-59.974 -134.687)" fill="#fff"/>
      <path id="Caminho_61" data-name="Caminho 61" d="M703.577,258.559c2.551,10.309-1.36,20.146-8.73,21.968l-69.253,17.132c-7.371,1.825-15.416-5.053-17.966-15.363l-16.695-67.484c-2.552-10.307,1.359-20.146,8.729-21.972l69.254-17.132c7.371-1.821,15.415,5.058,17.966,15.367Z" transform="translate(-177.186 -55.614)" fill="#fff"/>
      <path id="Caminho_83" data-name="Caminho 83" d="M412.507,211.856a6.477,6.477,0,1,1-6.454-7.012,6.751,6.751,0,0,1,6.454,7.012" transform="translate(-76.161 -71.216)" fill="#fff"/>
      <path id="Caminho_84" data-name="Caminho 84" d="M359.591,209.481a6.477,6.477,0,1,1-6.454-7.012,6.751,6.751,0,0,1,6.454,7.012" transform="translate(-48.106 -69.957)" fill="#fff"/>
      <path id="Caminho_85" data-name="Caminho 85" d="M339.917,242.045a6.477,6.477,0,1,1-6.455-7.012,6.751,6.751,0,0,1,6.455,7.012" transform="translate(-37.676 -87.221)" fill="#fff"/>
      <path id="Caminho_86" data-name="Caminho 86" d="M401.144,252.561a6.477,6.477,0,1,1-6.454-7.012,6.751,6.751,0,0,1,6.454,7.012" transform="translate(-70.137 -92.796)" fill="#fff"/>
      <path id="Caminho_87" data-name="Caminho 87" d="M447.277,255.613a6.477,6.477,0,1,1-6.455-7.012,6.751,6.751,0,0,1,6.455,7.012" transform="translate(-94.595 -94.414)" fill="#fff"/>
      <path id="Caminho_88" data-name="Caminho 88" d="M465.254,294.284a6.477,6.477,0,1,1-6.454-7.012,6.751,6.751,0,0,1,6.454,7.012" transform="translate(-104.126 -114.916)" fill="#fff"/>
      <path id="Caminho_89" data-name="Caminho 89" d="M501.21,260.7a6.477,6.477,0,1,1-6.455-7.012,6.751,6.751,0,0,1,6.455,7.012" transform="translate(-123.188 -97.112)" fill="#fff"/>
      <path id="Caminho_90" data-name="Caminho 90" d="M518.85,299.371a6.477,6.477,0,1,1-6.455-7.012,6.751,6.751,0,0,1,6.455,7.012" transform="translate(-132.54 -117.614)" fill="#fff"/>
      <path id="Caminho_91" data-name="Caminho 91" d="M512.065,220a6.477,6.477,0,1,1-6.455-7.012A6.751,6.751,0,0,1,512.065,220" transform="translate(-128.943 -75.532)" fill="#fff"/>
      <path id="Caminho_92" data-name="Caminho 92" d="M559.214,192.182a6.477,6.477,0,1,1-6.454-7.012,6.751,6.751,0,0,1,6.454,7.012" transform="translate(-153.94 -60.785)" fill="#fff"/>
      <path id="Caminho_93" data-name="Caminho 93" d="M553.109,263.076a6.477,6.477,0,1,1-6.454-7.012,6.751,6.751,0,0,1,6.454,7.012" transform="translate(-150.704 -98.371)" fill="#fff"/>
      <path id="Caminho_94" data-name="Caminho 94" d="M560.233,303.781a6.477,6.477,0,1,1-6.455-7.012,6.751,6.751,0,0,1,6.455,7.012" transform="translate(-154.48 -119.952)" fill="#fff"/>
      <path id="Caminho_95" data-name="Caminho 95" d="M582.281,233.9a6.477,6.477,0,1,1-6.455-7.012,6.751,6.751,0,0,1,6.455,7.012" transform="translate(-166.17 -82.905)" fill="#fff"/>
      <path id="Caminho_96" data-name="Caminho 96" d="M616.88,198.287a6.477,6.477,0,1,1-6.454-7.012,6.751,6.751,0,0,1,6.454,7.012" transform="translate(-184.513 -64.022)" fill="#fff"/>
      <path id="Caminho_97" data-name="Caminho 97" d="M681.668,162.671a6.477,6.477,0,1,1-6.454-7.012,6.751,6.751,0,0,1,6.454,7.012" transform="translate(-218.862 -45.14)" fill="#fff"/>
      <path id="Caminho_98" data-name="Caminho 98" d="M624.682,157.243a6.477,6.477,0,1,1-6.455-7.012,6.751,6.751,0,0,1,6.455,7.012" transform="translate(-188.65 -42.262)" fill="#fff"/>
      <path id="Caminho_99" data-name="Caminho 99" d="M571.087,151.137a6.477,6.477,0,1,1-6.455-7.012,6.751,6.751,0,0,1,6.455,7.012" transform="translate(-160.235 -39.025)" fill="#fff"/>
      <path id="Caminho_100" data-name="Caminho 100" d="M605.686,118.235a6.477,6.477,0,1,1-6.455-7.012,6.751,6.751,0,0,1,6.455,7.012" transform="translate(-178.578 -21.581)" fill="#fff"/>
      <path id="Caminho_101" data-name="Caminho 101" d="M617.558,77.529a6.477,6.477,0,1,1-6.455-7.012,6.751,6.751,0,0,1,6.455,7.012" transform="translate(-184.873 0)" fill="#fff"/>
      <path id="Caminho_102" data-name="Caminho 102" d="M658.941,120.27a6.477,6.477,0,1,1-6.455-7.012,6.751,6.751,0,0,1,6.455,7.012" transform="translate(-206.813 -22.66)" fill="#fff"/>
      <path id="Caminho_103" data-name="Caminho 103" d="M598.9,458.8a6.477,6.477,0,1,1-6.454-7.013A6.751,6.751,0,0,1,598.9,458.8" transform="translate(-174.982 -202.137)" fill="#fff"/>
      <path id="Caminho_104" data-name="Caminho 104" d="M596.176,464.524a6.082,6.082,0,0,1-3.729,1.288,7.036,7.036,0,0,1,0-14.024,5.988,5.988,0,0,1,.66.036" transform="translate(-174.982 -201.137)" fill="#ee3325"/>
      <path id="Caminho_105" data-name="Caminho 105" d="M627.735,430.984a6.477,6.477,0,1,1-6.455-7.012,6.751,6.751,0,0,1,6.455,7.012" transform="translate(-190.268 -187.391)" fill="#fff"/>
      <path id="Caminho_106" data-name="Caminho 106" d="M670.135,474.063a6.477,6.477,0,1,1-6.454-7.012,6.752,6.752,0,0,1,6.454,7.012" transform="translate(-212.747 -210.23)" fill="#fff"/>
      <path id="Caminho_107" data-name="Caminho 107" d="M734.585,437.768a6.477,6.477,0,1,1-6.455-7.012,6.751,6.751,0,0,1,6.455,7.012" transform="translate(-246.917 -190.987)" fill="#fff"/>
      <path id="Caminho_108" data-name="Caminho 108" d="M362.814,284.106a6.477,6.477,0,1,1-6.455-7.012,6.752,6.752,0,0,1,6.455,7.012" transform="translate(-49.815 -109.521)" fill="#fff"/>
      <path id="Caminho_109" data-name="Caminho 109" d="M412.338,291.908a6.477,6.477,0,1,1-6.454-7.012,6.751,6.751,0,0,1,6.454,7.012" transform="translate(-76.071 -113.657)" fill="#fff"/>
      <path id="Caminho_110" data-name="Caminho 110" d="M297.347,318.706a6.477,6.477,0,1,1-6.455-7.012,6.751,6.751,0,0,1,6.455,7.012" transform="translate(-15.107 -127.865)" fill="#fff"/>
      <path id="Caminho_111" data-name="Caminho 111" d="M350.942,324.472a6.477,6.477,0,1,1-6.455-7.012,6.751,6.751,0,0,1,6.455,7.012" transform="translate(-43.521 -130.921)" fill="#fff"/>
      <path id="Caminho_112" data-name="Caminho 112" d="M315.325,357.715a6.477,6.477,0,1,1-6.454-7.012,6.751,6.751,0,0,1,6.454,7.012" transform="translate(-24.638 -148.546)" fill="#fff"/>
      <path id="Caminho_113" data-name="Caminho 113" d="M334.32,386.208a6.477,6.477,0,1,1-6.455-7.012,6.751,6.751,0,0,1,6.455,7.012" transform="translate(-34.709 -163.652)" fill="#fff"/>
      <path id="Caminho_114" data-name="Caminho 114" d="M303.792,398.08a6.477,6.477,0,1,1-6.454-7.012,6.751,6.751,0,0,1,6.454,7.012" transform="translate(-18.524 -169.946)" fill="#fff"/>
      <path id="Caminho_115" data-name="Caminho 115" d="M322.109,425.9a6.477,6.477,0,1,1-6.454-7.012,6.751,6.751,0,0,1,6.454,7.012" transform="translate(-28.235 -184.693)" fill="#fff"/>
      <path id="Caminho_116" data-name="Caminho 116" d="M268.853,420.807A6.477,6.477,0,1,1,262.4,413.8a6.751,6.751,0,0,1,6.454,7.012" transform="translate(0 -181.995)" fill="#fff"/>
      <path id="Caminho_117" data-name="Caminho 117" d="M286.831,459.138a6.477,6.477,0,1,1-6.455-7.012,6.752,6.752,0,0,1,6.455,7.012" transform="translate(-9.531 -202.317)" fill="#fff"/>
      <path id="Caminho_118" data-name="Caminho 118" d="M340.426,465.243a6.477,6.477,0,1,1-6.455-7.012,6.751,6.751,0,0,1,6.455,7.012" transform="translate(-37.946 -205.554)" fill="#fff"/>
      <path id="Caminho_119" data-name="Caminho 119" d="M332.963,505.27a6.477,6.477,0,1,1-6.455-7.012,6.751,6.751,0,0,1,6.455,7.012" transform="translate(-33.989 -226.775)" fill="#fff"/>
      <path id="Caminho_120" data-name="Caminho 120" d="M274.959,499.5a6.477,6.477,0,1,1-6.454-7.012,6.752,6.752,0,0,1,6.454,7.012" transform="translate(-3.237 -223.717)" fill="#fff"/>
      <path id="Caminho_121" data-name="Caminho 121" d="M350.942,544.618a6.477,6.477,0,1,1-6.455-7.013,6.751,6.751,0,0,1,6.455,7.013" transform="translate(-43.521 -247.635)" fill="#fff"/>
      <path id="Caminho_122" data-name="Caminho 122" d="M308.541,583.288a6.477,6.477,0,1,1-6.455-7.013,6.751,6.751,0,0,1,6.455,7.013" transform="translate(-21.041 -268.137)" fill="#fff"/>
      <path id="Caminho_123" data-name="Caminho 123" d="M286.153,616.19a6.477,6.477,0,1,1-6.454-7.012,6.751,6.751,0,0,1,6.454,7.012" transform="translate(-9.172 -285.581)" fill="#fff"/>
      <path id="Caminho_124" data-name="Caminho 124" d="M339.069,584.645a6.477,6.477,0,1,1-6.455-7.013,6.751,6.751,0,0,1,6.455,7.013" transform="translate(-37.226 -268.856)" fill="#fff"/>
      <path id="Caminho_125" data-name="Caminho 125" d="M345.175,627.045a6.477,6.477,0,1,1-6.454-7.012,6.752,6.752,0,0,1,6.454,7.012" transform="translate(-40.464 -291.336)" fill="#fff"/>
      <path id="Caminho_126" data-name="Caminho 126" d="M327.536,658.931a6.477,6.477,0,1,1-6.455-7.012,6.751,6.751,0,0,1,6.455,7.012" transform="translate(-31.112 -308.241)" fill="#fff"/>
      <path id="Caminho_127" data-name="Caminho 127" d="M379.435,590.751a6.477,6.477,0,1,1-6.455-7.013,6.751,6.751,0,0,1,6.455,7.013" transform="translate(-58.627 -272.093)" fill="#fff"/>
      <path id="Caminho_128" data-name="Caminho 128" d="M397.413,630.438a6.477,6.477,0,1,1-6.455-7.013,6.751,6.751,0,0,1,6.455,7.013" transform="translate(-68.159 -293.134)" fill="#fff"/>
      <path id="Caminho_129" data-name="Caminho 129" d="M386.219,669.446a6.477,6.477,0,1,1-6.454-7.013,6.752,6.752,0,0,1,6.454,7.013" transform="translate(-62.224 -313.815)" fill="#fff"/>
      <path id="Caminho_130" data-name="Caminho 130" d="M408.946,712.187a6.477,6.477,0,1,1-6.454-7.013,6.752,6.752,0,0,1,6.454,7.013" transform="translate(-74.273 -336.475)" fill="#0083ca"/>
      <path id="Caminho_131" data-name="Caminho 131" d="M380.792,741.02a6.477,6.477,0,1,1-6.454-7.012,6.752,6.752,0,0,1,6.454,7.012" transform="translate(-59.347 -351.762)" fill="#0083ca"/>
      <path id="Caminho_132" data-name="Caminho 132" d="M433.369,595.838a6.477,6.477,0,1,1-6.455-7.012,6.752,6.752,0,0,1,6.455,7.012" transform="translate(-87.221 -274.791)" fill="#fff"/>
      <path id="Caminho_133" data-name="Caminho 133" d="M485.946,598.553a6.477,6.477,0,1,1-6.455-7.013,6.752,6.752,0,0,1,6.455,7.013" transform="translate(-115.096 -276.23)" fill="#fff"/>
      <path id="Caminho_134" data-name="Caminho 134" d="M487.972,612.8a6.446,6.446,0,0,1-5.846,4.036,6.126,6.126,0,0,1-4.121-1.615" transform="translate(-117.73 -287.501)" fill="#ee3325"/>
      <path id="Caminho_135" data-name="Caminho 135" d="M442.754,675.441a6.477,6.477,0,1,1-6.455-7.012,6.751,6.751,0,0,1,6.455,7.012" transform="translate(-92.197 -316.994)" fill="#0083ca"/>
      <path id="Caminho_136" data-name="Caminho 136" d="M404.875,549.707a6.477,6.477,0,1,1-6.455-7.012,6.751,6.751,0,0,1,6.455,7.012" transform="translate(-72.115 -250.333)" fill="#fff"/>
      <path id="Caminho_137" data-name="Caminho 137" d="M403.494,542.785a6.007,6.007,0,0,1,1.039-.09,6.751,6.751,0,0,1,6.455,7.011A7.209,7.209,0,0,1,408.3,555.4" transform="translate(-78.226 -249.334)" fill="#ee3325"/>
      <path id="Caminho_138" data-name="Caminho 138" d="M387.576,510.359a6.477,6.477,0,1,1-6.454-7.012,6.751,6.751,0,0,1,6.454,7.012" transform="translate(-62.943 -229.472)" fill="#fff"/>
      <path id="Caminho_139" data-name="Caminho 139" d="M394.1,504.683a7.069,7.069,0,0,1,3.78,6.384,7.4,7.4,0,0,1-1.216,4.1" transform="translate(-71.244 -229.181)" fill="#ee3325"/>
      <path id="Caminho_140" data-name="Caminho 140" d="M375.7,428.609a6.477,6.477,0,1,1-6.455-7.012,6.751,6.751,0,0,1,6.455,7.012" transform="translate(-56.649 -186.132)" fill="#fff"/>
      <path id="Caminho_141" data-name="Caminho 141" d="M373.763,421.739a5.985,5.985,0,0,1,1.3-.143,6.751,6.751,0,0,1,6.454,7.013,6.989,6.989,0,0,1-4.41,6.653" transform="translate(-60.464 -189.131)" fill="#ee3325"/>
      <path id="Caminho_142" data-name="Caminho 142" d="M369.937,363.82a6.477,6.477,0,1,1-6.455-7.012,6.751,6.751,0,0,1,6.455,7.012" transform="translate(-53.592 -151.783)" fill="#fff"/>
      <path id="Caminho_143" data-name="Caminho 143" d="M376.072,364.839a7.474,7.474,0,0,1,.728,3.239,6.751,6.751,0,0,1-6.455,7.012c-.125,0-.25,0-.373-.011" transform="translate(-58.455 -159.04)" fill="#ee3325"/>
      <path id="Caminho_144" data-name="Caminho 144" d="M403.857,326.847a6.477,6.477,0,1,1-6.455-7.012,6.751,6.751,0,0,1,6.455,7.012" transform="translate(-71.575 -132.181)" fill="#fff"/>
      <path id="Caminho_145" data-name="Caminho 145" d="M454.4,335.327a6.477,6.477,0,1,1-6.454-7.012,6.752,6.752,0,0,1,6.454,7.012" transform="translate(-98.371 -136.676)" fill="#fff"/>
      <path id="Caminho_146" data-name="Caminho 146" d="M454.959,342.32c.008.143.012.287.012.432a6.751,6.751,0,0,1-6.454,7.012,6.474,6.474,0,0,1-5.948-4.283" transform="translate(-96.943 -147.101)" fill="#ee3325"/>
      <path id="Caminho_147" data-name="Caminho 147" d="M440.267,368.8a6.477,6.477,0,1,1-6.455-7.012,6.751,6.751,0,0,1,6.455,7.012" transform="translate(-88.878 -157.421)" fill="#ee3325"/>
      <path id="Caminho_148" data-name="Caminho 148" d="M406.12,404.977a6.477,6.477,0,1,1-6.454-7.012,6.751,6.751,0,0,1,6.454,7.012" transform="translate(-70.775 -176.603)" fill="#ee3325"/>
      <path id="Caminho_149" data-name="Caminho 149" d="M459.036,408.6a6.477,6.477,0,1,1-6.454-7.012,6.751,6.751,0,0,1,6.454,7.012" transform="translate(-98.829 -174.521)" fill="#ee3325"/>
      <path id="Caminho_150" data-name="Caminho 150" d="M493.861,374.448a6.477,6.477,0,1,1-6.454-7.012,6.751,6.751,0,0,1,6.454,7.012" transform="translate(-119.292 -156.417)" fill="#ee3325"/>
      <path id="Caminho_151" data-name="Caminho 151" d="M512.4,413.118a6.477,6.477,0,1,1-6.454-7.012,6.751,6.751,0,0,1,6.454,7.012" transform="translate(-129.123 -176.918)" fill="#ee3325"/>
      <path id="Caminho_152" data-name="Caminho 152" d="M493.408,451.336a6.477,6.477,0,1,1-6.454-7.012,6.751,6.751,0,0,1,6.454,7.012" transform="translate(-119.052 -197.181)" fill="#ee3325"/>
      <path id="Caminho_153" data-name="Caminho 153" d="M558.989,416.51a6.477,6.477,0,1,1-6.454-7.012,6.751,6.751,0,0,1,6.454,7.012" transform="translate(-153.821 -178.717)" fill="#ee3325"/>
      <path id="Caminho_154" data-name="Caminho 154" d="M546.778,456.312a6.477,6.477,0,1,1-6.454-7.012,6.751,6.751,0,0,1,6.454,7.012" transform="translate(-147.347 -199.819)" fill="#ee3325"/>
      <path id="Caminho_155" data-name="Caminho 155" d="M447.5,448.17a6.477,6.477,0,1,1-6.454-7.012,6.751,6.751,0,0,1,6.454,7.012" transform="translate(-92.715 -195.502)" fill="#ee3325"/>
      <path id="Caminho_156" data-name="Caminho 156" d="M459.036,487.743a6.477,6.477,0,1,1-6.454-7.012,6.752,6.752,0,0,1,6.454,7.012" transform="translate(-100.829 -216.482)" fill="#ee3325"/>
      <path id="Caminho_157" data-name="Caminho 157" d="M438.457,513.524A6.477,6.477,0,1,1,432,506.512a6.751,6.751,0,0,1,6.455,7.012" transform="translate(-89.919 -230.151)" fill="#ee3325"/>
      <path id="Caminho_158" data-name="Caminho 158" d="M398.43,470.105a6.477,6.477,0,1,1-6.454-7.012,6.751,6.751,0,0,1,6.454,7.012" transform="translate(-66.698 -207.132)" fill="#ee3325"/>
      <path id="Caminho_159" data-name="Caminho 159" d="M499.967,530.032a6.477,6.477,0,1,1-6.455-7.013,6.752,6.752,0,0,1,6.455,7.013" transform="translate(-122.53 -238.903)" fill="#ee3325"/>
      <path id="Caminho_160" data-name="Caminho 160" d="M444.338,555.587a6.477,6.477,0,1,1-6.454-7.012,6.751,6.751,0,0,1,6.454,7.012" transform="translate(-93.036 -252.451)" fill="#ee3325"/>
      <path id="Caminho_161" data-name="Caminho 161" d="M452.252,635.64a6.477,6.477,0,1,1-6.455-7.012,6.751,6.751,0,0,1,6.455,7.012" transform="translate(-97.232 -295.892)" fill="#ee3325"/>
      <path id="Caminho_162" data-name="Caminho 162" d="M508.334,641.067a6.477,6.477,0,1,1-6.455-7.012,6.752,6.752,0,0,1,6.455,7.012" transform="translate(-126.965 -298.77)" fill="#ee3325"/>
      <path id="Caminho_163" data-name="Caminho 163" d="M496.122,680.415a6.477,6.477,0,1,1-6.454-7.013,6.751,6.751,0,0,1,6.454,7.013" transform="translate(-120.491 -319.631)" fill="#fff"/>
      <path id="Caminho_164" data-name="Caminho 164" d="M514.666,720.216a6.477,6.477,0,1,1-6.455-7.012,6.751,6.751,0,0,1,6.455,7.012" transform="translate(-130.322 -340.732)" fill="#fff"/>
      <path id="Caminho_165" data-name="Caminho 165" d="M549.038,683.582a6.477,6.477,0,1,1-6.454-7.012,6.751,6.751,0,0,1,6.454,7.012" transform="translate(-148.545 -321.31)" fill="#fff"/>
      <path id="Caminho_166" data-name="Caminho 166" d="M461.75,714.335a6.477,6.477,0,1,1-6.454-7.012,6.751,6.751,0,0,1,6.454,7.012" transform="translate(-102.268 -337.614)" fill="#fff"/>
      <path id="Caminho_167" data-name="Caminho 167" d="M716.38,398.194a6.477,6.477,0,1,1-6.455-7.012,6.751,6.751,0,0,1,6.455,7.012" transform="translate(-237.265 -170.006)" fill="#ee3325"/>
      <path id="Caminho_168" data-name="Caminho 168" d="M727.235,358.845a6.477,6.477,0,1,1-6.455-7.012,6.751,6.751,0,0,1,6.455,7.012" transform="translate(-243.02 -149.145)" fill="#ee3325"/>
      <path id="Caminho_169" data-name="Caminho 169" d="M663.012,393.671a6.477,6.477,0,1,1-6.454-7.012,6.751,6.751,0,0,1,6.454,7.012" transform="translate(-208.971 -167.609)" fill="#ee3325"/>
      <path id="Caminho_170" data-name="Caminho 170" d="M670.248,353.418a6.477,6.477,0,1,1-6.454-7.012,6.751,6.751,0,0,1,6.454,7.012" transform="translate(-212.807 -146.268)" fill="#ee3325"/>
      <path id="Caminho_171" data-name="Caminho 171" d="M705.074,316.332a6.477,6.477,0,1,1-6.454-7.012,6.751,6.751,0,0,1,6.454,7.012" transform="translate(-231.271 -126.606)" fill="#ee3325"/>
      <path id="Caminho_172" data-name="Caminho 172" d="M651.706,314.069a6.477,6.477,0,1,1-6.455-7.012,6.751,6.751,0,0,1,6.455,7.012" transform="translate(-202.977 -125.406)" fill="#ee3325"/>
      <path id="Caminho_173" data-name="Caminho 173" d="M664.369,274.27a6.477,6.477,0,1,1-6.454-7.012,6.751,6.751,0,0,1,6.454,7.012" transform="translate(-209.69 -104.306)" fill="#ee3325"/>
      <path id="Caminho_174" data-name="Caminho 174" d="M622.759,276.531a6.477,6.477,0,1,1-6.454-7.012,6.751,6.751,0,0,1,6.454,7.012" transform="translate(-187.63 -105.505)" fill="#ee3325"/>
      <path id="Caminho_175" data-name="Caminho 175" d="M634.068,235.827a6.477,6.477,0,1,1-6.455-7.012,6.751,6.751,0,0,1,6.455,7.012" transform="translate(-193.625 -83.925)" fill="#ee3325"/>
      <path id="Caminho_176" data-name="Caminho 176" d="M687.887,241.254a6.477,6.477,0,1,1-6.454-7.012,6.751,6.751,0,0,1,6.454,7.012" transform="translate(-222.159 -86.802)" fill="#ee3325"/>
      <path id="Caminho_177" data-name="Caminho 177" d="M722.261,205.071a6.477,6.477,0,1,1-6.454-7.012,6.751,6.751,0,0,1,6.454,7.012" transform="translate(-240.383 -67.619)" fill="#ee3325"/>
      <path id="Caminho_178" data-name="Caminho 178" d="M669.569,204.62a6.477,6.477,0,1,1-6.454-7.012,6.751,6.751,0,0,1,6.454,7.012" transform="translate(-212.447 -67.38)" fill="#ee3325"/>
      <path id="Caminho_179" data-name="Caminho 179" d="M511.5,490.685a6.477,6.477,0,1,1-6.455-7.012,6.751,6.751,0,0,1,6.455,7.012" transform="translate(-128.644 -218.042)" fill="#ee3325"/>
      <path id="Caminho_180" data-name="Caminho 180" d="M565.321,495.886a6.477,6.477,0,1,1-6.455-7.012,6.752,6.752,0,0,1,6.455,7.012" transform="translate(-157.178 -220.8)" fill="#ee3325"/>
      <path id="Caminho_181" data-name="Caminho 181" d="M546.325,376.937a6.477,6.477,0,1,1-6.455-7.012,6.751,6.751,0,0,1,6.455,7.012" transform="translate(-147.107 -157.736)" fill="#ee3325"/>
      <path id="Caminho_182" data-name="Caminho 182" d="M561.477,345.957a6.477,6.477,0,1,1-6.454-7.012,6.751,6.751,0,0,1,6.454,7.012" transform="translate(-155.14 -141.312)" fill="#ee3325"/>
      <path id="Caminho_183" data-name="Caminho 183" d="M505.62,333.631a6.477,6.477,0,1,1-6.455-7.012,6.751,6.751,0,0,1,6.455,7.012" transform="translate(-125.526 -135.777)" fill="#fff"/>
      <path id="Caminho_184" data-name="Caminho 184" d="M503.688,330.9a7.3,7.3,0,0,1,1.932,5,6.477,6.477,0,1,1-12.909,0,7.551,7.551,0,0,1,.386-2.394" transform="translate(-125.526 -137.045)" fill="#ee3325"/>
      <path id="Caminho_185" data-name="Caminho 185" d="M605.686,388.583a6.477,6.477,0,1,1-6.455-7.012,6.751,6.751,0,0,1,6.455,7.012" transform="translate(-178.578 -164.911)" fill="#fff"/>
      <path id="Caminho_186" data-name="Caminho 186" d="M432.516,671.287a6.3,6.3,0,0,1,5.2-2.857,7.036,7.036,0,0,1,0,14.024,5.986,5.986,0,0,1-2.513-.552" transform="translate(-93.613 -316.994)" fill="#ee3325"/>
      <path id="Caminho_187" data-name="Caminho 187" d="M450.329,755.267a6.477,6.477,0,1,1-6.455-7.012,6.752,6.752,0,0,1,6.455,7.012" transform="translate(-96.213 -359.315)" fill="#0083ca"/>
      <path id="Caminho_188" data-name="Caminho 188" d="M450.537,748.262c.1-.005.194-.007.292-.007a6.751,6.751,0,0,1,6.454,7.012,7.1,7.1,0,0,1-3.547,6.261" transform="translate(-103.167 -359.315)" fill="#fff"/>
      <path id="Caminho_189" data-name="Caminho 189" d="M670.418,478.663a7.63,7.63,0,0,1,.16,1.557,6.751,6.751,0,0,1-6.454,7.012,6.51,6.51,0,0,1-6.063-4.6" transform="translate(-213.189 -216.386)" fill="#ee3325"/>
      <path id="Caminho_190" data-name="Caminho 190" d="M617.98,207.312a6.7,6.7,0,0,1-6.436,6.49,6.352,6.352,0,0,1-5.464-3.278" transform="translate(-185.631 -72.524)" fill="#ee3325"/>
      <path id="Caminho_191" data-name="Caminho 191" d="M591.586,230.907a7.284,7.284,0,0,1,2.051,5.126,7.186,7.186,0,0,1-2.846,5.814" transform="translate(-177.526 -85.034)" fill="#ee3325"/>
      <path id="Caminho_192" data-name="Caminho 192" d="M769.184,400.794a6.477,6.477,0,1,1-6.454-7.012,6.75,6.75,0,0,1,6.454,7.012" transform="translate(-265.26 -171.385)" fill="#fff"/>
      <path id="Caminho_193" data-name="Caminho 193" d="M756.551,402.828a7.576,7.576,0,0,1-.276-2.034,6.751,6.751,0,0,1,6.455-7.012,6.65,6.65,0,0,1,6.381,5.95" transform="translate(-265.26 -171.385)" fill="#fff"/>
      <path id="Caminho_194" data-name="Caminho 194" d="M680.651,432a6.477,6.477,0,1,1-6.455-7.012A6.751,6.751,0,0,1,680.651,432" transform="translate(-218.323 -187.93)" fill="#fff"/>
      <path id="Caminho_195" data-name="Caminho 195" d="M668.626,429.523a6.5,6.5,0,0,1,6.039-4.533,6.176,6.176,0,0,1,4.482,1.966" transform="translate(-218.791 -187.93)" fill="#ee3325"/>
      <path id="Caminho_196" data-name="Caminho 196" d="M617.558,347.539a6.477,6.477,0,1,1-6.455-7.012,6.751,6.751,0,0,1,6.455,7.012" transform="translate(-184.873 -143.151)" fill="#fff"/>
      <path id="Caminho_197" data-name="Caminho 197" d="M612.291,341.254a6.016,6.016,0,0,1,2.865-.726,7.056,7.056,0,0,1,.441,14.009" transform="translate(-188.924 -143.151)" fill="#ee3325"/>
      <path id="Caminho_198" data-name="Caminho 198" d="M599.92,308.53a6.477,6.477,0,1,1-6.455-7.012,6.752,6.752,0,0,1,6.455,7.012" transform="translate(-175.521 -122.47)" fill="#fff"/>
      <path id="Caminho_199" data-name="Caminho 199" d="M602.439,301.63a6.838,6.838,0,0,1,5.66,6.96,7.208,7.208,0,0,1-2.654,5.668" transform="translate(-183.701 -122.529)" fill="#ee3325"/>
    </g>
  </g>
</svg>
