<svg xmlns="http://www.w3.org/2000/svg" width="124.046" height="123.582" viewBox="0 0 124.046 123.582">
  <g id="detalhe_footer_pequeno" transform="translate(-1770.804 -5448.162)">
    <path id="Caminho_235" data-name="Caminho 235" d="M196.341,601.741a22.3,22.3,0,1,0,22.3,22.3A22.3,22.3,0,0,0,196.341,601.741Z" transform="translate(1676.209 4925.402)" fill="#fff"/>
    <path id="Caminho_236" data-name="Caminho 236" d="M159.107,640.631a17.654,17.654,0,1,0-17.654-17.654A17.655,17.655,0,0,0,159.107,640.631Z" transform="translate(1666.519 4926.467)" fill="#fff"/>
    <path id="Caminho_237" data-name="Caminho 237" d="M125.813,634.92A13.009,13.009,0,1,0,112.8,621.912,13.008,13.008,0,0,0,125.813,634.92Z" transform="translate(1658 4927.532)" fill="#fff"/>
    <path id="Caminho_238" data-name="Caminho 238" d="M195.276,606.253A17.655,17.655,0,1,0,177.622,588.6,17.655,17.655,0,0,0,195.276,606.253Z" transform="translate(1677.274 4916.245)" fill="#fff"/>
    <circle id="Elipse_28" data-name="Elipse 28" cx="13.938" cy="13.938" r="13.938" transform="translate(1810.735 5491.928) rotate(-4.065)" fill="#fff"/>
    <circle id="Elipse_29" data-name="Elipse 29" cx="9.292" cy="9.292" r="9.292" transform="translate(1773.153 5497.159) rotate(-9.217)" fill="#fff"/>
    <circle id="Elipse_30" data-name="Elipse 30" cx="13.009" cy="13.009" r="13.009" transform="translate(1860.006 5448.162)" fill="#fff"/>
    <path id="Caminho_239" data-name="Caminho 239" d="M157.191,562.312a9.292,9.292,0,1,0-9.292-9.293A9.293,9.293,0,0,0,157.191,562.312Z" transform="translate(1668.436 4908.152)" fill="#fff"/>
    <path id="Caminho_240" data-name="Caminho 240" d="M124.428,559.455a6.969,6.969,0,1,0-6.969-6.969A6.969,6.969,0,0,0,124.428,559.455Z" transform="translate(1659.384 4908.684)" fill="#fff"/>
  </g>
</svg>
