<svg xmlns="http://www.w3.org/2000/svg" width="435.013" height="61.952" viewBox="0 0 435.013 61.952">
  <g id="new_logo_-_QC" data-name="new logo - QC" transform="translate(-109.994 -533.728)">
    <path id="Caminho_56" data-name="Caminho 56" d="M239.019,534H224.583a7.561,7.561,0,0,0-7.57,7.57v14.265a7.68,7.68,0,0,0,7.658,7.658h14.265a7.68,7.68,0,0,0,7.658-7.658V541.574A7.6,7.6,0,0,0,239.019,534Z" transform="translate(-74.883 32.187)" fill="#ee3325"/>
    <path id="Caminho_57" data-name="Caminho 57" d="M239.019,534H224.583a7.561,7.561,0,0,0-7.57,7.57v14.265a7.68,7.68,0,0,0,7.658,7.658h14.265a7.68,7.68,0,0,0,7.658-7.658V541.574A7.6,7.6,0,0,0,239.019,534Z" transform="translate(-106.849 32.187)" fill="#ee3325"/>
    <g id="Grupo_11" data-name="Grupo 11" transform="translate(187.155 533.728)">
      <path id="Caminho_38" data-name="Caminho 38" d="M422.776,583.785a22.262,22.262,0,0,1-6.809,7.96,24.026,24.026,0,0,1-10.07,4.22v8.312H395.475v-8.312a23.987,23.987,0,0,1-10.006-4.22,22.17,22.17,0,0,1-6.809-7.992,22.854,22.854,0,0,1-2.429-10.485,22.606,22.606,0,0,1,3.165-11.861,22.3,22.3,0,0,1,8.759-8.28,27.7,27.7,0,0,1,25.1,0,23.232,23.232,0,0,1,9.527,30.658Zm-10.549-1.854a16.163,16.163,0,0,0,.671-16.081,13.08,13.08,0,0,0-5.019-5.083,14.981,14.981,0,0,0-14.322,0,13.073,13.073,0,0,0-5.019,5.083,16.2,16.2,0,0,0,.639,16.048,12.779,12.779,0,0,0,6.681,4.987v-9.207h9.591v9.207A12.566,12.566,0,0,0,412.227,581.931Z" transform="translate(-376.23 -545.327)" fill="#0083ca"/>
      <path id="Caminho_39" data-name="Caminho 39" d="M601.853,588.1v34.4H592.39V618.41a13.23,13.23,0,0,1-4.731,3.421,14.9,14.9,0,0,1-5.946,1.183q-6.778,0-10.741-3.9t-3.964-11.573V588.1h9.974V606.07q0,8.312,6.969,8.312a7.491,7.491,0,0,0,5.754-2.334q2.173-2.333,2.174-6.937V588.1Z" transform="translate(-511.126 -572.183)" fill="#0083ca"/>
      <path id="Caminho_40" data-name="Caminho 40" d="M715.2,543.278a5.414,5.414,0,0,1,0-7.928,6.328,6.328,0,0,1,4.475-1.6,6.485,6.485,0,0,1,4.476,1.535,4.92,4.92,0,0,1,1.726,3.836,5.43,5.43,0,0,1-1.726,4.124,6.254,6.254,0,0,1-4.476,1.63A6.324,6.324,0,0,1,715.2,543.278Zm-.511,6.394h9.974v34.4h-9.974Z" transform="translate(-614.691 -533.751)" fill="#0083ca"/>
      <path id="Caminho_41" data-name="Caminho 41" d="M783.894,619.508a16.985,16.985,0,0,1-6.841-6.3,18.21,18.21,0,0,1,0-18.286,17,17,0,0,1,6.841-6.3,21.152,21.152,0,0,1,9.878-2.27,19.152,19.152,0,0,1,9.495,2.27,13.469,13.469,0,0,1,5.914,6.49l-7.736,4.156a8.457,8.457,0,0,0-7.736-4.731,8.754,8.754,0,0,0-6.458,2.557,10.774,10.774,0,0,0,0,13.939,8.75,8.75,0,0,0,6.458,2.558,8.368,8.368,0,0,0,7.736-4.732l7.736,4.22a13.739,13.739,0,0,1-5.914,6.394,18.931,18.931,0,0,1-9.495,2.3A21.142,21.142,0,0,1,783.894,619.508Z" transform="translate(-657.906 -570.948)" fill="#0083ca"/>
      <path id="Caminho_42" data-name="Caminho 42" d="M926.221,577.524l-4.8,4.732v8.759h-9.974V543.574h9.974v26.854L936,556.617H947.9L933.574,571.2l15.6,19.82H937.091Z" transform="translate(-754.679 -540.697)" fill="#0083ca"/>
      <path id="Caminho_43" data-name="Caminho 43" d="M1060.173,593.44a22.192,22.192,0,0,1-8.7-8.248,24.045,24.045,0,0,1,0-23.849,22.188,22.188,0,0,1,8.7-8.248,27.747,27.747,0,0,1,22.953-.927,21.083,21.083,0,0,1,7.9,5.882l-6.649,6.138a14.3,14.3,0,0,0-11.253-5.243,14.941,14.941,0,0,0-7.417,1.822,12.953,12.953,0,0,0-5.083,5.083,16,16,0,0,0,0,14.834,12.951,12.951,0,0,0,5.083,5.083,14.938,14.938,0,0,0,7.417,1.822,14.227,14.227,0,0,0,11.253-5.307l6.649,6.138a20.729,20.729,0,0,1-7.928,5.946,26.328,26.328,0,0,1-10.55,2.046A25.707,25.707,0,0,1,1060.173,593.44Z" transform="translate(-851.451 -545.327)" fill="#0083ca"/>
      <path id="Caminho_44" data-name="Caminho 44" d="M1240.1,586.869v34.4h-9.527V617.3q-3.709,4.476-10.741,4.475a17.853,17.853,0,0,1-8.792-2.174,15.556,15.556,0,0,1-6.17-6.2,20.59,20.59,0,0,1,0-18.669,15.567,15.567,0,0,1,6.17-6.2,17.87,17.87,0,0,1,8.792-2.174q6.584,0,10.294,4.156v-3.644ZM1227.827,611a10.9,10.9,0,0,0,0-13.874,8.953,8.953,0,0,0-12.6,0,10.9,10.9,0,0,0,0,13.874,8.953,8.953,0,0,0,12.6,0Z" transform="translate(-960.572 -570.948)" fill="#0083ca"/>
      <path id="Caminho_45" data-name="Caminho 45" d="M1357.149,620.723a21.874,21.874,0,0,1-6.522-2.654l3.325-7.161a20.892,20.892,0,0,0,5.563,2.4,23.284,23.284,0,0,0,6.394.927q6.33,0,6.33-3.133a2.217,2.217,0,0,0-1.726-2.11,25.642,25.642,0,0,0-5.307-1.087,51,51,0,0,1-6.969-1.471,10.8,10.8,0,0,1-4.763-2.941,8.362,8.362,0,0,1-2.014-6.01,9.413,9.413,0,0,1,1.886-5.786,12.14,12.14,0,0,1,5.5-3.932,23.493,23.493,0,0,1,8.535-1.406,33.522,33.522,0,0,1,7.257.8,20.339,20.339,0,0,1,5.978,2.206l-3.325,7.1a19.857,19.857,0,0,0-9.911-2.558,10.086,10.086,0,0,0-4.8.9,2.633,2.633,0,0,0-1.6,2.3,2.283,2.283,0,0,0,1.726,2.238,30.48,30.48,0,0,0,5.5,1.215,59.09,59.09,0,0,1,6.905,1.5,10.385,10.385,0,0,1,4.668,2.909,8.258,8.258,0,0,1,1.982,5.882,9.081,9.081,0,0,1-1.918,5.69,12.24,12.24,0,0,1-5.595,3.868,24.933,24.933,0,0,1-8.727,1.375A33.409,33.409,0,0,1,1357.149,620.723Z" transform="translate(-1065.215 -570.948)" fill="#0083ca"/>
      <path id="Caminho_46" data-name="Caminho 46" d="M1509.117,559.942q3.932,3.837,3.932,11.381v19.692h-9.974V572.857q0-4.091-1.79-6.106a6.566,6.566,0,0,0-5.179-2.014,7.938,7.938,0,0,0-6.01,2.334q-2.239,2.335-2.238,6.937v17.007h-9.974V543.574h9.974V560.2a13.258,13.258,0,0,1,4.795-3.037,17.345,17.345,0,0,1,6.138-1.055A14.156,14.156,0,0,1,1509.117,559.942Z" transform="translate(-1155.197 -540.697)" fill="#0083ca"/>
    </g>
    <path id="Caminho_48" data-name="Caminho 48" d="M179.076,601.741a5.035,5.035,0,1,0,5.035,5.035A5.035,5.035,0,0,0,179.076,601.741Z" transform="translate(-46.11 -48.098)" fill="#ee3325"/>
    <path id="Caminho_49" data-name="Caminho 49" d="M145.439,613.294a3.986,3.986,0,1,0-3.986-3.986A3.986,3.986,0,0,0,145.439,613.294Z" transform="translate(-23.067 -50.63)" fill="#ee3325"/>
    <path id="Caminho_50" data-name="Caminho 50" d="M115.741,614.777a2.937,2.937,0,1,0-2.937-2.937A2.937,2.937,0,0,0,115.741,614.777Z" transform="translate(-2.81 -53.162)" fill="#ee3325"/>
    <path id="Caminho_51" data-name="Caminho 51" d="M181.608,578.915a3.986,3.986,0,1,0-3.986-3.986A3.986,3.986,0,0,0,181.608,578.915Z" transform="translate(-48.642 -26.321)" fill="#ee3325"/>
    <circle id="Elipse_13" data-name="Elipse 13" cx="3.147" cy="3.147" r="3.147" transform="translate(119.01 545.692) rotate(-4.065)" fill="#ee3325"/>
    <circle id="Elipse_14" data-name="Elipse 14" cx="2.098" cy="2.098" r="2.098" transform="translate(110.524 546.873) rotate(-9.217)" fill="#ee3325"/>
    <circle id="Elipse_15" data-name="Elipse 15" cx="2.937" cy="2.937" r="2.937" transform="translate(130.134 535.811)" fill="#ee3325"/>
    <path id="Caminho_52" data-name="Caminho 52" d="M150,547.923a2.1,2.1,0,1,0-2.1-2.1A2.1,2.1,0,0,0,150,547.923Z" transform="translate(-27.625 -7.077)" fill="#ee3325"/>
    <path id="Caminho_53" data-name="Caminho 53" d="M119.033,548.665a1.573,1.573,0,1,0-1.574-1.573A1.573,1.573,0,0,0,119.033,548.665Z" transform="translate(-6.101 -8.343)" fill="#ee3325"/>
    <path id="Caminho_55" data-name="Caminho 55" d="M239.019,534H224.583a7.561,7.561,0,0,0-7.57,7.57v14.265a7.68,7.68,0,0,0,7.658,7.658h14.265a7.68,7.68,0,0,0,7.658-7.658V541.574A7.6,7.6,0,0,0,239.019,534Z" transform="translate(-74.883 -0.199)" fill="#ee3325"/>
  </g>
</svg>
