<svg xmlns="http://www.w3.org/2000/svg" width="321.648" height="314.5" viewBox="0 0 321.648 314.5"><defs><style>.a{opacity:0.2;}.b{fill:#fff;}</style></defs><g class="a" transform="translate(-28.068 -6)"><g transform="translate(28.068 6)"><path class="b" d="M55.186,958.366a17.427,17.427,0,0,0-11.5,3.574c-4.178,3.242-6.476,9.106-6.476,14.3,0,6.673,3.4,10.041,5.806,12.843s4.865,5.324,7.481,8.376a10.719,10.719,0,0,0,16.3,0c2.616-3.052,5.079-5.574,7.481-8.377s5.806-6.17,5.806-12.843c0-5.189-2.3-11.053-6.476-14.3a17.427,17.427,0,0,0-11.5-3.574,14.587,14.587,0,0,0-3.461.67,14.073,14.073,0,0,0-3.35-.67ZM183.7,986.956a141.619,141.619,0,0,0-77.044,23.006,30.952,30.952,0,0,0-26.575,4.467,31.315,31.315,0,0,0-23.113-5.361,27.844,27.844,0,0,0-2.9.782c-2.354-6.592-9.514-12.118-16.749-12.173h-.112a23.1,23.1,0,0,0-7.146,1.452,23.1,23.1,0,0,0-7.146-1.452H22.8c-7.738.06-15.421,6.32-17.2,13.513-1.783,7.228.348,14.419,4.8,21,.073.075.148.15.223.223a40.036,40.036,0,0,0,5.136,5.919c1.769,1.666,3.6,3.234,6.923,6.366a10.72,10.72,0,0,0,8.374,3.016,27.658,27.658,0,0,0,4.69,9.94c5.921,7.9,9.848,13.755,15.3,21.108-6.123,15.644-10.273,32.774-10.273,51.151,0,78.824,64.11,142.953,142.923,142.953s142.923-64.129,142.923-142.953S262.517,986.957,183.7,986.957Zm0,21.443A121.51,121.51,0,1,1,62.22,1129.909a110.245,110.245,0,0,1,4.69-31.16c1.612,1.922,3.158,3.741,5.025,5.919a10.719,10.719,0,0,0,16.3,0c21.646-25.26,25.04-32.15,36.178-47.018a28.33,28.33,0,0,0,4.578-24.459,32.592,32.592,0,0,0-4.243-9.158A119.457,119.457,0,0,1,183.7,1008.4ZM63,1029.507a6.445,6.445,0,0,1,1.675.223c2.249.593,4.37,2.407,6.141,5.472a10.719,10.719,0,0,0,18.535,0c3.543-6.131,8.414-7.109,13.064-3.8a15.245,15.245,0,0,1,5.918,7.594c.636,2.251.568,3.558-1.117,5.808-9.5,12.689-15.023,20.98-27.133,35.85-12.11-14.87-17.628-23.161-27.133-35.85-1.685-2.25-1.752-3.556-1.117-5.808a15.245,15.245,0,0,1,5.918-7.594,9.14,9.14,0,0,1,5.248-1.9Zm84.86,46.795c-8.233.054-16.1,3.188-20.88,8.711s-6.468,11.969-7.481,18.092a10.748,10.748,0,1,0,21.215,3.462c.71-4.288,1.773-6.694,2.456-7.483.655-.756,1.241-1.274,4.69-1.34.169,0,.068,0,.223,0,3.44.067,3.924.585,4.578,1.34.684.789,1.858,3.2,2.568,7.483a10.748,10.748,0,1,0,21.215-3.462c-1.014-6.123-2.808-12.57-7.593-18.092s-12.536-8.657-20.768-8.711h-.223Zm71.461,0c-8.233.054-16.1,3.188-20.88,8.711s-6.468,11.969-7.481,18.092a10.748,10.748,0,1,0,21.215,3.462c.71-4.288,1.885-6.694,2.568-7.483.654-.755,1.138-1.273,4.578-1.34.169,0,.068,0,.223,0,3.44.067,3.924.585,4.578,1.34.684.789,1.858,3.2,2.568,7.483a10.748,10.748,0,1,0,21.215-3.463c-1.014-6.123-2.7-12.569-7.481-18.092s-12.647-8.657-20.88-8.711h-.223Zm42.989,56.735a10.721,10.721,0,0,0-10.384,8.822c-8.846,35.525-37.721,55.984-68.223,55.953-30.485.036-59.369-20.59-68.223-56.288a10.713,10.713,0,1,0-20.768,5.249c11.056,44.574,48.712,72.517,88.992,72.482,40.263.039,77.927-27.822,88.992-72.258a10.722,10.722,0,0,0-10.384-13.96Z" transform="translate(-4.98 -958.362)"/></g></g></svg>