<svg xmlns="http://www.w3.org/2000/svg" width="46.521" height="56" viewBox="0 0 46.521 56"><defs><style>.a{fill:#fff;fill-rule:evenodd;}</style></defs><g transform="translate(-16 -9)"><g transform="translate(16 9)"><path class="a" d="M39.261,9A23.257,23.257,0,0,0,37.3,55.432a13.169,13.169,0,0,0,6.253,9.279,2.18,2.18,0,0,0,2.167-3.784c-4.168-2.387-4.28-7.363-4.282-7.6,0-.04,0-.078-.006-.117s0-.068-.005-.1-.012-.081-.018-.121-.009-.064-.015-.1-.02-.079-.03-.118-.014-.061-.024-.091-.027-.076-.041-.114-.02-.058-.032-.086-.035-.072-.052-.108-.026-.056-.04-.083-.04-.067-.061-.1-.031-.054-.049-.079-.046-.062-.069-.093-.036-.05-.056-.075-.051-.057-.077-.085-.041-.047-.064-.07-.056-.051-.084-.076-.046-.044-.071-.064-.06-.045-.09-.068-.051-.04-.077-.057-.064-.039-.1-.059-.054-.035-.083-.05-.069-.034-.1-.05-.057-.029-.086-.041-.075-.028-.113-.041-.057-.023-.087-.032-.075-.019-.112-.029-.064-.018-.1-.025-.07-.011-.105-.016-.073-.013-.111-.017c-.073-.007-.147-.011-.223-.011a18.9,18.9,0,1,1,11.111-3.609,2.18,2.18,0,0,0,2.566,3.525A23.262,23.262,0,0,0,39.261,9" transform="translate(-16 -9)"/><path class="a" d="M52.52,27.355a7.281,7.281,0,0,0-2.5-1.322,10.394,10.394,0,0,0-3.113-.453,11.178,11.178,0,0,0-2.951.362,11.655,11.655,0,0,0-2.354.905,10.268,10.268,0,0,0-1.792,1.177A10.689,10.689,0,0,0,38.582,29.2l3.186,3.367a8.776,8.776,0,0,1,.815-.706,9.462,9.462,0,0,1,1.086-.724,6.239,6.239,0,0,1,1.322-.561,5.386,5.386,0,0,1,1.556-.217,3.839,3.839,0,0,1,2.064.561,1.852,1.852,0,0,1,.905,1.683,2.008,2.008,0,0,1-.254,1,3.662,3.662,0,0,1-.67.851,10.193,10.193,0,0,1-.923.778q-.508.38-1.05.778a6.662,6.662,0,0,0-2.19,2.607,8.284,8.284,0,0,0-.67,3.44v.471h4.96v-.471a3.639,3.639,0,0,1,.235-1.376,3.872,3.872,0,0,1,.634-1.05,5.944,5.944,0,0,1,.978-.905q.578-.434,1.231-.941a9.768,9.768,0,0,0,1.195-1.014,6.415,6.415,0,0,0,.941-1.195,5.587,5.587,0,0,0,.616-1.448,7.057,7.057,0,0,0,.217-1.847,6.424,6.424,0,0,0-.6-2.806,6.167,6.167,0,0,0-1.647-2.118" transform="translate(-23.144 -14.245)"/><path class="a" d="M45.625,59.276h5.684V53.7H45.625Z" transform="translate(-25.372 -23.14)"/></g></g></svg>