<svg xmlns="http://www.w3.org/2000/svg" width="552.39" height="552.39" viewBox="0 0 552.39 552.39"><defs><style>.a{fill:#efefef;}</style></defs><g transform="translate(-1.61 -1.61)"><g transform="translate(1.61 1.61)"><path class="a" d="M277.8,1.61C125.507,1.61,1.61,125.507,1.61,277.8S125.507,554,277.8,554,554,430.1,554,277.8,430.1,1.61,277.8,1.61ZM412.661,103.155,402.467,93.27l1.7-6.176,7.106-3.242,9.732,2.934,6.792,8.185-11.735,1.079,8.111,7.877,7.488,8.647,4.943,8.647s8.493,10.81,8.493,11.427.771,5.559.771,5.559l-10.81-1.547-12.2-8.955-1.7-7.26.462-8.493ZM277.8,544.519a265.323,265.323,0,0,1-93.686-17.032l-14.777-10.719L143.269,496.78l-28.247-19.988s-5.217-15.211-5.651-16.512-6.952-14.777-8.693-16.952S82.265,423.34,82.265,423.34L74.6,404.219l-11.3-22.6H40.274l-10.16-5.08A265.262,265.262,0,0,1,11.09,277.8C11.09,148.674,103.344,40.713,225.4,16.29l-14.229,5.474V34.127l17.688,4.412h23.807l16.775-25.6,20.308,25.6h-24.72L245.6,47.369H216.464l-26.489,9.714-38.847,25.6,11.478,5.3-4.412,7.066-31.786,9.714L122,133.9l12.363,3.533,18.539-9.714,11.478-8.83,1.764-8.83,19.423-18.539,32.671-6.181,13.242,10.593,17.66,4.412-4.412,15.011,15.89-15.89L234.124,80.045l18.539.885,12.363,6.181,8.83,21.193,15.89,7.066V97.71l12.363-.885L312.7,94.177l12.363-17.66L333.01,82.7l19.423-5.3,7.066,9.714,18.544,8.83v8.83l-30.9-5.3-27.368-1.764-15.011,5.3v9.714l14.127,7.06h14.126l17.66.885,1.764,13.242-17.66,13.242-50.325-8.83-13.242,3.533-7.066,5.3L234.13,136.563l-22.072-7.945-7.066-7.945-26.489,5.3-30.017,17.66H131.711L107.87,170.118,100.8,186.893,82.265,210.734v49.44L100.81,277.8l17.66,14.132,15.89,4.412h27.368L190.866,277.8l18.539,7.957h15.011L220,315.778l10.154,15.011,14.566,27.368-6.181,15.011,3.533,25.6,10.593,21.193,7.945,22.072,7.066,10.593L277.8,465.4l12.477,2.066,7.42-12.186,17.66-15.89,9.715-14.127,10.593-24.72,30.017-7.945.885-41.495,11.478-15.011,23.841-31.786,23.841-11.478L439.852,277.8V260.157l-37.968-1.764-7.06-17.4-11.478-13.5-12.363-24.72-7.06-15.89-17.66-28.253h16.775l5.3,8.83,8.83,22.956,8.83,18.539,12.363,3.533,2.648,9.714,2.648,18.8,3.533,7.688h27.368L454.863,241h20.308l6.181-22.328-19.423-24.72-7.06,7.06-15.89-7.945-20.308-30.9,11.478-.885,18.539,11.478,11.478,10.593,11.478,7.945,9.714,11.478,13.242,7.945,11.478,11.478,7.06,15.011v12.363l11.478,4.412v64.451l7.945-3.533,11.609-23.316C536.968,432.266,420.252,544.519,277.8,544.519Z" transform="translate(-1.61 -1.61)"/><path class="a" d="M80.941,79.891,66.6,95.1l-2.175,19.988,5.651,6.518,12.169-10.862,9.994-9.56L103.1,85.542l-3.042-16.518Z" transform="translate(294.094 315.754)"/><path class="a" d="M49.749,24,47.94,17.662H41.833L37.084,19.7l4.749,2.939Z" transform="translate(165.391 73.958)"/><path class="a" d="M37.322,23.516,42.3,31.66l2.711-4.595V21.935L38.9,19.446Z" transform="translate(166.511 82.356)"/><path class="a" d="M49.722,20.516l-2.489,1.513L41.126,23v4.3l7.243-2.637Z" transform="translate(184.419 87.394)"/><path class="a" d="M66.182,25.5l-5.12-2.049-8.767-.685v4.555l11.044,4.207Z" transform="translate(236.999 97.967)"/><path class="a" d="M41.454,19l4.155-5.086-5.3-2.574-5.582,3.721-3.151,3.727L24.7,26.67l10.885-.862Z" transform="translate(107.072 44.219)"/><path class="a" d="M48.554,23.865l-1.29-7.306V9.111H42.538l-6.587,1.861V25.441L28.36,34.465Z" transform="translate(124.321 33.702)"/></g></g></svg>