<svg xmlns="http://www.w3.org/2000/svg" width="187.292" height="166.448" viewBox="0 0 187.292 166.448">
  <g id="nos_valeurs" transform="translate(-6722.44 -1524.011)">
    <path id="Caminho_234" data-name="Caminho 234" d="M6894.005,1539.726a53.352,53.352,0,0,0-75.6-.009l-2.327,2.326-2.326-2.327a53.459,53.459,0,1,0-75.611,75.595l7.21,7.212,65.825,65.84a5.075,5.075,0,0,0,1.163.931c.232.233.465.233.7.465.233,0,.233.233.466.233a1.4,1.4,0,0,0,.93.233h.465c.465,0,.931.233,1.4.233a2.921,2.921,0,0,0,1.414-.242l.355-.011c.169.1.752-.213,1.022-.213.232,0,.232-.233.465-.233.233-.232.465-.232.7-.465a4.085,4.085,0,0,0,1.163-.93l23.033-23.027,42.575-42.566,7.212-7.21A53.845,53.845,0,0,0,6894.005,1539.726Zm-146.089,9.8a39.594,39.594,0,0,1,55.83.006l2.326,2.327-6.748,6.745a19.411,19.411,0,0,0,27.447,27.453l6.747-6.745L6871.9,1617.7l-32.8,32.8-60.708-60.722a6.745,6.745,0,0,0-9.771,0l-18.379,18.143-2.326-2.326A39.876,39.876,0,0,1,6747.917,1549.524Zm12.321,68.161,13.261-13.258,55.824,55.836-13.261,13.491Zm123.99-12.083-2.326,2.326-43.031-43.041a6.331,6.331,0,0,0-3.722-1.861,6.783,6.783,0,0,0-6.746,1.86l-11.633,11.63a5.428,5.428,0,0,1-7.676-7.677l11.633-11.63h0l.232-.233,7.212-7.21a39.56,39.56,0,0,1,56.056,55.836Z" fill="#fff"/>
  </g>
</svg>
