<svg xmlns="http://www.w3.org/2000/svg" width="357.4" height="178.646" viewBox="0 0 357.4 178.646"><defs><style>.a{opacity:0.2;}.b{fill:#fff;}</style></defs><g class="a" transform="translate(1001.9 -466.998)"><path class="b" d="M23,32.009a9.929,9.929,0,0,0-9,9.928V190.853a9.929,9.929,0,0,0,9.927,9.928h69.5a9.929,9.929,0,0,0,9.928-9.927V177.823l111.377,32.421a9.929,9.929,0,0,0,7.756-.931l136.042-78.337a9.945,9.945,0,0,0,.931-.62,29.809,29.809,0,0,0-17.839-53.672,11.515,11.515,0,0,0-3.257.31c-.885.163-1.777.365-2.948.62-2.342.51-5.355,1.334-8.842,2.172-6.974,1.675-15.915,3.835-24.665,6.05-15.517,3.927-27.344,6.92-30.559,7.756a29.644,29.644,0,0,0-19.08-6.981H205.575c-15.111-11.279-35.227-26.041-70.735-31.955A9.908,9.908,0,0,0,131.582,74.2c33.413,5.566,49.456,18.533,65.151,30.249a9.929,9.929,0,0,0,6.05,2.016h49.484a9.928,9.928,0,1,1,0,19.856H177.808a9.928,9.928,0,1,0,0,19.857h74.458a29.939,29.939,0,0,0,29.783-29.783,29.128,29.128,0,0,0-.465-4.809c5.746-1.5,12.358-3.283,25.13-6.515,8.708-2.2,17.685-4.411,24.509-6.05,3.412-.82,6.283-1.561,8.377-2.016.912-.2,1.49-.365,2.016-.466h.155a9.877,9.877,0,0,1,5.739,17.839l-131.233,75.7L103.35,157.192V41.937a9.929,9.929,0,0,0-9.927-9.928h-69.5Q23.463,31.987,23,32.009ZM33.856,51.864H83.495V180.925H33.856Z" transform="translate(-1015.9 435)"/></g></svg>