<svg xmlns="http://www.w3.org/2000/svg" width="203.649" height="164.991" viewBox="0 0 203.649 164.991">
  <g id="cash_to_cash" transform="translate(-4553 647.225)">
    <g id="Grupo_18" data-name="Grupo 18" transform="translate(4553 -647.225)">
      <path id="Caminho_218" data-name="Caminho 218" d="M4588.812,14.762a2.927,2.927,0,0,0-.812,1.881V42.869A16.445,16.445,0,0,0,4604.429,59.3h5.944l-4.34,4.337a5.476,5.476,0,1,0,7.743,7.746h0l13.69-13.69.035-.044a5.475,5.475,0,0,0,.646-.791c.093-.14.156-.287.235-.433a3.145,3.145,0,0,0,.449-1.057c.046-.153.1-.3.137-.46a5.491,5.491,0,0,0,0-2.149c-.027-.14-.082-.274-.12-.405a5.522,5.522,0,0,0-.192-.616c-.066-.159-.159-.3-.238-.455a5.307,5.307,0,0,0-.274-.487,5.443,5.443,0,0,0-.572-.7c-.038-.041-.065-.09-.106-.129l-13.69-13.69a5.476,5.476,0,0,0-7.749,7.74l4.351,4.332h-8.891a2.535,2.535,0,0,1-2.535-2.535V18.226C4598.952,13.711,4593.488,10.472,4588.812,14.762Z" transform="translate(-4582.444 92.007)" fill="#fff"/>
      <path id="Caminho_219" data-name="Caminho 219" d="M5579.484-589a2.921,2.921,0,0,0,.813-1.881V-617.11a16.446,16.446,0,0,0-16.429-16.428h-5.944l4.34-4.337a5.476,5.476,0,0,0,0-7.745,5.477,5.477,0,0,0-7.745,0h0l-13.69,13.69-.036.044a5.5,5.5,0,0,0-.646.791c-.094.14-.156.287-.235.433a5.361,5.361,0,0,0-.274.509,5.368,5.368,0,0,0-.175.548c-.047.153-.1.3-.137.46a5.49,5.49,0,0,0,0,2.149c.027.14.082.274.12.405a5.42,5.42,0,0,0,.191.616c.066.159.159.3.239.455a5.187,5.187,0,0,0,.273.487,5.445,5.445,0,0,0,.572.7c.038.041.065.09.106.129l13.69,13.69a5.477,5.477,0,0,0,7.745,0,5.478,5.478,0,0,0,0-7.745l-4.352-4.332h8.892a2.536,2.536,0,0,1,2.535,2.535v27.584C5569.345-587.953,5574.809-584.714,5579.484-589Z" transform="translate(-5382.679 647.225)" fill="#fff"/>
      <path id="Caminho_221" data-name="Caminho 221" d="M4749.782-571.461A27.47,27.47,0,0,0,4729-580.969h-22.029v-38.518A27.543,27.543,0,0,0,4679.454-647h-98.941a27.435,27.435,0,0,0-11.922,2.722,27.424,27.424,0,0,0-2.9,1.622q-.28.179-.554.365-.549.371-1.079.767a27.725,27.725,0,0,0-2.52,2.131,27.463,27.463,0,0,0-8.54,19.907h0v44.021a27.543,27.543,0,0,0,27.513,27.513h22.01v38.4a27.512,27.512,0,0,0,27.494,27.469H4729a27.512,27.512,0,0,0,27.495-27.469v-21.9h.158V-553.3A27.435,27.435,0,0,0,4749.782-571.461Zm-146.65,12.556H4580.6a16.537,16.537,0,0,1-16.488-16.547v-46.214a16.36,16.36,0,0,1,2.152-6.127h.019a16.5,16.5,0,0,1,5.1-5.357l.04-.026q.193-.127.391-.248l.048-.03q.215-.132.433-.257l.032-.017q.189-.108.381-.21l.133-.07c.1-.051.2-.1.3-.151l.146-.073q.188-.09.375-.176l.176-.078c.094-.041.188-.082.282-.122l.213-.087.214-.085.237-.09.179-.064q.271-.1.548-.184l.085-.027c.1-.033.21-.063.315-.094l.112-.032q.166-.047.334-.09l.047-.012a16.606,16.606,0,0,1,3.187-.488l.132-.007.306-.012c.1,0,.2,0,.3-.005l.174,0h99.007a16.517,16.517,0,0,1,14.2,8.1,16.447,16.447,0,0,1,2.311,8.413v38.412h-65.952A27.552,27.552,0,0,0,4603.132-558.906Zm142.247,8.254V-509.5a16.494,16.494,0,0,1-16.488,16.462h-98.928a16.494,16.494,0,0,1-16.488-16.462v-43.7a17.027,17.027,0,0,1,2.214-8.413,16.446,16.446,0,0,1,14.274-8.413h77.161v.159h21.924a16.387,16.387,0,0,1,9.079,2.742,16.668,16.668,0,0,1,5.026,5.512h.157a16.5,16.5,0,0,1,2.068,6.016Z" transform="translate(-4553 647.036)" fill="#fff"/>
    </g>
    <path id="Caminho_222" data-name="Caminho 222" d="M5212.69-84.5a26.19,26.19,0,0,0-26.19,26.19,26.19,26.19,0,0,0,26.19,26.19,26.19,26.19,0,0,0,26.19-26.19A26.19,26.19,0,0,0,5212.69-84.5Zm7.547,37.181a9.176,9.176,0,0,1-3.644,2.493,1.2,1.2,0,0,0-.77,1.122v2.735a1.2,1.2,0,0,1-1.2,1.2h-3.9a1.2,1.2,0,0,1-1.2-1.2v-2.37a1.2,1.2,0,0,0-.932-1.172,12.041,12.041,0,0,1-4.9-2.257l-.26-.22a1.2,1.2,0,0,1-.268-1.516l1.943-3.4a1.2,1.2,0,0,1,1.816-.328l.315.263a7.92,7.92,0,0,0,5.044,1.655,4.345,4.345,0,0,0,2.68-.709,1.706,1.706,0,0,0,.788-1.5c0-1.419-2.364-2.6-3.7-3.153-5.438-2.364-8.2-5.28-8.2-8.748a7.655,7.655,0,0,1,2.049-5.28,8,8,0,0,1,3.6-2.27,1.2,1.2,0,0,0,.813-1.138V-75.6a1.2,1.2,0,0,1,1.2-1.2h3.9a1.2,1.2,0,0,1,1.2,1.2v2.294a1.2,1.2,0,0,0,.858,1.153,19.129,19.129,0,0,1,3.634,1.587l.317.176a1.2,1.2,0,0,1,.44,1.684l-2.157,3.5a1.2,1.2,0,0,1-1.8.293l-.352-.293a6.108,6.108,0,0,0-4.256-1.261,3.883,3.883,0,0,0-2.158.6c-.033.023-.065.047-.1.073l-.052.046a1.2,1.2,0,0,0-.059,1.717,11.969,11.969,0,0,0,3.626,2.218,17.292,17.292,0,0,1,5.833,3.783,7.513,7.513,0,0,1,1.97,5.359A7.843,7.843,0,0,1,5220.237-47.319Z" transform="translate(-532.945 -473.404)" fill="#fff"/>
    <path id="Caminho_223" data-name="Caminho 223" d="M4901.69-499.5a26.19,26.19,0,0,0-26.19,26.19,26.19,26.19,0,0,0,26.19,26.19,26.19,26.19,0,0,0,26.19-26.19A26.19,26.19,0,0,0,4901.69-499.5Zm7.546,37.181a9.173,9.173,0,0,1-3.643,2.493,1.2,1.2,0,0,0-.771,1.122v2.735a1.2,1.2,0,0,1-1.2,1.2h-3.9a1.2,1.2,0,0,1-1.2-1.2v-2.37a1.2,1.2,0,0,0-.931-1.172,12.04,12.04,0,0,1-4.9-2.257l-.26-.22a1.2,1.2,0,0,1-.267-1.516l1.943-3.4a1.2,1.2,0,0,1,1.816-.328l.315.263a7.92,7.92,0,0,0,5.044,1.655,4.343,4.343,0,0,0,2.68-.709,1.708,1.708,0,0,0,.788-1.5c0-1.419-2.365-2.6-3.7-3.152-5.438-2.364-8.2-5.28-8.2-8.748a7.653,7.653,0,0,1,2.049-5.28,7.993,7.993,0,0,1,3.6-2.27,1.2,1.2,0,0,0,.813-1.138V-490.6a1.2,1.2,0,0,1,1.2-1.2h3.9a1.2,1.2,0,0,1,1.2,1.2v2.294a1.2,1.2,0,0,0,.858,1.153,19.13,19.13,0,0,1,3.634,1.587l.317.176a1.2,1.2,0,0,1,.44,1.684l-2.156,3.5a1.2,1.2,0,0,1-1.8.293l-.352-.293a6.109,6.109,0,0,0-4.256-1.261,3.879,3.879,0,0,0-2.157.6,1.138,1.138,0,0,0-.1.073l-.052.046a1.2,1.2,0,0,0-.059,1.717,11.967,11.967,0,0,0,3.626,2.218,17.276,17.276,0,0,1,5.832,3.783,7.509,7.509,0,0,1,1.971,5.359A7.841,7.841,0,0,1,4909.237-462.319Z" transform="translate(-271.31 -124.277)" fill="#fff"/>
    <circle id="Elipse_19" data-name="Elipse 19" cx="4.444" cy="4.444" r="4.444" transform="translate(4629.983 -536.079)" fill="#fff"/>
    <circle id="Elipse_20" data-name="Elipse 20" cx="4.444" cy="4.444" r="4.444" transform="translate(4721.253 -536.079)" fill="#fff"/>
    <circle id="Elipse_21" data-name="Elipse 21" cx="4.444" cy="4.444" r="4.444" transform="translate(4580.301 -601.952)" fill="#fff"/>
    <circle id="Elipse_22" data-name="Elipse 22" cx="4.444" cy="4.444" r="4.444" transform="translate(4671.571 -601.952)" fill="#fff"/>
  </g>
</svg>
