<svg xmlns="http://www.w3.org/2000/svg" width="474.196" height="472.419" viewBox="0 0 474.196 472.419">
  <g id="detalhe_footer_grande" transform="translate(-1770.804 -5448.162)">
    <path id="Caminho_235" data-name="Caminho 235" d="M259.289,601.741a85.248,85.248,0,1,0,85.248,85.248A85.246,85.246,0,0,0,259.289,601.741Z" transform="translate(1900.464 5148.345)" fill="#e52d1f"/>
    <path id="Caminho_236" data-name="Caminho 236" d="M208.941,740.3a67.488,67.488,0,1,0-67.488-67.488A67.491,67.491,0,0,0,208.941,740.3Z" transform="translate(1771.434 5162.523)" fill="#e52d1f"/>
    <path id="Caminho_237" data-name="Caminho 237" d="M162.532,708.359A49.728,49.728,0,1,0,112.8,658.631,49.726,49.726,0,0,0,162.532,708.359Z" transform="translate(1658 5176.702)" fill="#e52d1f"/>
    <path id="Caminho_238" data-name="Caminho 238" d="M245.11,705.924a67.49,67.49,0,1,0-67.488-67.488A67.491,67.491,0,0,0,245.11,705.924Z" transform="translate(1914.643 5026.402)" fill="#e52d1f"/>
    <circle id="Elipse_28" data-name="Elipse 28" cx="53.281" cy="53.281" r="53.281" transform="translate(1923.451 5615.468) rotate(-4.065)" fill="#e52d1f"/>
    <circle id="Elipse_29" data-name="Elipse 29" cx="35.52" cy="35.52" r="35.52" transform="translate(1779.782 5635.465) rotate(-9.217)" fill="#e52d1f"/>
    <circle id="Elipse_30" data-name="Elipse 30" cx="49.729" cy="49.729" r="49.729" transform="translate(2111.799 5448.162)" fill="#e52d1f"/>
    <path id="Caminho_239" data-name="Caminho 239" d="M183.418,614.771A35.522,35.522,0,1,0,147.9,579.246,35.524,35.524,0,0,0,183.418,614.771Z" transform="translate(1796.956 4918.642)" fill="#e52d1f"/>
    <path id="Caminho_240" data-name="Caminho 240" d="M144.1,598.8a26.64,26.64,0,1,0-26.642-26.642A26.641,26.641,0,0,0,144.1,598.8Z" transform="translate(1676.431 4925.734)" fill="#e52d1f"/>
  </g>
</svg>
