<svg xmlns="http://www.w3.org/2000/svg" width="218.783" height="314.5" viewBox="0 0 218.783 314.5"><defs><style>.a{opacity:0.2;}.b{fill:#fff;}</style></defs><g class="a" transform="translate(-29.5 -14.5)"><g transform="translate(29.5 14.5)"><path class="b" d="M188.826,281.141C186.413,308.073,162.819,329,134.333,329c-30.074,0-54.7-23.326-54.7-52.417a11.395,11.395,0,1,1,22.79,0c0,16.22,14.151,29.627,31.906,29.627s31.906-13.406,31.906-29.627a11.5,11.5,0,0,1,.062-1.195c.861-39.214,10.739-63.459,31.812-91.827,1.425-1.918,6.836-9.078,8.094-10.77,13.933-18.756,19.194-30.984,19.284-50.659-.247-46.865-38.891-84.843-86.6-84.843-47.863,0-86.6,38.222-86.6,85.294a11.395,11.395,0,0,1-22.79,0C29.5,62.856,78.51,14.5,138.891,14.5c60.054,0,108.859,47.833,109.387,107.112,0,.172,0,.344,0,.516q0,.228,0,.456,0,.2-.007.4c-.249,24.9-7.362,41.307-23.774,63.4-1.332,1.794-6.744,8.953-8.094,10.771-19.365,26.067-27.379,46.7-27.379,83.99Z" transform="translate(-29.5 -14.5)"/><path class="b" d="M141.3,70.649a11.395,11.395,0,1,1-22.79,0,47.859,47.859,0,0,0-95.717,0,11.395,11.395,0,1,1-22.79,0,70.649,70.649,0,0,1,141.3,0Z" transform="translate(104.395 12.198) rotate(45)"/></g></g></svg>