<svg xmlns="http://www.w3.org/2000/svg" width="345.161" height="340.075" viewBox="0 0 345.161 340.075"><defs><style>.a{opacity:0.2;}.b{fill:#fff;}</style></defs><g class="a" transform="translate(-9.083 -3.2)"><g transform="translate(9.083 3.2)"><path class="b" d="M174.9,45.282c-22.526-17.8-51.593-23.98-79.932-17.44A91.04,91.04,0,0,0,27.389,94.694c-9.083,36.7,3.633,73.755,33.426,96.645a11.436,11.436,0,0,1,3.633,8.72v49.776a18.608,18.608,0,0,0,18.53,18.53H94.6a23.882,23.882,0,0,0,22.89,16.713,24.346,24.346,0,0,0,22.89-16.713h11.626a18.608,18.608,0,0,0,18.53-18.53V199.7a10.145,10.145,0,0,1,3.27-7.993c23.253-17.8,36.7-44.689,36.7-73.392A94.852,94.852,0,0,0,174.9,45.282ZM86.612,245.838V224.765h61.039v21.073ZM160,173.9a32.22,32.22,0,0,0-12.353,25.8V202.6H86.612v-2.543a34.217,34.217,0,0,0-12.353-26.523C51.732,156.1,41.922,128.12,48.826,99.781a69.117,69.117,0,0,1,51.229-50.139c21.8-5.087,43.963-.363,61.039,13.08a69.714,69.714,0,0,1,26.886,55.226A71.63,71.63,0,0,1,160,173.9Z" transform="translate(55.449 54.997)"/><path class="b" d="M58.163,60.969A11.32,11.32,0,0,0,69.426,49.706V14.463a11.263,11.263,0,1,0-22.526,0V49.706A11.32,11.32,0,0,0,58.163,60.969Z" transform="translate(114.417 -3.2)"/><path class="b" d="M59.826,60.426a11.4,11.4,0,0,0,0-15.986L34.756,19.37A11.3,11.3,0,0,0,18.77,35.356l25.07,25.07a11.4,11.4,0,0,0,15.986,0Z" transform="translate(31.733 30.769)"/><path class="b" d="M49.006,47.6H13.763a11.263,11.263,0,1,0,0,22.526H49.006a11.263,11.263,0,1,0,0-22.526Z" transform="translate(-2.5 113.717)"/><path class="b" d="M128.106,47.6H92.863a11.263,11.263,0,1,0,0,22.526h35.243a11.263,11.263,0,1,0,0-22.526Z" transform="translate(205.792 113.717)"/><path class="b" d="M115.726,19.47a11.4,11.4,0,0,0-15.986,0L74.67,44.54a11.4,11.4,0,0,0,0,15.986,11.4,11.4,0,0,0,15.986,0l25.07-25.07A11.4,11.4,0,0,0,115.726,19.47Z" transform="translate(178.933 31.033)"/><path class="b" d="M97.9,46.9l-28.7,30.883L57.931,65.794a11.774,11.774,0,0,0-15.986-.727,11.774,11.774,0,0,0-.727,15.986l19.62,21.073a11.427,11.427,0,0,0,16.713,0l37.059-39.6c4.36-4.36,4-11.626-.727-15.986S101.893,42.178,97.9,46.9Z" transform="translate(92.124 102.426)"/></g></g></svg>