<svg xmlns="http://www.w3.org/2000/svg" width="406.378" height="239.036" viewBox="0 0 406.378 239.036"><defs><style>.a{opacity:0.2;}.b{fill:#fff;}</style></defs><g class="a" transform="translate(0.003)"><path class="b" d="M547.949,597.807a11.952,11.952,0,0,1,0-23.9h107.6a11.952,11.952,0,1,1,0,23.9Zm47.807,167.325a11.952,11.952,0,0,1,0-23.9h59.795a11.952,11.952,0,1,1,0,23.9Zm-23.9-83.662a11.952,11.952,0,0,1,0-23.9h83.7a11.952,11.952,0,1,1,0,23.9ZM703.34,669.518A119.518,119.518,0,1,1,822.858,789.036,119.512,119.512,0,0,1,703.34,669.518Zm23.9,0A95.614,95.614,0,1,0,822.858,573.9,95.607,95.607,0,0,0,727.244,669.518Zm107.566-41.831v42.859l26.378,26.377a11.95,11.95,0,0,1-16.9,16.9l-29.879-29.879a11.955,11.955,0,0,1-3.5-8.45V627.687a11.952,11.952,0,1,1,23.9,0Z" transform="translate(-536 -550)"/></g></svg>