<svg xmlns="http://www.w3.org/2000/svg" width="353.875" height="314.491" viewBox="0 0 353.875 314.491">
  <g id="solidarity" transform="translate(-6722.44 -1524.011)" opacity="0.2">
    <path id="Caminho_234" data-name="Caminho 234" d="M7046.6,1553.7c-39.553-39.562-103.725-39.569-142.846-.016l-4.4,4.4-4.395-4.4c-39.553-39.562-103.725-39.569-142.847-.016-39.561,39.553-39.569,103.724-.016,142.846l13.624,13.627,124.371,124.4a9.6,9.6,0,0,0,2.2,1.758c.438.44.879.44,1.317.879.44,0,.44.44.88.44a2.64,2.64,0,0,0,1.758.44h.878c.88,0,1.759.439,2.638.44a5.523,5.523,0,0,0,2.672-.457l.67-.02c.32.19,1.423-.4,1.933-.4.439,0,.439-.44.879-.44.44-.439.88-.439,1.319-.879a7.694,7.694,0,0,0,2.2-1.758l43.52-43.508,80.441-80.425,13.628-13.624A101.738,101.738,0,0,0,7046.6,1553.7Zm-276.024,18.513a74.808,74.808,0,0,1,105.485.012l4.4,4.4-12.749,12.744c-14.065,14.063-14.069,37.359,0,51.865a37.149,37.149,0,0,0,51.864.006l12.746-12.745,72.515,72.53-61.98,61.966-114.7-114.729a12.745,12.745,0,0,0-18.461,0l-34.727,34.279-4.4-4.4C6741.557,1649.131,6741.563,1601.662,6770.575,1572.217ZM6793.854,1701l25.056-25.051,105.475,105.5-25.055,25.49Zm234.271-22.829-4.395,4.395-81.3-81.322a11.966,11.966,0,0,0-7.031-3.517,12.817,12.817,0,0,0-12.747,3.515l-21.979,21.974a10.256,10.256,0,0,1-14.5-14.506l21.979-21.974h0l.439-.44,13.627-13.623a74.746,74.746,0,0,1,105.913,105.5Z" transform="translate(0 0)" fill="#fff"/>
  </g>
</svg>
